SplineFontDB: 3.2
FontName: KillfeedIcons
FullName: KillfeedIcons
FamilyName: KillfeedIcons
Weight: Regular
Copyright: Copyright (c) 2025, AdamTomaszewski
UComments: "2025-2-28: Created with FontForge (http://fontforge.org)"
Version: 001.000
ItalicAngle: 0
UnderlinePosition: -272.384
UnderlineWidth: 40.96
Ascent: 1638
Descent: 410
InvalidEm: 0
LayerCount: 2
Layer: 0 0 "Back" 1
Layer: 1 0 "Fore" 0
HasVMetrics: 1
XUID: [1021 184 1729844771 29935]
StyleMap: 0x0000
FSType: 0
OS2Version: 0
OS2_WeightWidthSlopeOnly: 0
OS2_UseTypoMetrics: 1
CreationTime: 1740749992
ModificationTime: 1740929302
OS2TypoAscent: 0
OS2TypoAOffset: 1
OS2TypoDescent: 0
OS2TypoDOffset: 1
OS2TypoLinegap: 184
OS2WinAscent: 0
OS2WinAOffset: 1
OS2WinDescent: 0
OS2WinDOffset: 1
HheadAscent: 0
HheadAOffset: 1
HheadDescent: 0
HheadDOffset: 1
MarkAttachClasses: 1
DEI: 91125
Encoding: ISO8859-1
UnicodeInterp: none
NameList: AGL For New Fonts
DisplaySize: -48
AntiAlias: 1
FitToEm: 0
WinInfo: 0 27 10
BeginPrivate: 0
EndPrivate
BeginChars: 256 44

StartChar: braceright
Encoding: 125 125 0
Width: 3227
VWidth: 4194
Flags: HW
LayerCount: 2
Fore
SplineSet
3187 129 m 4
 3187 77 3154 37 3088 8 c 4
 3022 -15 2966 -27 2920 -27 c 4
 2846 -27 2791 -10 2753 23 c 6
 1618 981 l 5
 471 23 l 6
 436 -4 373 -18 283 -18 c 4
 122 -18 41 29 41 125 c 4
 41 174 68 222 123 268 c 6
 1292 1253 l 5
 162 2198 l 6
 109 2243 82 2290 82 2341 c 4
 82 2415 122 2458 201 2472 c 4
 221 2476 288 2478 403 2478 c 4
 444 2478 479 2466 506 2443 c 6
 1618 1516 l 5
 2720 2441 l 6
 2750 2466 2829 2478 2957 2478 c 4
 3080 2478 3142 2432 3142 2341 c 4
 3142 2290 3115 2243 3062 2198 c 6
 1937 1253 l 5
 3101 268 l 6
 3158 219 3187 173 3187 129 c 4
EndSplineSet
Validated: 1
EndChar

StartChar: exclam
Encoding: 33 33 1
Width: 8229
Flags: HW
LayerCount: 2
Fore
SplineSet
5929.5 6188.375 m 2
 6557.25 5819.375 l 2
 5765.25 4446.875 l 2
 5137.5 4815.875 l 2
 5929.5 6188.375 l 2
7533.75 4872.125 m 2
 7893.75 4235.375 l 2
 6521.25 3443.375 l 2
 6161.25 4077.875 l 2
 7533.75 4872.125 l 2
7875.75 529.625 m 2
 7358.25 14.375 l 2
 6235.5 1130.375 l 2
 6750.75 1645.625 l 2
 7875.75 529.625 l 2
1553.25 1636.625 m 2
 2068.5 1121.375 l 2
 945.75 5.375 l 2
 428.25 520.625 l 2
 1553.25 1636.625 l 2
4345.5 4687.625 m 2
 3607.5 4687.625 l 2
 3607.5 6271.625 l 2
 4345.5 6271.625 l 2
 4345.5 4687.625 l 2
3074.25 4851.875 m 2
 2446.5 4485.125 l 2
 1654.5 5857.625 l 2
 2280 6226.625 l 2
 3074.25 4851.875 l 2
2068.5 4050.875 m 2
 1708.5 3414.125 l 2
 336 4208.375 l 2
 696 4842.875 l 2
 2068.5 4050.875 l 2
7929.75 2964.125 m 2
 7929.75 2235.125 l 2
 6345.75 2235.125 l 2
 6345.75 2964.125 l 2
 7929.75 2964.125 l 2
1884 2964.125 m 2
 1884 2235.125 l 2
 300 2235.125 l 2
 300 2964.125 l 2
 1884 2964.125 l 2
2169.75 1812.125 m 2
 2169.75 3681.875 l 2
 3175.5 3681.875 l 2
 3175.5 4392.875 l 2
 5045.25 4401.875 l 2
 5045.25 3387.125 l 2
 6060 3387.125 l 2
 6060 1083.125 l 2
 4327.5 1083.125 l 2
 4327.5 2529.875 l 2
 3893.25 2529.875 l 2
 3893.25 1812.125 l 2
 2169.75 1812.125 l 2
EndSplineSet
Validated: 1
EndChar

StartChar: quotedbl
Encoding: 34 34 2
Width: 6931
VWidth: 2848
Flags: HW
LayerCount: 2
Fore
SplineSet
2401.67382812 3110.21679688 m 27
 2401.67382812 3229.46679688 2428.67382812 3386.96679688 2547.92382812 3386.96679688 c 27
 2768.42382812 3386.96679688 3128.42382812 3386.96679688 3128.42382812 3386.96679688 c 26
 3128.42382812 3386.96679688 3128.42382812 3746.96679688 3128.42382812 3976.46679688 c 27
 3128.42382812 4124.96679688 3330.92382812 4113.71679688 3479.42382812 4113.71679688 c 27
 3636.92382812 4113.71679688 3848.42382812 4133.96679688 3848.42382812 3976.46679688 c 27
 3848.42382812 3746.96679688 3848.42382812 3386.96679688 3848.42382812 3386.96679688 c 26
 3848.42382812 3386.96679688 4199.42382812 3386.96679688 4428.92382812 3386.96679688 c 27
 4548.17382812 3386.96679688 4566.17382812 3229.46679688 4566.17382812 3110.21679688 c 27
 4566.17382812 2981.96679688 4557.17382812 2815.46679688 4428.92382812 2815.46679688 c 27
 4199.42382812 2815.46679688 3839.42382812 2815.46679688 3839.42382812 2815.46679688 c 26
 3839.42382812 2815.46679688 3839.42382812 2464.46679688 3839.42382812 2243.96679688 c 27
 3839.42382812 2095.46679688 3636.92382812 2095.46679688 3488.42382812 2095.46679688 c 27
 3339.92382812 2095.46679688 3128.42382812 2095.46679688 3128.42382812 2243.96679688 c 27
 3128.42382812 2464.46679688 3128.42382812 2815.46679688 3128.42382812 2815.46679688 c 26
 3128.42382812 2815.46679688 2759.42382812 2815.46679688 2547.92382812 2815.46679688 c 27
 2419.67382812 2815.46679688 2401.67382812 2981.96679688 2401.67382812 3110.21679688 c 27
5009.42382812 3744.71679688 m 27
 5146.67382812 3744.71679688 5304.17382812 3661.46679688 5304.17382812 3524.21679688 c 27
 5304.17382812 3182.21679688 5304.17382812 2999.96679688 5304.17382812 2657.96679688 c 27
 5304.17382812 2520.71679688 5146.67382812 2455.46679688 5009.42382812 2455.46679688 c 27
 4872.17382812 2455.46679688 4714.67382812 2520.71679688 4714.67382812 2657.96679688 c 27
 4714.67382812 2999.96679688 4714.67382812 3182.21679688 4714.67382812 3524.21679688 c 27
 4714.67382812 3661.46679688 4872.17382812 3744.71679688 5009.42382812 3744.71679688 c 27
1949.42382812 3744.71679688 m 27
 2086.67382812 3744.71679688 2244.17382812 3661.46679688 2244.17382812 3524.21679688 c 27
 2244.17382812 3182.21679688 2244.17382812 2999.96679688 2244.17382812 2657.96679688 c 27
 2244.17382812 2520.71679688 2086.67382812 2455.46679688 1949.42382812 2455.46679688 c 27
 1812.17382812 2455.46679688 1654.67382812 2520.71679688 1654.67382812 2657.96679688 c 27
 1654.67382812 2999.96679688 1654.67382812 3182.21679688 1654.67382812 3524.21679688 c 27
 1654.67382812 3661.46679688 1812.17382812 3744.71679688 1949.42382812 3744.71679688 c 27
2824.67382812 4610.96679688 m 27
 2824.67382812 4748.21679688 2898.92382812 4896.71679688 3036.17382812 4896.71679688 c 27
 3378.17382812 4896.71679688 3560.42382812 4896.71679688 3902.42382812 4896.71679688 c 27
 4039.67382812 4896.71679688 4116.17382812 4748.21679688 4116.17382812 4610.96679688 c 27
 4116.17382812 4473.71679688 4039.67382812 4316.21679688 3902.42382812 4316.21679688 c 27
 3560.42382812 4316.21679688 3378.17382812 4316.21679688 3036.17382812 4316.21679688 c 27
 2898.92382812 4316.21679688 2824.67382812 4473.71679688 2824.67382812 4610.96679688 c 27
2824.67382812 1589.21679688 m 27
 2824.67382812 1726.46679688 2898.92382812 1874.96679688 3036.17382812 1874.96679688 c 27
 3378.17382812 1874.96679688 3560.42382812 1874.96679688 3902.42382812 1874.96679688 c 27
 4039.67382812 1874.96679688 4116.17382812 1726.46679688 4116.17382812 1589.21679688 c 27
 4116.17382812 1451.96679688 4039.67382812 1294.46679688 3902.42382812 1294.46679688 c 27
 3560.42382812 1294.46679688 3378.17382812 1294.46679688 3036.17382812 1294.46679688 c 27
 2898.92382812 1294.46679688 2824.67382812 1451.96679688 2824.67382812 1589.21679688 c 27
3452.42382812 5265.71679688 m 24
 4613.42382812 5274.71679688 5598.92382812 4363.46679688 5607.92382812 3202.46679688 c 24
 5616.92382812 2032.46679688 4658.42382812 1071.71679688 3488.42382812 1062.71679688 c 24
 2318.42382812 1053.71679688 1359.92382812 2014.46679688 1350.92382812 3184.46679688 c 24
 1341.92382812 4336.46679688 2300.42382812 5256.71679688 3452.42382812 5265.71679688 c 24
300.173828125 3146.21679688 m 24
 318.173828125 1395.71679688 1764.92382812 -51.033203125 3515.42382812 -33.033203125 c 24
 5283.92382812 -6.033203125 6649.67382812 1460.96679688 6631.67382812 3229.46679688 c 24
 6613.67382812 5018.21679688 5220.92382812 6491.96679688 3432.17382812 6464.96679688 c 24
 1663.67382812 6437.96679688 282.173828125 4914.71679688 300.173828125 3146.21679688 c 24
EndSplineSet
Validated: 41
EndChar

StartChar: numbersign
Encoding: 35 35 3
Width: 8378
VWidth: 2848
Flags: HW
LayerCount: 2
Fore
SplineSet
3616.5 2362.875 m 26
 3616.5 1642.875 l 26
 4768.5 1642.875 l 26
 4768.5 2362.875 l 26
 3616.5 2362.875 l 26
4622.25 3514.875 m 26
 4622.25 2657.625 l 26
 5625.75 2648.625 l 26
 5625.75 3505.875 l 26
 4622.25 3514.875 l 26
2750.25 3514.875 m 26
 2750.25 2648.625 l 26
 3756 2648.625 l 26
 3756 3514.875 l 26
 2750.25 3514.875 l 26
2023.5 4529.625 m 26
 3616.5 4529.625 l 26
 3616.5 3946.875 l 26
 4759.5 3946.875 l 26
 4759.5 4529.625 l 26
 6345.75 4529.625 l 26
 6345.75 1496.625 l 26
 4908 1505.625 l 26
 4908 490.875 l 26
 3461.25 490.875 l 26
 3461.25 1496.625 l 26
 2032.5 1496.625 l 26
 2023.5 4529.625 l 26
3018 5726.625 m 26
 3267.75 5875.125 l 26
 3699.75 5119.125 l 26
 3452.25 4970.625 l 26
 3018 5726.625 l 26
5202.75 5875.125 m 26
 5450.25 5726.625 l 26
 5018.25 4970.625 l 26
 4768.5 5119.125 l 26
 5202.75 5875.125 l 26
4041.75 5965.125 m 26
 4336.5 5965.125 l 26
 4336.5 5098.875 l 26
 4041.75 5098.875 l 26
 4041.75 5965.125 l 26
6492 5681.625 m 2
 6492 4529.625 l 2
 8078.25 4529.625 l 2
 8078.25 5681.625 l 2
 6492 5681.625 l 2
300 5681.625 m 2
 300 4529.625 l 2
 1884 4529.625 l 2
 1884 5681.625 l 2
 300 5681.625 l 2
6492 1219.875 m 2
 6492 67.875 l 2
 8078.25 67.875 l 2
 8078.25 1219.875 l 2
 6492 1219.875 l 2
300 1219.875 m 2
 300 67.875 l 2
 1884 67.875 l 2
 1884 1219.875 l 2
 300 1219.875 l 2
EndSplineSet
Validated: 9
EndChar

StartChar: dollar
Encoding: 36 36 4
Width: 8378
VWidth: 2848
Flags: HW
LayerCount: 2
Fore
SplineSet
3616.5 2409.625 m 30
 3616.5 1689.625 l 30
 4768.5 1689.625 l 30
 4768.5 2409.625 l 30
 3616.5 2409.625 l 30
4622.25 3561.625 m 30
 4622.25 2704.375 l 30
 5625.75 2695.375 l 30
 5625.75 3552.625 l 30
 4622.25 3561.625 l 30
2750.25 3561.625 m 30
 2750.25 2695.375 l 30
 3756 2695.375 l 30
 3756 3561.625 l 30
 2750.25 3561.625 l 30
4764 4576.375 m 30
 4768.5 4576.375 6345.75 4576.375 6345.75 4576.375 c 30
 6345.75 1543.375 l 30
 4908 1552.375 l 30
 4908 537.625 l 30
 3461.25 537.625 l 30
 3461.25 1543.375 l 30
 2032.5 1543.375 l 30
 2023.5 4576.375 l 30
 4764 4576.375 l 30
6492 5728.375 m 6
 6492 4576.375 l 6
 8078.25 4576.375 l 6
 8078.25 5728.375 l 6
 6492 5728.375 l 6
300 5728.375 m 6
 300 4576.375 l 6
 1884 4576.375 l 6
 1884 5728.375 l 6
 300 5728.375 l 6
6492 1266.625 m 6
 6492 114.625 l 6
 8078.25 114.625 l 6
 8078.25 1266.625 l 6
 6492 1266.625 l 6
300 1266.625 m 6
 300 114.625 l 6
 1884 114.625 l 6
 1884 1266.625 l 6
 300 1266.625 l 6
EndSplineSet
Validated: 9
EndChar

StartChar: percent
Encoding: 37 37 5
Width: 7578
VWidth: 2848
Flags: HW
LayerCount: 2
Fore
SplineSet
6936 869 m 31
 6936 452 6714 8 6297 8 c 31
 5289 8 3717 8 2709 8 c 31
 2292 8 2118 452 2118 869 c 31
 2118 1286 2292 1727 2709 1727 c 31
 3717 1727 5289 1727 6297 1727 c 31
 6714 1727 6936 1286 6936 869 c 31
6492 5846 m 31
 6861 5846 7278 5624 7278 5255 c 31
 7278 4346 7278 3362 7278 2453 c 31
 7278 2084 6861 1913 6492 1913 c 31
 6123 1913 5706 2084 5706 2453 c 31
 5706 3362 5706 4346 5706 5255 c 31
 5706 5624 6123 5846 6492 5846 c 31
4638 6263 m 31
 5031 6263 5460 6041 5460 5648 c 31
 5460 4691 5460 3410 5460 2453 c 31
 5460 2060 5031 1889 4638 1889 c 31
 4245 1889 3813 2060 3813 2453 c 31
 3813 3410 3813 4691 3813 5648 c 31
 3813 6041 4245 6263 4638 6263 c 31
2868 6017 m 31
 3261 6017 3690 5795 3690 5402 c 31
 3690 4445 3690 3410 3690 2453 c 31
 3690 2060 3261 1889 2868 1889 c 31
 2475 1889 2043 2060 2043 2453 c 31
 2043 3410 2043 4445 2043 5402 c 31
 2043 5795 2475 6017 2868 6017 c 31
1086 5600 m 31
 1455 5600 1872 5378 1872 5009 c 31
 1872 4100 1872 3362 1872 2453 c 31
 1872 2084 1455 1913 1086 1913 c 31
 717 1913 300 2084 300 2453 c 31
 300 3362 300 4100 300 5009 c 31
 300 5378 717 5600 1086 5600 c 31
EndSplineSet
Validated: 1
EndChar

StartChar: ampersand
Encoding: 38 38 6
Width: 8341
VWidth: 2848
Flags: HW
LayerCount: 2
Fore
SplineSet
5676 3958.9375 m 30
 6363.75 3958.9375 l 30
 6363.75 4806.8125 l 30
 5676 4806.8125 l 30
 5676 3958.9375 l 30
4158.75 3281.6875 m 30
 5009.25 3281.6875 l 30
 5009.25 4806.8125 l 30
 4158.75 4806.8125 l 30
 4158.75 3281.6875 l 30
2654.625 3281.6875 m 30
 3502.5 3281.6875 l 30
 3502.5 4806.8125 l 30
 2654.625 4806.8125 l 30
 2654.625 3281.6875 l 30
1147.875 3281.6875 m 30
 1998.375 3281.6875 l 30
 1998.375 4806.8125 l 30
 1147.875 4806.8125 l 30
 1147.875 3281.6875 l 30
5502.75 97.5625 m 30
 5502.75 1625.3125 l 30
 6857.25 1625.3125 l 30
 6857.25 97.5625 l 30
 5502.75 97.5625 l 30
1310.625 97.5625 m 30
 1310.625 1625.3125 l 30
 2665.125 1625.3125 l 30
 2665.125 97.5625 l 30
 1310.625 97.5625 l 30
300 937.5625 m 30
 300 5817.4375 l 30
 7030.5 5817.4375 l 30
 7030.5 4140.0625 l 30
 8041.125 4140.0625 l 30
 8041.125 937.5625 l 30
 7020 937.5625 l 30
 7020 1774.9375 l 30
 5353.125 1774.9375 l 30
 5353.125 937.5625 l 30
 2814.75 937.5625 l 30
 2814.75 1774.9375 l 30
 1158.375 1774.9375 l 30
 1158.375 937.5625 l 30
 300 937.5625 l 30
EndSplineSet
Validated: 1
EndChar

StartChar: asterisk
Encoding: 42 42 7
Width: 6115
VWidth: 2498
Flags: HW
LayerCount: 2
Fore
SplineSet
5815.19921875 701 m 5
 5815.19921875 6484.40039062 l 5
 307.19921875 6484.40039062 l 5
 300 704.599609375 l 5
 3061.19921875 -888.400390625 l 5
 5815.19921875 701 l 5
642 902.599609375 m 5
 649.19921875 6146 l 5
 5471.39941406 6146 l 5
 5471.39941406 895.400390625 l 5
 3061.19921875 -494.200195312 l 5
 642 902.599609375 l 5
EndSplineSet
Validated: 9
EndChar

StartChar: plus
Encoding: 43 43 8
Width: 6115
VWidth: 2498
Flags: HW
LayerCount: 2
Fore
SplineSet
5815.19921875 701 m 1
 5815.19921875 6484.40039062 l 1
 307.19921875 6484.40039062 l 1
 300 704.599609375 l 1
 3061.19921875 -888.400390625 l 1
 5815.19921875 701 l 1
642 902.599609375 m 1
 649.19921875 6146 l 1
 5471.39941406 6146 l 1
 5471.39941406 895.400390625 l 1
 3061.19921875 -494.200195312 l 1
 642 902.599609375 l 1
5080.79980469 1212.20019531 m 1
 5080.79980469 1212.20019531 5080.79980469 1982.59960938 5080.79980469 1989.79980469 c 1
 3054 818 l 2
 3054 818 1047 1984.40039062 1029 1995.20019531 c 1
 1029 1734.20019531 1029 1466 1029 1205 c 1
 3057.59960938 44 l 1
 3054 44 5080.79980469 1212.20019531 5080.79980469 1212.20019531 c 1
EndSplineSet
Validated: 524329
EndChar

StartChar: comma
Encoding: 44 44 9
Width: 6109
VWidth: 2498
Flags: HW
LayerCount: 2
Fore
SplineSet
5809.80078125 701 m 1
 5809.80078125 6484.40039062 l 1
 307.200195312 6484.40039062 l 1
 300 704.599609375 l 1
 3061.20019531 -888.400390625 l 1
 5809.80078125 701 l 1
642 902.599609375 m 1
 649.200195312 6146 l 1
 5471.40039062 6146 l 1
 5471.40039062 895.400390625 l 1
 3061.20019531 -494.200195312 l 1
 642 902.599609375 l 1
5080.80078125 1212.20019531 m 1
 5080.80078125 1212.20019531 5080.80078125 1982.59960938 5080.80078125 1989.79980469 c 1
 3054 818 l 2
 3050.40039062 818 1047 1984.40039062 1029 1995.20019531 c 1
 1029 1734.20019531 1029 1466 1029 1205 c 1
 3054 44 l 1
 5080.80078125 1212.20019531 l 1
5073.60058594 1982.59960938 m 1
 5073.60058594 1916 5073.60058594 1212.20019531 5073.60058594 1212.20019531 c 2
 3054 47.599609375 l 2
 3054 47.599609375 1032.60058594 1205 1032.60058594 1208.59960938 c 2
 1036.20019531 1986.20019531 l 1
 3050.40039062 814.400390625 l 1
 5073.60058594 1982.59960938 l 1
1032.60058594 1989.79980469 m 1
 1032.60058594 1205 l 1
 3054 47.599609375 l 1
 5077.20019531 1212.20019531 l 1
 5077.20019531 1986.20019531 l 1
 3050.40039062 818 l 1
 1032.60058594 1989.79980469 l 1
5091.60058594 2466.79980469 m 1
 5091.60058594 2466.79980469 5091.60058594 3240.79980469 5091.60058594 3248 c 1
 3061.20019531 2076.20019531 l 2
 3061.20019531 2076.20019531 1057.80078125 3237.20019531 1039.80078125 3248 c 1
 1039.80078125 2987 1039.80078125 2720.59960938 1039.80078125 2459.59960938 c 1
 3064.80078125 1302.20019531 l 1
 3061.20019531 1302.20019531 5091.60058594 2466.79980469 5091.60058594 2466.79980469 c 1
EndSplineSet
Validated: 524325
EndChar

StartChar: hyphen
Encoding: 45 45 10
Width: 6115
VWidth: 2498
Flags: HW
LayerCount: 2
Fore
SplineSet
5815.19921875 701 m 1
 5815.19921875 6484.40039062 l 1
 307.19921875 6484.40039062 l 1
 300 704.599609375 l 1
 3061.19921875 -888.400390625 l 1
 5815.19921875 701 l 1
642 902.599609375 m 1
 649.19921875 6146 l 1
 5471.39941406 6146 l 1
 5471.39941406 895.400390625 l 1
 3061.19921875 -494.200195312 l 1
 642 902.599609375 l 1
5080.79980469 1212.20019531 m 1
 5080.79980469 1212.20019531 5080.79980469 1982.59960938 5080.79980469 1989.79980469 c 1
 3054 818 l 2
 3054 818 1047 1984.40039062 1029 1995.20019531 c 1
 1029 1734.20019531 1029 1466 1029 1205 c 1
 3057.59960938 44 l 1
 3054 44 5080.79980469 1212.20019531 5080.79980469 1212.20019531 c 1
5088 2466.79980469 m 1
 5088 2466.79980469 5088 3240.79980469 5088 3248 c 1
 3064.79980469 2076.20019531 l 2
 3061.19921875 2076.20019531 1057.79980469 3237.20019531 1039.79980469 3248 c 1
 1039.79980469 2987 1039.79980469 2720.59960938 1039.79980469 2459.59960938 c 1
 3064.79980469 1302.20019531 l 1
 5088 2466.79980469 l 1
5080.79980469 3723.20019531 m 1
 5080.79980469 3723.20019531 5080.79980469 4497.20019531 5080.79980469 4504.40039062 c 1
 3054 3332.59960938 l 2
 3054 3332.59960938 1047 4497.20019531 1029 4508 c 1
 1029 4247 1032.59960938 3977 1032.59960938 3716 c 1
 3057.59960938 2558.59960938 l 1
 3054 2558.59960938 5080.79980469 3723.20019531 5080.79980469 3723.20019531 c 1
EndSplineSet
Validated: 524329
EndChar

StartChar: zero
Encoding: 48 48 11
Width: 20030
Flags: HW
LayerCount: 2
Fore
SplineSet
7299.40332031 4710.66210938 m 1
 7299.40332031 4793.67773438 l 1
 7147.60351562 4793.67773438 l 1
 7147.60351562 4710.66210938 l 1
 7007.66210938 4710.66210938 l 1
 7007.66210938 4788.93457031 l 1
 6858.234375 4788.93457031 l 1
 6858.234375 4710.66210938 l 1
 6701.69140625 4710.66210938 l 1
 6701.69140625 4788.93457031 l 1
 6547.51953125 4788.93457031 l 1
 6547.51953125 4710.66210938 l 1
 6381.48828125 4710.66210938 l 1
 6381.48828125 4788.93457031 l 1
 6234.43164062 4788.93457031 l 1
 6234.43164062 4710.66210938 l 1
 6099.234375 4710.66210938 l 1
 6099.234375 4793.67773438 l 1
 5940.31835938 4793.67773438 l 1
 5940.31835938 4710.66210938 l 1
 5821.72460938 4710.66210938 l 1
 5821.72460938 4793.67773438 l 1
 5477.80273438 4793.67773438 l 1
 5463.57226562 4487.70507812 l 1
 449.427734375 4461.61523438 l 1
 420.965820312 4383.34277344 300 4067.88378906 300 4063.13964844 c 0
 300 3256.70214844 300 2457.38085938 300 1650.94335938 c 1
 342.693359375 1548.95214844 392.50390625 1451.70507812 435.196289062 1349.71582031 c 1
 4277.63476562 2189.35839844 l 1
 4277.63476562 2189.35839844 6236.80273438 2704.05566406 6357.76953125 2737.26269531 c 1
 6649.50976562 2538.02441406 l 1
 6881.953125 2120.57519531 l 1
 6929.390625 1707.86816406 l 1
 6929.390625 1707.86816406 6215.45703125 687.961914062 6215.45703125 683.217773438 c 2
 6047.05273438 -44.947265625 l 2
 6070.77148438 -381.752929688 l 1
 6279.49707031 -464.768554688 6585.46875 -585.735351562 6585.46875 -585.735351562 c 2
 7007.66210938 -623.685546875 l 1
 8338.28515625 -1060.11035156 l 2
 10038.9189453 -1211.90917969 l 1
 10038.9189453 -1157.35742188 l 1
 11651.7939453 -1012.67285156 l 1
 11490.5058594 2426.54589844 l 1
 11661.28125 2236.79589844 l 1
 18364.2001953 2625.78320312 l 1
 18470.9345703 2972.07714844 l 1
 19730.4003906 2972.07714844 l 1
 19730.4003906 3465.42773438 l 1
 18456.703125 3465.42773438 l 1
 18404.5214844 4390.45898438 l 1
 18229.0039062 4390.45898438 18055.8564453 4395.20214844 17880.3378906 4395.20214844 c 1
 17880.3378906 4622.90332031 l 1
 17792.578125 4622.90332031 l 1
 17792.578125 4696.43066406 17797.3222656 4767.58691406 17792.578125 4836.37207031 c 1
 17738.0253906 4924.13085938 l 1
 17709.5625 4924.13085938 l 1
 17709.5625 5289.39941406 17707.1914062 5287.02832031 17659.7539062 5875.25195312 c 1
 17567.25 5889.48339844 17567.25 5894.22753906 17441.5410156 5894.22753906 c 1
 17394.1035156 5685.50195312 17344.2939453 5472.03320312 17301.5996094 5263.30957031 c 1
 17301.5996094 5263.30957031 17299.2285156 5258.56445312 17261.2783203 4928.87402344 c 1
 17334.8066406 4928.87402344 l 1
 17330.0625 4914.64257812 l 1
 17296.8564453 4914.64257812 17251.7910156 4919.38769531 17228.0722656 4909.89941406 c 0
 17213.8408203 4890.92382812 17185.3789062 4864.83398438 17171.1464844 4841.11523438 c 2
 17171.1464844 4632.38964844 l 1
 17083.3876953 4632.38964844 l 1
 17083.3876953 4701.17382812 l 1
 16936.3320312 4701.17382812 l 1
 16936.3320312 4627.64648438 l 1
 16786.9033203 4627.64648438 l 1
 16786.9033203 4696.43066406 l 1
 16644.5908203 4696.43066406 l 1
 16644.5908203 4627.64648438 l 1
 16476.1875 4627.64648438 l 1
 16476.1875 4701.17382812 l 1
 16338.6191406 4701.17382812 l 1
 16338.6191406 4632.38964844 l 1
 16170.2158203 4632.38964844 l 1
 16170.2158203 4701.17382812 l 1
 16018.4160156 4701.17382812 l 1
 16018.4160156 4627.64648438 l 1
 15878.4746094 4627.64648438 l 1
 15878.4746094 4701.17382812 l 1
 15736.1621094 4701.17382812 l 1
 15736.1621094 4632.38964844 l 1
 15605.7089844 4632.38964844 l 1
 15605.7089844 4701.17382812 l 1
 15257.0439453 4701.17382812 l 1
 15257.0439453 4539.88769531 l 1
 15031.7158203 4466.35839844 l 1
 12652.7246094 4475.84570312 l 1
 12749.9726562 5068.81445312 l 1
 12749.9726562 5068.81445312 12422.6533203 5014.26269531 12384.703125 4981.05566406 c 0
 12315.9189453 4917.01464844 12249.5058594 4857.71777344 12180.7226562 4788.93457031 c 1
 12045.5253906 4487.70507812 l 1
 8300.33398438 4487.70507812 l 1
 8300.33398438 4710.66210938 l 1
 8212.57519531 4710.66210938 l 1
 8212.57519531 4784.18945312 8217.31835938 4864.83398438 8207.83203125 4928.87402344 c 0
 8179.36914062 4957.33691406 8153.27832031 4992.91503906 8120.07226562 5016.63378906 c 0
 8110.58398438 5026.12207031 8086.86523438 5026.12207031 8086.86523438 5045.09570312 c 2
 8086.86523438 6055.51464844 l 1
 7956.41210938 6055.51464844 7814.09960938 6060.25878906 7693.13476562 6050.77148438 c 1
 7664.671875 6017.56445312 7633.83789062 5986.73144531 7610.11914062 5953.52441406 c 2
 7387.16210938 5035.60839844 l 1
 7522.359375 5016.63378906 l 1
 7498.640625 5011.88964844 7463.0625 5011.88964844 7439.34375 5002.40332031 c 0
 7425.11328125 4983.42773438 7406.13769531 4962.08007812 7391.90625 4943.10644531 c 0
 7382.41894531 4869.57714844 7382.41894531 4871.95019531 7382.41894531 4710.66210938 c 1
 7299.40332031 4710.66210938 l 1
8096.35351562 1280.93066406 m 1
 9668.90625 1280.93066406 l 1
 9775.640625 -1041.13476562 l 1
 9609.609375 -1012.67285156 8324.05273438 -794.459960938 8324.05273438 -794.459960938 c 2
 7313.63476562 -559.643554688 l 1
 7323.12207031 -481.373046875 7363.44335938 -54.435546875 7363.44335938 -54.435546875 c 2
 7557.9375 581.227539062 l 1
 8096.35351562 1280.93066406 l 1
8402.32519531 2101.59960938 m 1
 8786.56835938 2096.85644531 9177.92773438 2077.88085938 9552.68457031 2077.88085938 c 1
 9630.95703125 2165.63964844 l 1
 9668.90625 1425.61523438 l 1
 8096.35351562 1425.61523438 l 1
 8082.12207031 1814.60253906 l 1
 8402.32519531 2101.59960938 l 1
EndSplineSet
Validated: 41
EndChar

StartChar: one
Encoding: 49 49 12
Width: 11331
Flags: HW
LayerCount: 2
Fore
SplineSet
10438.6875 5810.00097656 m 2
 10151.90625 5960.93847656 10104.46875 5980.34472656 9839.25 6019.15722656 c 0
 9619.3125 6040.71972656 9362.71875 6010.53222656 9030.65625 5939.37597656 c 1
 8849.53125 5859.59472656 l 1
 8681.34375 5741.00097656 l 2
 8452.78125 5641.81347656 l 1
 8019.375 5311.90722656 l 1
 7762.78125 5038.06347656 l 1
 7568.71875 4781.46972656 l 1
 7501.875 4591.71972656 l 1
 7501.875 4596.03222656 7547.15625 4274.75097656 7547.15625 4274.75097656 c 1
 7547.15625 4279.06347656 7594.59375 4158.31347656 7594.59375 4158.31347656 c 1
 7594.59375 4158.31347656 7674.375 4052.65722656 7691.625 4026.78222656 c 2
 7400.53125 3703.34472656 l 1
 7197.84375 3908.18847656 l 1
 7126.6875 3934.06347656 l 1
 7008.09375 3947.00097656 l 0
 6591.9375 4085.00097656 l 2
 6587.625 4085.00097656 6402.1875 4352.37597656 6402.1875 4352.37597656 c 1
 6027 4507.62597656 l 2
 6027 4511.93847656 5841.5625 4826.75097656 5841.5625 4826.75097656 c 1
 5845.875 4822.43847656 5315.4375 5089.81347656 5306.8125 5089.81347656 c 2
 5175.28125 4997.09472656 l 1
 5175.28125 4997.09472656 4968.28125 5253.68847656 4959.65625 5258.00097656 c 2
 4875.5625 5245.06347656 l 1
 4875.5625 5240.75097656 4830.28125 5165.28222656 4830.28125 5156.65722656 c 2
 5032.96875 4904.37597656 l 1
 4948.875 4850.46972656 4951.03125 4850.46972656 4897.125 4807.34472656 c 2
 4526.25 4928.09472656 l 1
 4530.5625 4928.09472656 4278.28125 4869.87597656 4273.96875 4865.56347656 c 2
 4269.65625 4835.37597656 l 1
 4269.65625 4835.37597656 4252.40625 4835.37597656 4243.78125 4835.37597656 c 2
 4209.28125 4785.78222656 l 1
 4041.09375 4794.40722656 l 1
 3872.90625 4662.87597656 l 2
 3868.59375 4662.87597656 3754.3125 4641.31347656 3754.3125 4641.31347656 c 2
 3758.625 4587.40722656 l 1
 3633.5625 4490.37597656 l 1
 3633.5625 4490.37597656 3599.0625 4343.75097656 3590.4375 4313.56347656 c 2
 3426.5625 4309.25097656 l 2
 3422.25 4279.06347656 3417.9375 4246.71972656 3413.625 4216.53222656 c 1
 3430.875 4123.81347656 l 2
 3527.90625 4128.12597656 l 1
 3506.34375 4039.71972656 l 2
 3506.34375 4035.40722656 2432.53125 3108.21972656 2432.53125 3108.21972656 c 1
 2432.53125 3112.53222656 2309.625 2864.56347656 2309.625 2860.25097656 c 1
 2309.625 2860.25097656 2313.9375 2709.31347656 2313.9375 2683.43847656 c 2
 2106.9375 2534.65722656 l 1
 2106.9375 2534.65722656 1686.46875 2202.59472656 1677.84375 2198.28222656 c 1
 1643.34375 2030.09472656 l 1
 1643.34375 2034.40722656 1727.4375 1713.12597656 1727.4375 1713.12597656 c 1
 1727.4375 1713.12597656 1854.65625 1562.18847656 1884.84375 1527.68847656 c 1
 1576.5 1296.96972656 l 2
 780.84375 1111.53222656 l 2
 772.21875 1111.53222656 446.625 1133.09472656 442.3125 1133.09472656 c 2
 431.53125 1036.06347656 l 1
 300 1001.56347656 l 1
 308.625 740.657226562 l 1
 463.875 775.157226562 616.96875 811.813476562 772.21875 846.313476562 c 0
 772.21875 846.313476562 1102.125 790.250976562 1248.75 781.625976562 c 0
 1248.75 781.625976562 1209.9375 678.125976562 1209.9375 669.500976562 c 2
 1263.84375 585.407226562 l 1
 1263.84375 585.407226562 1076.25 516.407226562 1071.9375 507.782226562 c 2
 1076.25 432.313476562 l 1
 1104.28125 330.969726562 l 1
 1138.78125 246.875976562 l 2
 1315.59375 318.032226562 l 1
 1028.8125 113.188476562 l 2
 1050.375 63.5947265625 1078.40625 14.0009765625 1099.96875 -35.5927734375 c 1
 1099.96875 -35.5927734375 1205.625 -98.1240234375 1214.25 -98.1240234375 c 2
 1505.34375 108.875976562 l 1
 1546.3125 48.5009765625 l 1
 860.625 -425.874023438 l 1
 1024.5 -591.905273438 l 1
 1669.21875 -119.686523438 l 1
 1731.75 -208.092773438 1729.59375 -208.092773438 1779.1875 -279.249023438 c 1
 1779.1875 -279.249023438 1871.90625 -350.405273438 1876.21875 -350.405273438 c 1
 1876.21875 -350.405273438 2074.59375 -359.030273438 2083.21875 -359.030273438 c 1
 2083.21875 -359.030273438 2124.1875 -318.061523438 2137.125 -305.124023438 c 2
 2212.59375 -363.342773438 l 2
 2225.53125 -350.405273438 2331.1875 -270.624023438 2331.1875 -261.999023438 c 2
 2305.3125 -173.592773438 l 1
 2385.09375 -106.749023438 l 1
 2385.09375 -106.749023438 2406.65625 48.5009765625 2410.96875 83.0009765625 c 0
 2482.125 74.3759765625 2546.8125 70.0634765625 2617.96875 61.4384765625 c 1
 2617.96875 61.4384765625 2680.5 100.250976562 2697.75 108.875976562 c 2
 2697.75 108.875976562 2773.21875 57.1259765625 2781.84375 57.1259765625 c 2
 2861.625 100.250976562 l 1
 2883.1875 33.4072265625 l 1
 3476.15625 242.563476562 l 1
 3493.40625 108.875976562 l 1
 3493.40625 113.188476562 3758.625 -123.999023438 3758.625 -123.999023438 c 1
 3754.3125 -123.999023438 4323.5625 -128.311523438 4323.5625 -128.311523438 c 1
 5938.59375 -52.8427734375 l 2
 6553.125 -128.311523438 l 2
 6553.125 -128.311523438 7210.78125 -238.280273438 7219.40625 -238.280273438 c 1
 7219.40625 -238.280273438 7251.75 -229.655273438 7264.6875 -229.655273438 c 1
 7273.3125 -371.967773438 l 2
 7219.40625 -663.061523438 l 2
 7219.40625 -663.061523438 7038.28125 -986.499023438 7033.96875 -990.811523438 c 0
 7033.96875 -990.811523438 7021.03125 -1046.87402344 7025.34375 -1055.49902344 c 2
 7126.6875 -1135.28027344 l 1
 7210.78125 -971.405273438 7290.5625 -813.999023438 7374.65625 -650.124023438 c 1
 7441.5 -363.342773438 l 1
 7441.5 -363.342773438 7437.1875 -246.905273438 7437.1875 -216.717773438 c 2
 7555.78125 -203.780273438 l 1
 7577.34375 -443.124023438 l 1
 7577.34375 -443.124023438 7691.625 -540.155273438 7700.25 -548.780273438 c 1
 7700.25 -548.780273438 7723.96875 -548.780273438 7736.90625 -548.780273438 c 1
 7715.34375 -742.842773438 l 2
 7715.34375 -747.155273438 7529.90625 -1055.49902344 7529.90625 -1064.12402344 c 2
 7529.90625 -1064.12402344 7581.65625 -1139.59277344 7590.28125 -1143.90527344 c 2
 7687.3125 -1126.65527344 l 1
 7762.78125 -1206.43652344 l 1
 7890 -1096.46777344 8015.0625 -980.030273438 8142.28125 -870.061523438 c 1
 8142.28125 -874.374023438 8258.71875 -287.874023438 8258.71875 -287.874023438 c 1
 8258.71875 -287.874023438 8213.4375 7.5322265625 8209.125 57.1259765625 c 2
 8209.125 57.1259765625 8470.03125 205.907226562 8474.34375 210.219726562 c 2
 8478.65625 1027.43847656 l 1
 8478.65625 1027.43847656 8394.5625 1115.84472656 8258.71875 1271.09472656 c 0
 8258.71875 1275.40722656 8023.6875 2017.15722656 8023.6875 2017.15722656 c 2
 8023.6875 2021.46972656 8086.21875 2750.28222656 8086.21875 2750.28222656 c 1
 8086.21875 2745.96972656 7922.34375 3024.12597656 7892.15625 3073.71972656 c 1
 7926.65625 3090.96972656 l 1
 7926.65625 3090.96972656 7971.9375 3058.62597656 7980.5625 3058.62597656 c 2
 7980.5625 3058.62597656 8053.875 3099.59472656 8058.1875 3108.21972656 c 2
 8045.25 3166.43847656 l 1
 8086.21875 3188.00097656 l 1
 8090.53125 3235.43847656 l 2
 8094.84375 3239.75097656 8155.21875 3280.71972656 8155.21875 3280.71972656 c 2
 8159.53125 3280.71972656 8222.0625 3263.46972656 8226.375 3263.46972656 c 1
 8226.375 3263.46972656 8275.96875 3285.03222656 8288.90625 3289.34472656 c 2
 8288.90625 3289.34472656 8342.8125 3252.68847656 8351.4375 3252.68847656 c 2
 8351.4375 3252.68847656 8420.4375 3289.34472656 8424.75 3293.65722656 c 2
 8429.0625 3315.21972656 l 1
 8549.8125 3285.03222656 l 1
 8545.5 3285.03222656 8551.96875 3285.03222656 8985.375 3213.87597656 c 0
 9006.9375 3175.06347656 9009.09375 3168.59472656 9043.59375 3125.46972656 c 1
 9043.59375 3125.46972656 9093.1875 3099.59472656 9097.5 3099.59472656 c 1
 9097.5 3099.59472656 9185.90625 3121.15722656 9190.21875 3121.15722656 c 0
 9190.21875 3121.15722656 9235.5 3144.87597656 9274.3125 3183.68847656 c 2
 9274.3125 3183.68847656 9330.375 3121.15722656 9339 3121.15722656 c 2
 9569.71875 3175.06347656 l 1
 9781.03125 3244.06347656 l 2
 10041.9375 3293.65722656 l 1
 10479.65625 3448.90722656 l 1
 10637.0625 3550.25097656 l 1
 10632.75 3550.25097656 10863.46875 3916.81347656 10863.46875 3916.81347656 c 1
 11031.65625 4363.15722656 l 1
 11031.65625 4358.84472656 11003.625 4718.93847656 11003.625 4718.93847656 c 1
 10902.28125 5148.03222656 l 1
 10716.84375 5590.06347656 l 1
 10438.6875 5810.00097656 l 2
9250.59375 3159.96972656 m 1
 9250.59375 3159.96972656 l 1
9190.21875 3121.15722656 m 1
 9190.21875 3121.15722656 l 1
9097.5 3099.59472656 m 1
 9097.5 3099.59472656 l 1
9043.59375 3125.46972656 m 1
 9043.59375 3125.46972656 l 1
9009.09375 3175.06347656 m 1
 9009.09375 3175.06347656 l 1
8226.375 3263.46972656 m 1
 8226.375 3263.46972656 l 1
8086.21875 3188.00097656 m 1
 8086.21875 3188.00097656 l 1
8478.65625 1027.43847656 m 1
 8478.65625 1027.43847656 l 1
7700.25 -548.780273438 m 1
 7700.25 -548.780273438 l 1
7577.34375 -443.124023438 m 1
 7577.34375 -443.124023438 l 1
7033.96875 -990.811523438 m 1
 7033.96875 -990.811523438 l 1
7219.40625 -238.280273438 m 1
 7219.40625 -238.280273438 l 1
2617.96875 61.4384765625 m 1
 2617.96875 61.4384765625 l 1
2385.09375 -106.749023438 m 1
 2385.09375 -106.749023438 l 1
2083.21875 -359.030273438 m 1
 2083.21875 -359.030273438 l 1
1876.21875 -350.405273438 m 1
 1876.21875 -350.405273438 l 1
1779.1875 -279.249023438 m 1
 1779.1875 -279.249023438 l 1
1099.96875 -35.5927734375 m 1
 1099.96875 -35.5927734375 l 1
1248.75 781.625976562 m 1
 1248.75 781.625976562 l 1
1677.84375 2198.28222656 m 1
 1677.84375 2198.28222656 l 1
2309.625 2860.25097656 m 1
 2309.625 2860.25097656 l 1
3413.625 4216.53222656 m 1
 3413.625 4216.53222656 l 1
3633.5625 4490.37597656 m 1
 3633.5625 4490.37597656 l 1
4041.09375 4794.40722656 m 1
 4041.09375 4794.40722656 l 1
4875.5625 5245.06347656 m 1
 4875.5625 5245.06347656 l 1
7126.6875 3934.06347656 m 1
 7126.6875 3934.06347656 l 1
7197.84375 3908.18847656 m 1
 7197.84375 3908.18847656 l 1
9498.5625 4524.87597656 m 0
 9459.75 4529.18847656 9341.15625 4591.71972656 9274.3125 4684.43847656 c 0
 9239.8125 4738.34472656 9177.28125 4837.53222656 9194.53125 4891.43847656 c 0
 9220.40625 4908.68847656 9339 4891.43847656 9448.96875 4777.15722656 c 0
 9515.8125 4693.06347656 9520.125 4563.68847656 9515.8125 4533.50097656 c 0
 9507.1875 4524.87597656 9498.5625 4524.87597656 9498.5625 4524.87597656 c 0
9270 3200.93847656 m 1
 9313.125 3289.34472656 l 1
 9658.125 3433.81347656 l 1
 9645.1875 3461.84472656 l 1
 9662.4375 3630.03222656 l 1
 9895.3125 3811.15722656 l 1
 10156.21875 3875.84472656 l 1
 10328.71875 3845.65722656 l 1
 10412.8125 3718.43847656 l 2
 10404.1875 3621.40722656 10404.1875 3513.59472656 10391.25 3416.56347656 c 1
 10374 3420.87597656 l 1
 10382.625 3470.46972656 10399.875 3722.75097656 10399.875 3722.75097656 c 2
 10399.875 3722.75097656 10320.09375 3832.71972656 10315.78125 3837.03222656 c 2
 10151.90625 3858.59472656 l 2
 9899.625 3791.75097656 l 2
 9899.625 3791.75097656 9671.0625 3619.25097656 9671.0625 3614.93847656 c 2
 9671.0625 3614.93847656 9662.4375 3466.15722656 9662.4375 3461.84472656 c 0
 9666.75 3448.90722656 9675.375 3438.12597656 9684 3425.18847656 c 1
 9321.75 3272.09472656 l 1
 9282.9375 3192.31347656 l 1
 9270 3200.93847656 l 1
9865.125 3390.68847656 m 1
 9768.09375 3438.12597656 l 2
 9763.78125 3442.43847656 9772.40625 3545.93847656 9772.40625 3545.93847656 c 1
 9772.40625 3550.25097656 9847.875 3660.21972656 9847.875 3660.21972656 c 1
 9979.40625 3752.93847656 l 1
 9979.40625 3752.93847656 10134.65625 3791.75097656 10134.65625 3796.06347656 c 1
 10138.96875 3791.75097656 10223.0625 3752.93847656 10227.375 3752.93847656 c 1
 10227.375 3744.31347656 10240.3125 3647.28222656 10240.3125 3647.28222656 c 1
 10236 3642.96972656 10156.21875 3509.28222656 10156.21875 3509.28222656 c 1
 10151.90625 3509.28222656 10000.96875 3425.18847656 10000.96875 3425.18847656 c 1
 9865.125 3390.68847656 l 1
9772.40625 3545.93847656 m 1
 9772.40625 3545.93847656 l 1
9847.875 3660.21972656 m 1
 9847.875 3660.21972656 l 1
10134.65625 3796.06347656 m 1
 10134.65625 3796.06347656 l 1
10227.375 3752.93847656 m 1
 10227.375 3752.93847656 l 1
10240.3125 3651.59472656 m 1
 10240.3125 3651.59472656 l 1
10156.21875 3509.28222656 m 1
 10156.21875 3509.28222656 l 1
8920.6875 5281.71972656 m 0
 8890.5 5290.34472656 8659.78125 5465.00097656 8698.59375 5615.93847656 c 0
 8715.84375 5628.87597656 8735.25 5637.50097656 8761.125 5637.50097656 c 0
 8884.03125 5624.56347656 8920.6875 5544.78222656 8929.3125 5501.65722656 c 0
 8963.8125 5391.68847656 8942.25 5320.53222656 8920.6875 5281.71972656 c 0
EndSplineSet
Validated: 37
EndChar

StartChar: two
Encoding: 50 50 13
Width: 12215
Flags: HW
LayerCount: 2
Fore
SplineSet
746.862304688 -1200.6640625 m 5
 300 -423.635742188 l 5
 351.232421875 -221.553710938 l 5
 1919.51464844 683.553710938 l 5
 1569.42773438 1295.49902344 l 5
 1623.50585938 1497.58300781 l 5
 2830.31445312 2197.75878906 l 5
 3049.4765625 2140.83496094 l 5
 3186.09570312 1913.13378906 l 5
 3388.18164062 2029.83105469 l 5
 3203.17480469 2342.91699219 l 5
 3254.40625 2542.15527344 l 5
 4293.28808594 3142.71484375 l 5
 4455.52539062 3470.03417969 l 5
 4432.75488281 3683.50292969 l 5
 4495.37109375 3754.65917969 l 5
 5779.03125 4494.68359375 l 5
 5835.95605469 4494.68359375 l 5
 6012.42382812 4377.98730469 l 5
 5983.9609375 4594.30175781 l 5
 6046.57714844 4651.22753906 l 5
 7281.85058594 5368.48144531 l 5
 7398.54589844 5399.79003906 l 5
 7569.32226562 5263.17089844 l 5
 7871.02539062 5257.47753906 l 5
 7964.95117188 5194.86035156 l 5
 8181.26464844 4822.00292969 l 5
 8332.1171875 4901.69628906 l 5
 8204.03613281 5123.70410156 l 5
 8260.9609375 5340.02050781 l 5
 9450.69335938 6028.81152344 l 5
 9672.70117188 5969.04003906 l 5
 9840.62988281 5678.72265625 l 5
 10039.8671875 5795.41894531 l 5
 10039.8671875 5917.80859375 l 5
 10145.1777344 6108.5078125 l 5
 10355.8007812 6225.203125 l 5
 10569.2695312 6225.203125 l 5
 10774.1992188 6114.19824219 l 5
 11915.5449219 4121.82324219 l 5
 11724.8457031 3877.046875 l 5
 11719.1552734 3848.58496094 l 5
 11485.7617188 3586.72949219 l 5
 11346.2949219 3586.72949219 l 5
 11018.9765625 4155.97949219 l 5
 10796.96875 4027.89746094 l 5
 10967.7441406 3737.58105469 l 5
 10919.3574219 3538.34277344 l 5
 9701.16308594 2832.47265625 l 5
 9499.08007812 2892.24511719 l 5
 9368.15136719 3114.25292969 l 5
 9211.60742188 3020.32519531 l 5
 9433.61523438 2641.7734375 l 5
 9439.30761719 2519.38574219 l 5
 9305.53320312 2268.91503906 l 5
 9333.99609375 2046.90917969 l 5
 9259.99414062 1964.36621094 l 5
 8021.875 1258.49707031 l 5
 7936.48828125 1230.03417969 l 5
 7760.02148438 1358.11621094 l 5
 7782.79101562 1150.33984375 l 5
 7703.09570312 1067.79785156 l 5
 6467.82421875 356.235351562 l 5
 6379.58886719 333.465820312 l 5
 6197.4296875 467.239257812 l 5
 5824.5703125 484.31640625 l 5
 4777.15039062 -127.625976562 l 5
 4600.68261719 -73.5478515625 l 5
 4415.67773438 245.231445312 l 5
 4216.43945312 128.53515625 l 5
 4350.21289062 -110.549804688 l 5
 4298.98046875 -306.940429688 l 5
 3086.47851562 -1007.1171875 l 5
 2875.85546875 -955.885742188 l 5
 2525.76757812 -343.94140625 l 5
 951.791015625 -1246.203125 l 5
 746.862304688 -1200.6640625 l 5
EndSplineSet
Validated: 1
EndChar

StartChar: three
Encoding: 51 51 14
Width: 12099
Flags: HW
LayerCount: 2
Fore
SplineSet
8248.81640625 2720.69921875 m 2
 8385.82421875 2260.25683594 l 1
 8349.88867188 2107.52539062 8302.72070312 1957.0390625 8262.29101562 1804.30664062 c 0
 8257.79882812 1804.30664062 7577.2421875 1842.48925781 7577.2421875 1842.48925781 c 0
 7453.70898438 1837.99609375 7327.9296875 1826.76757812 7204.39648438 1822.27441406 c 1
 7208.88867188 1873.93554688 l 1
 7678.31445312 1882.91796875 l 1
 7655.85449219 2163.67578125 7626.65625 2439.94140625 7599.703125 2720.69921875 c 1
 7608.6875 2720.69921875 8244.32324219 2720.69921875 8248.81640625 2720.69921875 c 2
4491.15234375 2725.19140625 m 1
 5975.80078125 2725.19140625 l 1
 6016.22851562 2583.68945312 6058.90429688 2437.6953125 6099.33398438 2296.19335938 c 1
 6090.34765625 2217.58203125 6072.38085938 2141.21484375 6058.90429688 2062.60253906 c 1
 5917.40136719 1855.96582031 5773.65429688 1651.57324219 5625.4140625 1444.93652344 c 1
 4491.15234375 1900.88671875 l 1
 4491.15234375 2725.19140625 l 1
901.943359375 2361.33007812 m 1
 1081.62890625 2361.33007812 l 1
 1081.62890625 2752.14453125 l 1
 1867.75195312 3064.34765625 l 1
 2406.80664062 2774.60449219 l 1
 2406.80664062 2186.13671875 l 1
 2038.453125 1716.7109375 l 1
 1371.37304688 1939.06933594 l 1
 901.943359375 2224.3203125 l 1
 901.943359375 2361.33007812 l 1
8336.41015625 4955.53320312 m 1
 8336.41015625 5833.7421875 l 1
 8082.60546875 5833.7421875 l 1
 8082.60546875 5460.89648438 l 1
 7631.1484375 5144.20019531 l 1
 7631.1484375 4836.49023438 l 1
 6748.4453125 4836.49023438 l 1
 6748.4453125 4735.41796875 l 1
 6923.63867188 4735.41796875 l 1
 6339.66210938 4569.20898438 l 1
 4399.06445312 4569.20898438 l 1
 4241.83984375 4697.23535156 l 1
 3808.34960938 4697.23535156 3368.12109375 4701.7265625 2934.63085938 4697.23535156 c 1
 2631.41210938 4495.08984375 l 1
 2631.41210938 4513.05761719 l 1
 1034.46289062 4513.05761719 l 1
 994.033203125 4881.41210938 960.341796875 5258.75097656 919.912109375 5622.61230469 c 1
 814.348632812 5714.70117188 l 1
 672.845703125 5701.22460938 524.60546875 5696.73339844 387.59765625 5678.76367188 c 1
 326.953125 5604.64257812 l 0
 326.953125 5604.64257812 300 5530.5234375 300 5526.03125 c 2
 432.517578125 3967.26367188 l 2
 432.517578125 3967.26367188 374.119140625 2370.31347656 374.119140625 2356.83789062 c 1
 405.564453125 2356.83789062 l 1
 396.580078125 2228.8125 387.59765625 2094.04882812 378.611328125 1966.02246094 c 1
 1155.75 1417.98339844 l 1
 1151.2578125 1422.4765625 2144.01660156 986.740234375 2148.50976562 986.740234375 c 0
 2429.26757812 1027.16894531 2429.26757812 1027.16894531 2429.26757812 1027.16894531 c 1
 2429.26757812 1036.15234375 l 1
 2590.984375 1036.15234375 l 1
 2581.99902344 -1162.7421875 l 1
 2586.4921875 -1162.7421875 3100.84082031 -1120.06835938 3100.84082031 -1120.06835938 c 2
 4158.734375 -733.744140625 l 1
 4158.734375 1031.66210938 l 1
 4470.93847656 1031.66210938 l 1
 4926.88867188 807.055664062 l 1
 5814.08300781 16.439453125 l 1
 5966.81445312 173.6640625 6117.30078125 326.396484375 6265.54199219 483.62109375 c 1
 6265.54199219 483.62109375 6946.09960938 1483.11914062 6997.75878906 1557.23828125 c 1
 7431.24804688 1557.23828125 7864.73828125 1541.51660156 8298.22851562 1541.51660156 c 1
 8376.83984375 1593.17773438 8455.453125 1642.58984375 8529.57421875 1698.74121094 c 1
 8680.05859375 2260.25683594 l 2
 8666.58203125 2401.75976562 l 1
 9522.33203125 2401.75976562 l 1
 9481.90234375 1492.10449219 l 1
 9481.90234375 -12.7578125 l 2
 9540.30078125 -246.349609375 l 1
 9540.30078125 -376.620117188 l 1
 10171.4453125 -376.620117188 l 1
 10171.4453125 -250.841796875 l 1
 10241.0722656 -26.2353515625 l 2
 10241.0722656 1519.05664062 l 1
 10241.0722656 1519.05664062 10202.8896484 2309.66992188 10198.3984375 2406.25 c 1
 10708.2539062 2406.25 l 1
 10708.2539062 2702.73046875 l 2
 10717.2373047 2702.73046875 10746.4355469 2702.73046875 10746.4355469 2711.71582031 c 2
 10746.4355469 2711.71582031 10777.8818359 2826.265625 10777.8818359 2830.75585938 c 2
 10777.8818359 2981.2421875 l 1
 11799.8398438 2981.2421875 l 1
 11799.8398438 3511.31445312 l 1
 10782.375 3511.31445312 l 1
 10782.375 3571.95703125 l 1
 10971.0419922 3571.95703125 l 1
 11112.5449219 3787.57910156 11263.03125 4003.20117188 11404.5332031 4218.82324219 c 0
 11404.5332031 4218.82324219 11620.1552734 4459.15136719 11620.1552734 4463.64453125 c 0
 11620.1552734 4867.93554688 11620.1552734 4867.93554688 11620.1552734 4867.93554688 c 1
 11090.0839844 4876.91992188 l 1
 11033.9316406 4816.27734375 10982.2734375 4753.38671875 10926.1210938 4688.25 c 0
 10926.1210938 4688.25 10786.8652344 4560.22460938 10764.4052734 4542.25585938 c 1
 9210.12988281 4542.25585938 l 1
 9012.4765625 4739.90917969 l 1
 9127.02539062 4739.90917969 l 1
 9127.02539062 4827.50683594 l 1
 8612.67773438 4827.50683594 l 1
 8612.67773438 4955.53320312 l 1
 8336.41015625 4955.53320312 l 1
EndSplineSet
Validated: 41
EndChar

StartChar: four
Encoding: 52 52 15
Width: 19032
Flags: HW
LayerCount: 2
Fore
SplineSet
5805.75 2739.75 m 5
 6303 2739.75 6807 2739.75 7299.75 2739.75 c 4
 7313.25 2730.75 7441.5 2310 7441.5 2314.5 c 5
 7401 2071.5 l 5
 7252.5 1864.5 7106.25 1650.75 6957.75 1439.25 c 5
 5814.75 1891.5 l 6
 5810.25 1900.5 5805.75 2586.75 5805.75 2739.75 c 5
9603.75 2739.75 m 4
 9603.75 2735.25 9741 2269.5 9741 2274 c 5
 9700.5 2121 9662.25 1965.75 9621.75 1812.75 c 4
 9617.25 1812.75 8838.75 1855.5 8838.75 1855.5 c 4
 8742 1851 8636.25 1842 8539.5 1842 c 5
 8553 1887 8557.5 1887 8557.5 1891.5 c 4
 8715 1891.5 8870.25 1896 9027.75 1896 c 5
 9000.75 2177.25 8976 2458.5 8949 2739.75 c 5
 8962.5 2739.75 8962.5 2739.75 9603.75 2739.75 c 4
2349.75 2775.75 m 5
 3166.5 3108.75 l 5
 3733.5 2800.5 l 5
 3733.5 2195.25 l 5
 3605.25 2028.75 3474.75 1869 3346.5 1702.5 c 5
 2678.25 1927.5 2678.25 1927.5 2678.25 1927.5 c 5
 2568 1992.75 2460 2051.25 2349.75 2116.5 c 5
 2349.75 2775.75 l 5
7401 2071.5 m 5
 7401 2071.5 l 5
8627.25 1869 m 5
 8613.75 1869 8589 1864.5 8571 1864.5 c 5
 8627.25 1869 l 5
10497 4841.25 m 5
 10704 4841.25 l 5
 10704 5887.5 l 5
 9050.25 5887.5 l 5
 9050.25 5496 l 5
 9050.25 5496 8598 5181 8593.5 5172 c 6
 8593.5 4868.25 l 5
 8087.25 4868.25 l 5
 8087.25 4767 l 5
 8100.75 4767 l 5
 7673.25 4605 l 6
 7668.75 4605 5713.5 4600.5 5713.5 4600.5 c 6
 5709 4605 5542.5 4744.5 5542.5 4744.5 c 5
 5551.5 4740 4239.75 4744.5 4239.75 4744.5 c 5
 4244.25 4744.5 4010.25 4582.5 3940.5 4542 c 5
 3940.5 4551 3936 4555.5 3927 4555.5 c 6
 2340.75 4555.5 l 6
 2331.75 4555.5 2221.5 4652.25 2221.5 4652.25 c 5
 2226 4652.25 396.75 4731 387.75 4726.5 c 6
 331.5 4656.75 l 5
 331.5 4656.75 300 4569 300 4564.5 c 5
 428.25 3988.5 l 4
 428.25 3984 428.25 2062.5 432.75 2053.5 c 6
 2372.25 1443.75 l 5
 2372.25 1473 l 5
 2451 1416.75 l 5
 2451 1416.75 3447.75 989.25 3456.75 984.75 c 5
 3729 1020.75 l 6
 3729 1038.75 l 5
 3888.75 1038.75 l 5
 3888.75 -1177.5 l 5
 4068.75 -1164 4248.75 -1148.25 4428.75 -1134.75 c 5
 4424.25 -1134.75 5470.5 -752.25 5475 -743.25 c 6
 5475 1029.75 l 5
 5787.75 1029.75 l 6
 5792.25 1029.75 6258 804.75 6258 804.75 c 6
 6267 795.75 7142.25 1.5 7142.25 1.5 c 4
 7299.75 163.5 7450.5 323.25 7608 485.25 c 5
 7608 485.25 8285.25 1477.5 8341.5 1560.75 c 4
 8503.5 1560.75 8667.75 1560.75 8829.75 1560.75 c 4
 8834.25 1560.75 9266.25 1245.75 9275.25 1245.75 c 6
 9657.75 1329 l 5
 9657.75 1333.5 9885 1707 9885 1707 c 5
 9885 1707 10040.25 2256 10040.25 2260.5 c 5
 10040.25 2260.5 10026.75 2382 10022.25 2418 c 5
 10875 2418 l 5
 10839 1477.5 l 5
 10839 -30 l 5
 10911 -255 l 6
 10911 -268.5 10911 -381 10911 -385.5 c 6
 11547.75 -385.5 l 5
 11547.75 -255 l 6
 11547.75 -250.5 11608.5 -25.5 11608.5 -25.5 c 5
 11608.5 1545 l 5
 11608.5 1545 11574.75 2312.25 11570.25 2418 c 5
 12087.75 2418 l 5
 12087.75 2721.75 l 5
 12087.75 2721.75 12110.25 2717.25 12119.25 2726.25 c 6
 12159.75 2836.5 l 5
 12159.75 2836.5 12159.75 2967 12159.75 3007.5 c 6
 12933.75 3007.5 l 5
 12933.75 2625 l 5
 14391.75 2625 l 5
 14850.75 2697 l 6
 14859.75 2697 18727.5 2697 18732 2697 c 6
 18732 3873.75 l 5
 14859.75 3873.75 l 6
 14387.25 3945.75 l 5
 12933.75 3945.75 l 5
 12933.75 3527.25 l 5
 12159.75 3527.25 l 5
 12159.75 3597 l 5
 12159.75 3597 12348.75 3597 12357.75 3601.5 c 6
 12774 4227 l 6
 12774 4227 13003.5 4490.25 13008 4494.75 c 5
 13003.5 4494.75 13008 4906.5 13008 4911 c 5
 12823.5 4911 12650.25 4904.25 12465.75 4904.25 c 5
 12465.75 4899.75 12362.25 4794 12146.25 4573.5 c 4
 12137.25 4569 10580.25 4569 10580.25 4569 c 6
 10575.75 4573.5 10434 4710.75 10382.25 4767 c 5
 10497 4767 l 5
 10497 4841.25 l 5
12465.75 4904.25 m 5
 12465.75 4904.25 l 5
13008 4494.75 m 5
 13008 4494.75 l 5
12159.75 2836.5 m 5
 12159.75 2836.5 l 5
10040.25 2260.5 m 5
 10040.25 2260.5 l 5
9657.75 1329 m 5
 9657.75 1329 l 5
3456.75 984.75 m 5
 3456.75 984.75 l 5
300 4564.5 m 5
 300 4564.5 l 5
331.5 4656.75 m 5
 331.5 4656.75 l 5
EndSplineSet
Validated: 37
EndChar

StartChar: five
Encoding: 53 53 16
Width: 16717
Flags: HW
LayerCount: 2
Fore
SplineSet
7665.84472656 414.875 m 1
 7671.09472656 414.875 7308.84472656 522.5 7303.59472656 522.5 c 1
 7303.59472656 522.5 7106.71972656 758.75 7101.46972656 764 c 1
 7046.34472656 1128.875 l 2
 6862.59472656 1601.375 l 2
 6799.59472656 1693.25 l 2
 6794.34472656 1698.5 6143.34472656 1934.75 6143.34472656 1934.75 c 2
 6138.09472656 1934.75 5460.84472656 1945.25 5460.84472656 1945.25 c 1
 5466.09472656 1945.25 4959.46972656 2189.375 4959.46972656 2189.375 c 2
 3885.84472656 2591 l 2
 3169.21972656 2724.875 l 2
 3163.96972656 2724.875 1384.21972656 2220.875 1384.21972656 2220.875 c 1
 1389.46972656 2220.875 927.469726562 2333.75 916.969726562 2333.75 c 1
 741.094726562 2622.5 l 1
 510.094726562 3186.875 l 1
 510.094726562 3186.875 294.844726562 4129.25 300.094726562 4139.75 c 2
 869.719726562 4622.75 l 1
 864.469726562 4622.75 4513.21972656 4740.875 4513.21972656 4740.875 c 1
 5841.46972656 4504.625 l 1
 5836.21972656 4504.625 6681.46972656 3990.125 6681.46972656 3990.125 c 2
 6686.71972656 3984.875 6964.96972656 3872 7503.09472656 3698.75 c 0
 7508.34472656 3698.75 8461.21972656 3719.75 8471.71972656 3714.5 c 2
 8723.71972656 3268.25 l 1
 8836.59472656 3268.25 l 1
 8765.71972656 3278.75 10041.4697266 2827.25 10051.9697266 2822 c 0
 10524.4697266 2667.125 11605.9697266 2360 13104.8447266 1934.75 c 1
 13821.4697266 1656.5 l 1
 14598.4697266 1184 l 1
 15202.2197266 703.625 l 1
 15819.0947266 65.75 l 1
 15819.0947266 65.75 16412.3447266 -753.25 16417.5947266 -758.5 c 1
 16191.8447266 -805.75 15966.0947266 -850.375 15740.3447266 -897.625 c 1
 15044.7197266 -944.875 l 1
 14068.2197266 -944.875 l 1
 13186.2197266 -832 l 1
 12130.9697266 -629.875 l 1
 9353.71972656 267.875 l 1
 9353.71972656 267.875 9030.84472656 477.875 9020.34472656 483.125 c 1
 8949.46972656 606.5 l 2
 8841.84472656 743 l 2
 8836.59472656 743 8605.59472656 816.5 8563.59472656 827 c 2
 8133.09472656 538.25 l 1
 8138.34472656 538.25 7665.84472656 414.875 7665.84472656 414.875 c 1
916.969726562 2333.75 m 1
 916.969726562 2333.75 l 1
7101.46972656 764 m 1
 7101.46972656 764 l 1
7303.59472656 522.5 m 1
 7303.59472656 522.5 l 1
9020.34472656 483.125 m 1
 9020.34472656 483.125 l 1
7686.84472656 2759 m 0
 7686.84472656 2984.75 7526.71972656 3160.625 7327.21972656 3160.625 c 0
 7127.71972656 3160.625 6964.96972656 2984.75 6964.96972656 2759 c 0
 6964.96972656 2538.5 7127.71972656 2349.5 7327.21972656 2349.5 c 0
 7526.71972656 2349.5 7686.84472656 2538.5 7686.84472656 2759 c 0
7503.09472656 2764.25 m 0
 7503.09472656 2661.875 7421.71972656 2575.25 7319.34472656 2575.25 c 0
 7211.71972656 2575.25 7132.96972656 2661.875 7132.96972656 2764.25 c 0
 7132.96972656 2871.875 7211.71972656 2950.625 7319.34472656 2950.625 c 0
 7421.71972656 2950.625 7503.09472656 2871.875 7503.09472656 2764.25 c 0
EndSplineSet
Validated: 37
EndChar

StartChar: six
Encoding: 54 54 17
Width: 12120
Flags: HW
LayerCount: 2
Fore
SplineSet
4676.25 1257.125 m 5
 4354.5 1639.625 l 5
 4464.75 1653.125 l 5
 4473.75 1882.625 4489.5 2114.375 4498.5 2343.875 c 5
 4874.25 2505.875 l 5
 4874.25 2496.875 4824.75 2348.375 4820.25 2330.375 c 6
 4977.75 1828.625 l 6
 5281.5 1446.125 l 5
 5423.25 1446.125 l 5
 5391.75 1511.375 5234.25 1810.625 5234.25 1806.125 c 5
 5234.25 2211.125 l 5
 5234.25 2211.125 5391.75 2510.375 5391.75 2514.875 c 6
 6413.25 2514.875 l 5
 6413.25 1335.875 l 6
 6399.75 1313.375 6381.75 1279.625 6368.25 1257.125 c 6
 4676.25 1257.125 l 5
7173.75 3887.375 m 5
 7304.25 3887.375 l 5
 7304.25 3626.375 l 5
 7173.75 3626.375 l 5
 7173.75 3887.375 l 5
7169.25 4386.875 m 5
 7308.75 4386.875 l 5
 7308.75 4287.875 l 5
 7169.25 4287.875 l 5
 7169.25 4386.875 l 5
7151.25 5003.375 m 5
 7155.75 5003.375 7295.25 5003.375 7304.25 5003.375 c 5
 7304.25 4870.625 l 5
 7151.25 4870.625 l 5
 7151.25 5003.375 l 5
4608.75 4956.125 m 5
 4608.75 5012.375 l 5
 6258 5012.375 l 5
 6258 4870.625 l 5
 6078 4870.625 l 5
 6078 4386.875 l 5
 6262.5 4386.875 l 5
 6262.5 4287.875 l 5
 6037.5 4287.875 l 5
 6037.5 4956.125 l 5
 4608.75 4956.125 l 5
4613.25 3174.125 m 5
 5088 3174.125 5562.75 3174.125 6037.5 3174.125 c 5
 6037.5 3887.375 l 5
 6276 3887.375 l 5
 6276 3882.875 6289.5 3201.125 6289.5 3104.375 c 5
 6289.5 3104.375 6289.5 3104.375 4860.75 3104.375 c 4
 4773 3104.375 4696.5 3113.375 4613.25 3117.875 c 5
 4613.25 3174.125 l 5
4451.25 5505.125 m 5
 4451.25 5712.125 l 5
 4221.75 5712.125 l 5
 4221.75 5338.625 l 5
 3607.5 5338.625 l 6
 3603 5311.625 3589.5 5293.625 3580.5 5271.125 c 6
 2577 5271.125 l 5
 2577 5248.625 2581.5 4933.625 2586 4924.625 c 6
 3056.25 4787.375 l 6
 3060.75 4782.875 3166.5 4616.375 3166.5 4616.375 c 6
 3166.5 4611.875 3128.25 4404.875 3128.25 4404.875 c 6
 3128.25 4400.375 2750.25 4067.375 2750.25 4067.375 c 6
 2745.75 4067.375 2653.5 4067.375 2653.5 4067.375 c 5
 2401.5 4035.875 l 5
 2406 4035.875 2120.25 3873.875 2120.25 3873.875 c 5
 2120.25 3878.375 1908.75 3219.125 1908.75 3219.125 c 6
 1148.25 2053.625 l 5
 1148.25 2053.625 1148.25 2049.125 300 -682.375 c 5
 612.75 -835.375 932.25 -986.125 1245 -1139.125 c 5
 1240.5 -1139.125 2673.75 -1107.625 2687.25 -1107.625 c 4
 2748 -655.375 2799.75 -205.375 2860.5 246.875 c 4
 2860.5 246.875 3069.75 566.375 3069.75 570.875 c 6
 2916.75 948.875 l 6
 2916.75 953.375 3004.5 1450.625 3013.5 1515.875 c 6
 4028.25 1596.875 l 5
 4521 1045.625 l 5
 4516.5 1045.625 6667.5 1045.625 6685.5 1045.625 c 5
 6930.75 1326.875 l 5
 6930.75 1322.375 6930.75 2474.375 6930.75 2575.625 c 5
 7005 2589.125 l 5
 7005 2537.375 l 5
 9552 2537.375 l 5
 9552 2537.375 9687 2202.125 9691.5 2197.625 c 6
 10431.75 2197.625 l 5
 10431.75 3403.625 l 5
 10677 3126.875 l 5
 10672.5 3131.375 11169.75 3126.875 11570.25 3126.875 c 5
 11570.25 4366.625 l 5
 11820 4366.625 l 5
 11820 4888.625 l 5
 11570.25 4888.625 l 5
 11570.25 5561.375 l 5
 10823.25 5561.375 l 5
 10823.25 5417.375 l 5
 9129 5417.375 l 5
 9129 5482.625 l 5
 4696.5 5482.625 l 6
 4696.5 5430.875 4692 5379.125 4692 5334.125 c 6
 4680.75 5334.125 l 5
 4680.75 5505.125 l 5
 4451.25 5505.125 l 5
6685.5 1045.625 m 5
 6685.5 1045.625 l 5
EndSplineSet
Validated: 37
EndChar

StartChar: seven
Encoding: 55 55 18
Width: 24792
Flags: HW
LayerCount: 2
Fore
SplineSet
10250.0625 1481.484375 m 1
 10222.5 1650.796875 10192.96875 1824.046875 10165.40625 1993.359375 c 1
 10185.09375 1993.359375 10779.65625 2009.109375 10872.1875 2009.109375 c 1
 10872.1875 1528.734375 l 2
 10864.3125 1516.921875 10596.5625 1316.109375 10596.5625 1316.109375 c 1
 10592.625 1316.109375 10330.78125 1282.640625 10330.78125 1278.703125 c 1
 10238.25 1347.609375 10137.84375 1412.578125 10045.3125 1481.484375 c 1
 10250.0625 1481.484375 l 1
20436.375 3174.609375 m 1
 20948.25 3174.609375 21464.0625 3182.484375 21975.9375 3186.421875 c 1
 22161 3113.578125 l 1
 22153.125 3082.078125 l 1
 20436.375 3082.078125 l 1
 20436.375 3174.609375 l 1
15782.25 4330.265625 m 2
 15709.40625 4330.265625 l 1
 15709.40625 4137.328125 l 1
 15709.40625 4137.328125 15677.90625 4141.265625 15681.84375 4125.515625 c 2
 15662.15625 4044.796875 l 1
 15601.125 4044.796875 l 1
 15577.5 4133.390625 l 2
 15557.8125 4129.453125 15512.53125 4145.203125 15508.59375 4121.578125 c 0
 15484.96875 4025.109375 15481.03125 4025.109375 15481.03125 3891.234375 c 1
 15481.03125 3891.234375 15225.09375 3891.234375 15213.28125 3883.359375 c 2
 15089.25 3694.359375 l 1
 15089.25 3910.921875 l 1
 14658.09375 3910.921875 l 1
 14658.09375 3991.640625 l 1
 14650.21875 3991.640625 13831.21875 3979.828125 13827.28125 3979.828125 c 1
 13827.28125 3891.234375 l 1
 13638.28125 3859.734375 13461.09375 3832.171875 13130.34375 3832.171875 c 1
 13130.34375 3751.453125 l 1
 11165.53125 3747.515625 l 1
 11907.75 3826.265625 l 1
 11935.3125 4032.984375 l 1
 11612.4375 4032.984375 11291.53125 4032.984375 10968.65625 4032.984375 c 1
 10968.65625 4032.984375 10960.78125 4283.015625 10952.90625 4294.828125 c 2
 10795.40625 4383.421875 l 1
 10795.40625 4383.421875 10618.21875 4383.421875 10610.34375 4383.421875 c 1
 10610.34375 4383.421875 10443 4286.953125 10435.125 4275.140625 c 2
 10419.375 3747.515625 l 1
 10419.375 3747.515625 9876 3745.546875 9864.1875 3741.609375 c 2
 9803.15625 3666.796875 l 1
 9807.09375 3666.796875 9803.15625 3310.453125 9803.15625 3229.734375 c 2
 9525.5625 3225.796875 l 1
 9533.4375 3229.734375 9029.4375 2879.296875 9029.4375 2879.296875 c 1
 9029.4375 2879.296875 8332.5 2267.015625 8255.71875 2198.109375 c 2
 7178.8125 2459.953125 l 1
 7509.5625 3521.109375 l 1
 7509.5625 3822.328125 l 1
 2601.46875 3822.328125 l 1
 2601.46875 3586.078125 l 1
 1835.625 3586.078125 1065.84375 3586.078125 300 3586.078125 c 1
 300 -10.828125 l 1
 2158.5 -10.828125 l 1
 2158.5 -71.859375 l 1
 4247.34375 -71.859375 l 1
 4247.34375 1129.078125 l 1
 6348 1154.671875 l 1
 6747.65625 50.203125 l 1
 6747.65625 50.203125 6932.71875 -249.046875 6944.53125 -256.921875 c 0
 8340.375 -296.296875 8338.40625 -298.265625 8742 -294.328125 c 1
 8944.78125 -252.984375 l 2
 8944.78125 -63.984375 l 1
 8745.9375 -26.578125 l 1
 9114.09375 1274.765625 l 2
 9121.96875 1282.640625 9734.25 1550.390625 9818.90625 1585.828125 c 1
 9822.84375 1467.703125 l 1
 9826.78125 1471.640625 10061.0625 1251.140625 10065 1247.203125 c 1
 10065 1247.203125 10330.78125 1174.359375 10334.71875 1174.359375 c 1
 10592.625 1209.796875 l 1
 10592.625 1209.796875 11088.75 1343.671875 11100.5625 1347.609375 c 1
 11100.5625 1347.609375 11250.1875 1528.734375 11254.125 1536.609375 c 1
 11254.125 1536.609375 11254.125 1896.890625 11254.125 1981.546875 c 2
 12065.25 2001.234375 l 1
 12065.25 2001.234375 11984.53125 1475.578125 11992.40625 1459.828125 c 2
 12061.3125 1424.390625 l 1
 12207 2009.109375 l 1
 12254.25 2013.046875 l 1
 12638.15625 -48.234375 l 1
 15085.3125 451.828125 l 1
 14786.0625 2085.890625 l 1
 14786.0625 2085.890625 15097.125 2139.046875 15108.9375 2150.859375 c 2
 15140.4375 2270.953125 l 1
 16302 2078.015625 l 1
 19516.96875 2081.953125 l 1
 19509.09375 2078.015625 19932.375 2324.109375 19932.375 2324.109375 c 2
 19952.0625 2324.109375 20418.65625 2324.109375 20422.59375 2324.109375 c 2
 20460 2552.484375 l 1
 22879.59375 2552.484375 l 1
 22879.59375 3074.203125 l 1
 24492 3074.203125 l 1
 24492 3670.734375 l 1
 22603.96875 3670.734375 l 1
 22603.96875 4407.046875 l 1
 22214.15625 4407.046875 l 1
 22214.15625 3666.796875 l 1
 21983.8125 3605.765625 l 2
 21979.875 3605.765625 20629.3125 3605.765625 20463.9375 3605.765625 c 0
 20463.9375 3666.796875 20460 3721.921875 20460 3779.015625 c 1
 20460 3779.015625 20414.71875 3916.828125 20410.78125 3928.640625 c 1
 20406.84375 3920.765625 20068.21875 4009.359375 20068.21875 4009.359375 c 1
 20072.15625 4009.359375 17528.53125 4005.421875 17483.25 4005.421875 c 1
 17483.25 4001.484375 17359.21875 3891.234375 17359.21875 3891.234375 c 2
 17351.34375 3887.296875 17245.03125 3891.234375 17205.65625 3891.234375 c 2
 17205.65625 4048.734375 l 1
 17063.90625 4048.734375 l 1
 17063.90625 4048.734375 17063.90625 4255.453125 17052.09375 4271.203125 c 2
 16725.28125 4387.359375 l 1
 16725.28125 5105.953125 l 1
 16132.6875 5105.953125 l 1
 16132.6875 4993.734375 16136.625 4875.609375 16136.625 4763.390625 c 0
 16132.6875 4755.515625 15827.53125 4383.421875 15782.25 4330.265625 c 2
10596.5625 1316.109375 m 1
 10596.5625 1316.109375 l 1
10330.78125 1274.765625 m 1
 10330.78125 1274.765625 l 1
17479.3125 4005.421875 m 1
 17479.3125 4005.421875 l 1
20410.78125 3928.640625 m 1
 20410.78125 3928.640625 l 1
20460 3779.015625 m 1
 20460 3779.015625 l 1
11254.125 1536.609375 m 1
 11254.125 1536.609375 l 1
11100.5625 1347.609375 m 1
 11100.5625 1347.609375 l 1
10334.71875 1174.359375 m 1
 10334.71875 1174.359375 l 1
10065 1247.203125 m 1
 10065 1247.203125 l 1
9822.84375 1467.703125 m 1
 9822.84375 1467.703125 l 1
9830.71875 1589.765625 m 1
 9830.71875 1589.765625 l 1
9803.15625 3666.796875 m 1
 9803.15625 3666.796875 l 1
10610.34375 4383.421875 m 1
 10610.34375 4383.421875 l 1
10795.40625 4383.421875 m 1
 10795.40625 4383.421875 l 1
15481.03125 4025.109375 m 1
 15481.03125 4025.109375 l 1
EndSplineSet
Validated: 37
EndChar

StartChar: eight
Encoding: 56 56 19
Width: 29234
Flags: HW
LayerCount: 2
Fore
SplineSet
10496.1953125 1377.171875 m 1
 10467.3935547 1549.98828125 10432.4179688 1718.69140625 10403.6152344 1891.5078125 c 1
 10411.8447266 1891.5078125 11158.6611328 1912.08105469 11162.7753906 1912.08105469 c 1
 11162.7753906 1426.54785156 l 2
 11154.5458984 1410.08984375 10870.6328125 1208.46972656 10870.6328125 1208.46972656 c 0
 10862.4033203 1208.46972656 10584.6621094 1173.49511719 10584.6621094 1169.37988281 c 1
 10487.9667969 1237.27246094 10383.0419922 1305.1640625 10286.3466797 1377.171875 c 1
 10496.1953125 1377.171875 l 1
10870.6328125 1208.46972656 m 1
 10870.6328125 1208.46972656 l 1
10584.6621094 1169.37988281 m 1
 10584.6621094 1169.37988281 l 1
21328.1103516 3488.00683594 m 0
 21328.1103516 3547.66894531 21328.1103516 3605.27539062 21328.1103516 3664.93847656 c 1
 21328.1103516 3664.93847656 21274.6201172 3829.52636719 21258.1621094 3845.984375 c 2
 21214.9570312 3850.09960938 l 1
 21214.9570312 4228.65039062 l 1
 20793.2011719 4228.65039062 l 1
 20793.2011719 3926.22070312 l 1
 18155.6865234 3922.10644531 l 1
 18155.6865234 3917.99121094 18017.8457031 3794.55078125 18017.8457031 3794.55078125 c 2
 18005.5 3790.43652344 17873.8310547 3790.43652344 17873.8310547 3794.55078125 c 2
 17869.7158203 3971.48242188 l 25
 17596.0898438 3971.48242188 l 26
 17591.9746094 4498.16308594 l 26
 18295.5869141 4498.16308594 l 26
 18295.5869141 4498.16308594 18388.1669922 4329.45996094 18484.8623047 4329.45996094 c 27
 19787.1611328 4329.45996094 20527.8046875 4321.23144531 21830.1025391 4321.23144531 c 25
 21825.9882812 5210.00292969 l 25
 20519.5751953 5210.00292969 19787.1611328 5205.88867188 18484.8623047 5205.88867188 c 27
 18388.1669922 5205.88867188 18295.5869141 5033.07226562 18295.5869141 5033.07226562 c 26
 17299.8320312 5033.07226562 l 26
 17299.8320312 5205.88867188 l 26
 16773.1523438 5205.88867188 l 26
 16773.1523438 5033.07226562 l 26
 15472.9101562 5028.95703125 l 26
 15472.9101562 5028.95703125 15400.9033203 5205.88867188 15308.3232422 5205.88867188 c 27
 14818.6757812 5205.88867188 14559.4492188 5205.88867188 14069.8027344 5205.88867188 c 25
 14069.8027344 4321.23144531 l 25
 14549.1630859 4321.23144531 14822.7900391 4321.23144531 15308.3232422 4321.23144531 c 27
 15400.9033203 4321.23144531 15472.9101562 4502.27734375 15472.9101562 4502.27734375 c 26
 16530.3857422 4498.16308594 l 26
 16534.5 4148.4140625 l 26
 16361.6835938 4148.4140625 l 26
 16361.6835938 3971.48242188 l 26
 16353.4541016 3967.3671875 l 2
 16328.765625 3959.13769531 16351.3964844 4047.60449219 16314.3642578 4047.60449219 c 0
 16234.1279297 4047.60449219 16234.1279297 4047.60449219 16234.1279297 4047.60449219 c 1
 16234.1279297 3971.48242188 l 1
 16164.1777344 3971.48242188 l 2
 16151.8339844 3992.05664062 16158.0068359 4043.49023438 16125.0888672 4043.49023438 c 0
 16040.7373047 4043.49023438 16040.7373047 4016.74414062 16040.7373047 3798.66601562 c 1
 16040.7373047 3798.66601562 15767.1113281 3798.66601562 15750.6523438 3790.43652344 c 2
 15614.8671875 3592.93164062 l 1
 15614.8671875 3833.640625 l 1
 15172.5380859 3833.640625 l 1
 15172.5380859 3909.76269531 l 1
 15164.3085938 3909.76269531 14275.5371094 3887.13085938 14271.421875 3887.13085938 c 1
 14271.421875 3798.66601562 l 1
 13946.3623047 3747.23242188 13952.5332031 3749.2890625 13551.3515625 3749.2890625 c 1
 13551.3515625 3660.82324219 l 1
 12265.5117188 3732.83007812 l 1
 12290.2001953 3938.56445312 l 1
 11271.8154297 3938.56445312 l 1
 11271.8154297 3938.56445312 11271.8154297 4187.50390625 11263.5849609 4203.96191406 c 2
 11082.5390625 4300.65820312 l 1
 11082.5390625 4300.65820312 10887.0908203 4296.54296875 10878.8623047 4296.54296875 c 1
 10878.8623047 4292.42871094 10706.0458984 4203.96191406 10697.8154297 4187.50390625 c 0
 10664.8984375 3874.78710938 10664.8984375 3870.67285156 10664.8984375 3656.70898438 c 1
 10090.8994141 3652.59472656 l 1
 10090.8994141 3648.47949219 10029.1787109 3580.58789062 10025.0644531 3576.47265625 c 1
 10029.1787109 3576.47265625 10025.0644531 3226.72363281 10025.0644531 3138.25878906 c 2
 9732.921875 3134.14355469 l 1
 9745.265625 3134.14355469 9185.66796875 2776.16503906 9185.66796875 2776.16503906 c 1
 9185.66796875 2776.16503906 8469.71191406 2177.47851562 8381.24707031 2105.47167969 c 2
 7360.8046875 2362.63964844 l 1
 7710.55273438 3420.11425781 l 1
 7710.55273438 3732.83007812 l 1
 2672.11816406 3732.83007812 l 1
 2672.11816406 3508.58007812 l 1
 1880.04101562 3508.58007812 1092.078125 3504.46484375 300 3504.46484375 c 1
 300 -130.861328125 l 1
 2213.33007812 -130.861328125 l 1
 2213.33007812 -130.861328125 2192.75683594 -202.868164062 2233.90332031 -190.524414062 c 2
 4352.96777344 -190.524414062 l 1
 4352.96777344 1027.42285156 l 1
 6480.26074219 1039.76757812 l 1
 6897.90234375 -65.0263671875 l 1
 6897.90234375 -60.9111328125 7095.40722656 -367.455078125 7111.86523438 -375.684570312 c 0
 8788.60058594 -423.00390625 8784.48632812 -427.118164062 9121.890625 -367.455078125 c 1
 9121.890625 -161.720703125 l 1
 8916.15625 -141.147460938 l 1
 9294.70800781 1169.37988281 l 2
 9307.05175781 1181.72363281 9932.484375 1432.72070312 10041.5234375 1473.8671875 c 1
 10045.6386719 1354.54101562 l 1
 10049.7529297 1358.65625 10298.6914062 1136.46289062 10306.9208984 1132.34863281 c 1
 10306.9208984 1132.34863281 10580.5478516 1056.2265625 10588.7763672 1056.2265625 c 1
 10858.2890625 1103.54589844 l 1
 10858.2890625 1103.54589844 11389.0830078 1237.27246094 11405.5419922 1241.38671875 c 1
 11405.5419922 1241.38671875 11557.7861328 1422.43359375 11566.0146484 1430.66308594 c 1
 11561.9003906 1430.66308594 11566.0146484 1784.52636719 11566.0146484 1872.9921875 c 2
 12413.640625 1891.5078125 l 1
 12325.1748047 1350.42675781 l 1
 12430.0986328 1309.28027344 l 1
 12574.1132812 1899.73730469 l 1
 12619.375 1907.96679688 l 1
 13024.671875 -165.8359375 l 1
 15623.0966797 340.271484375 l 1
 15304.2089844 1979.97363281 l 1
 15304.2089844 1979.97363281 15633.3837891 2033.46484375 15649.8417969 2045.80859375 c 2
 15682.7597656 2169.24902344 l 1
 16896.5927734 1975.859375 l 1
 16896.5927734 1975.859375 20280.9238281 1975.859375 20309.7255859 1975.859375 c 1
 20743.8261719 2218.625 l 1
 21262.2763672 2218.625 l 1
 21303.4228516 2451.10546875 l 1
 21842.4462891 2451.10546875 l 1
 21842.4462891 3014.81835938 l 1
 22895.8076172 3014.81835938 27401.3896484 3014.81835938 28454.75 3014.81835938 c 0
 28462.9794922 3014.81835938 28660.484375 2934.58105469 28664.5996094 2934.58105469 c 1
 28921.7675781 2934.58105469 28934.1113281 2938.6953125 28934.1113281 2938.6953125 c 10
 28929.9960938 3555.8984375 l 1
 28837.4150391 3555.8984375 28744.8349609 3555.8984375 28652.2539062 3555.8984375 c 1
 28458.8652344 3488.00683594 l 26
 28294.2773438 3488.00683594 l 26
 28094.7148438 3617.61914062 l 26
 28020.6503906 3617.61914062 l 26
 28020.6503906 3488.00683594 l 18
 28020.6503906 3488.00683594 21630.5410156 3488.00683594 21328.1103516 3488.00683594 c 0
21328.1103516 3664.93847656 m 1
 21328.1103516 3664.93847656 l 1
28648.1396484 3555.8984375 m 1
 28648.1396484 3555.8984375 l 1
28664.5996094 2938.6953125 m 1
 28664.5996094 2938.6953125 l 1
20309.7255859 1975.859375 m 1
 20309.7255859 1975.859375 l 1
11566.0146484 1430.66308594 m 1
 11566.0146484 1430.66308594 l 1
11405.5419922 1241.38671875 m 1
 11405.5419922 1241.38671875 l 1
10588.7763672 1056.2265625 m 1
 10588.7763672 1056.2265625 l 1
10306.9208984 1132.34863281 m 1
 10306.9208984 1132.34863281 l 1
10045.6386719 1354.54101562 m 1
 10045.6386719 1354.54101562 l 1
10057.9824219 1482.09667969 m 1
 10057.9824219 1482.09667969 l 1
7710.55273438 3420.11425781 m 1
 7710.55273438 3420.11425781 l 1
10025.0644531 3576.47265625 m 1
 10025.0644531 3576.47265625 l 1
10086.7851562 3652.59472656 m 1
 10086.7851562 3652.59472656 l 1
10874.7470703 4296.54296875 m 1
 10874.7470703 4296.54296875 l 1
11082.5390625 4300.65820312 m 1
 11082.5390625 4300.65820312 l 1
16040.7373047 3967.3671875 m 1
 16040.7373047 3967.3671875 l 1
18151.5722656 3922.10644531 m 1
 18151.5722656 3922.10644531 l 1
EndSplineSet
EndChar

StartChar: nine
Encoding: 57 57 20
Width: 28776
Flags: HW
LayerCount: 2
Fore
SplineSet
9034.90820312 1525.06835938 m 1
 9010.21289062 1673.23730469 8983.75390625 1817.87695312 8955.53125 1966.046875 c 1
 8966.11523438 1966.046875 9597.59667969 1983.68554688 9604.65234375 1983.68554688 c 1
 9604.65234375 1567.40136719 l 2
 9597.59667969 1553.29003906 9352.41210938 1380.42675781 9352.41210938 1380.42675781 c 0
 9345.35546875 1380.42675781 9110.75585938 1352.20507812 9110.75585938 1348.67578125 c 1
 9024.32421875 1406.88574219 8936.12792969 1463.33105469 8853.22363281 1525.06835938 c 1
 9034.90820312 1525.06835938 l 1
9352.41210938 1380.42675781 m 1
 9352.41210938 1380.42675781 l 1
9110.75585938 1348.67578125 m 1
 9110.75585938 1348.67578125 l 1
18214.3232422 3641.76464844 m 1
 18214.3232422 4065.10546875 l 1
 17852.71875 4065.10546875 l 1
 17852.71875 3710.55859375 l 1
 15594.9072266 3707.03125 l 1
 15594.9072266 3703.50292969 15474.9609375 3597.66796875 15474.9609375 3597.66796875 c 2
 15467.9052734 3594.14160156 15388.5292969 3597.66796875 15353.25 3597.66796875 c 2
 15353.25 3749.36523438 l 1
 14047.9550781 3749.36523438 l 2
 14037.3691406 3767.00292969 14051.4824219 3814.62988281 14019.7304688 3814.62988281 c 0
 13950.9375 3814.62988281 13950.9375 3814.62988281 13950.9375 3814.62988281 c 1
 13950.9375 3745.83691406 l 1
 13889.2011719 3745.83691406 l 2
 13878.6181641 3763.47558594 13885.6748047 3807.57519531 13857.4521484 3807.57519531 c 0
 13785.1308594 3807.57519531 13781.6025391 3788.17089844 13781.6025391 3601.19726562 c 1
 13781.6025391 3601.19726562 13550.5302734 3597.66796875 13536.4179688 3590.61230469 c 2
 13536.4179688 3590.61230469 13423.5292969 3421.27636719 13420 3421.27636719 c 1
 13420 3627.65527344 l 1
 13037.2304688 3627.65527344 l 1
 13037.2304688 3696.44726562 l 1
 13030.1748047 3696.44726562 12271.6914062 3673.51757812 12268.1630859 3673.51757812 c 1
 12268.1630859 3597.66796875 l 1
 11992.9921875 3553.5703125 11994.7578125 3555.33398438 11647.265625 3555.33398438 c 1
 11647.265625 3483.01367188 l 1
 10551.8740234 3541.22363281 l 1
 10569.5126953 3717.61523438 l 1
 9696.375 3717.61523438 l 1
 9696.375 3717.61523438 9696.375 3927.52050781 9689.31933594 3945.16113281 c 2
 9537.62304688 4028.06347656 l 1
 9537.62304688 4028.06347656 9370.05078125 4028.06347656 9359.46777344 4028.06347656 c 1
 9359.46777344 4024.53613281 9214.82617188 3945.16113281 9207.77148438 3931.04882812 c 0
 9179.546875 3662.93359375 9179.546875 3662.93359375 9179.546875 3479.48535156 c 1
 8687.41503906 3472.43066406 l 1
 8687.41503906 3468.90332031 8632.73535156 3414.22070312 8629.20605469 3410.69433594 c 1
 8632.73535156 3410.69433594 8629.20605469 3110.828125 8629.20605469 3034.97949219 c 2
 8380.49609375 3031.45214844 l 1
 8391.07910156 3034.97949219 7911.29394531 2721.00292969 7911.29394531 2721.00292969 c 1
 7911.29394531 2721.00292969 7297.45019531 2211.23242188 7221.6015625 2149.49414062 c 2
 6350.22753906 2369.98339844 l 1
 6650.09375 3276.63671875 l 1
 6650.09375 3541.22363281 l 1
 2333.79394531 3541.22363281 l 1
 2333.79394531 3348.95703125 l 1
 1654.68652344 3348.95703125 979.107421875 3345.42871094 300 3345.42871094 c 1
 300 232.119140625 l 1
 1936.91308594 232.119140625 l 1
 1936.91308594 232.119140625 1922.80175781 170.381835938 1958.08105469 180.96484375 c 2
 3771.3828125 180.96484375 l 1
 3771.3828125 1225.20214844 l 1
 5595.2734375 1235.78515625 l 1
 5953.34765625 288.5625 l 1
 5953.34765625 292.090820312 6119.15625 29.26953125 6133.26660156 22.212890625 c 0
 7570.85742188 -18.3583984375 7570.85742188 -21.884765625 7856.61132812 29.26953125 c 1
 7856.61132812 209.186523438 l 1
 7680.21972656 225.063476562 l 1
 8004.78027344 1348.67578125 l 2
 8015.36425781 1359.25976562 8551.59375 1572.69335938 8645.08300781 1607.97363281 c 1
 8648.61035156 1507.42871094 l 1
 8652.13769531 1510.95703125 8869.09863281 1318.68945312 8872.62695312 1315.16113281 c 1
 8872.62695312 1315.16113281 9107.22753906 1249.89746094 9114.28320312 1249.89746094 c 1
 9345.35546875 1290.46875 l 1
 9345.35546875 1290.46875 9796.91796875 1405.12207031 9811.02929688 1408.64941406 c 1
 9811.02929688 1412.17773438 9948.6171875 1565.63867188 9952.14355469 1572.69335938 c 1
 9948.6171875 1572.69335938 9952.14355469 1876.0859375 9952.14355469 1951.93554688 c 2
 10675.3486328 1966.046875 l 1
 10599.4990234 1503.90136719 l 1
 10692.9873047 1466.859375 l 1
 10807.6416016 1973.10253906 l 1
 10851.7402344 1976.62988281 l 1
 11195.703125 205.66015625 l 1
 13427.0566406 636.055664062 l 1
 13150.1201172 2041.89550781 l 1
 13150.1201172 2041.89550781 13430.5839844 2085.99414062 13444.6953125 2100.10449219 c 2
 13474.6806641 2204.17578125 l 1
 14518.9199219 2038.36621094 l 1
 14515.3916016 2038.36621094 17413.5048828 2038.36621094 17438.1992188 2038.36621094 c 1
 17808.6201172 2242.98144531 l 1
 18253.1269531 2242.98144531 l 1
 18293.6982422 2445.83203125 l 1
 18752.3154297 2445.83203125 l 1
 18752.3154297 2927.37988281 l 1
 19655.4414062 2927.37988281 20558.5644531 2930.90917969 21461.6884766 2930.90917969 c 0
 21465.2158203 2930.90917969 21638.0800781 2865.64355469 21641.6083984 2865.64355469 c 1
 21641.6083984 2865.64355469 21814.4716797 2865.64355469 21872.6816406 2865.64355469 c 2
 21872.6816406 2525.20800781 l 1
 28476.7792969 2525.20800781 l 1
 28476.7792969 3752.89355469 l 1
 21869.1533203 3752.89355469 l 1
 21869.1533203 3393.05371094 l 1
 21789.7763672 3393.05371094 21706.8730469 3393.05371094 21627.4970703 3393.05371094 c 1
 21451.1064453 3331.31640625 l 2
 21447.5771484 3331.31640625 18570.6318359 3331.31640625 18311.3369141 3331.31640625 c 0
 18311.3369141 3382.47070312 18311.3369141 3431.86035156 18311.3369141 3483.01367188 c 1
 18311.3369141 3483.01367188 18267.2402344 3624.12695312 18253.1269531 3638.23828125 c 2
 18214.3232422 3641.76464844 l 1
18311.3369141 3483.01367188 m 1
 18311.3369141 3483.01367188 l 1
21627.4970703 3393.05371094 m 1
 21627.4970703 3393.05371094 l 1
21641.6083984 2865.64355469 m 1
 21641.6083984 2865.64355469 l 1
17438.1992188 2038.36621094 m 1
 17438.1992188 2038.36621094 l 1
9952.14355469 1572.69335938 m 1
 9952.14355469 1572.69335938 l 1
9814.55761719 1408.64941406 m 1
 9814.55761719 1408.64941406 l 1
9114.28320312 1249.89746094 m 1
 9114.28320312 1249.89746094 l 1
8872.62695312 1315.16113281 m 1
 8872.62695312 1315.16113281 l 1
8648.61035156 1507.42871094 m 1
 8648.61035156 1507.42871094 l 1
8659.19238281 1611.5 m 1
 8659.19238281 1611.5 l 1
6650.09375 3276.63671875 m 1
 6650.09375 3276.63671875 l 1
8625.67871094 3410.69433594 m 1
 8625.67871094 3410.69433594 l 1
8683.88769531 3472.43066406 m 1
 8683.88769531 3472.43066406 l 1
9359.46777344 4028.06347656 m 1
 9359.46777344 4028.06347656 l 1
9532.33105469 4028.06347656 m 1
 9532.33105469 4028.06347656 l 1
13781.6025391 3745.83691406 m 1
 13781.6025391 3745.83691406 l 1
15591.3789062 3707.03125 m 1
 15591.3789062 3707.03125 l 1
EndSplineSet
EndChar

StartChar: colon
Encoding: 58 58 21
Width: 8655
Flags: HW
LayerCount: 2
Fore
SplineSet
4359.23046875 2004.25 m 5
 3819.23046875 2175.25 l 6
 3814.73046875 2179.75 3690.98046875 2913.25 3690.98046875 2913.25 c 6
 3690.98046875 2917.75 4075.73046875 3232.75 4116.23046875 3264.25 c 5
 4116.23046875 3255.25 4037.48046875 2931.25 4037.48046875 2917.75 c 6
 4037.48046875 2917.75 4037.48046875 2627.5 4037.48046875 2623 c 6
 4037.48046875 2623 4318.73046875 2323.75 4323.23046875 2323.75 c 6
 4442.48046875 2328.25 l 5
 4424.48046875 2380 4336.73046875 2609.5 4336.73046875 2609.5 c 5
 4336.73046875 2922.25 l 5
 4368.23046875 3050.5 4401.98046875 3181 4428.98046875 3313.75 c 5
 5054.48046875 3313.75 l 6
 5058.98046875 3309.25 5261.48046875 2962.75 5261.48046875 2962.75 c 5
 5261.48046875 2645.5 5261.48046875 2321.5 5261.48046875 2004.25 c 5
 4359.23046875 2004.25 l 5
450.98046875 4162 m 5
 450.98046875 3304.75 l 5
 482.48046875 3304.75 520.73046875 3309.25 556.73046875 3309.25 c 4
 1128.23046875 2944.75 l 6
 1128.23046875 2940.25 1281.23046875 2479 1281.23046875 2479 c 6
 1281.23046875 2474.5 612.98046875 1079.5 612.98046875 1079.5 c 5
 358.73046875 244.75 l 5
 358.73046875 244.75 295.73046875 -556.25 300.23046875 -560.75 c 6
 977.48046875 -824 l 5
 977.48046875 -824 977.48046875 -828.5 3110.48046875 -1114.25 c 4
 3114.98046875 -1073.75 3123.98046875 -1031 3128.48046875 -995 c 5
 3128.48046875 -999.5 2838.23046875 -574.25 2838.23046875 -574.25 c 6
 2838.23046875 -569.75 2838.23046875 217.75 2838.23046875 217.75 c 6
 2838.23046875 217.75 3324.23046875 1734.25 3351.23046875 1826.5 c 5
 4350.23046875 1885 l 6
 4350.23046875 1885 5043.23046875 1885 5180.48046875 1885 c 5
 5180.48046875 1885 5088.23046875 1831 5088.23046875 1826.5 c 6
 5088.23046875 1516 l 5
 7405.73046875 1032.25 l 5
 7479.98046875 1239.25 7551.98046875 1448.5 7626.23046875 1655.5 c 4
 7630.73046875 1660 8175.23046875 1844.5 8179.73046875 1849 c 6
 8179.73046875 1849 8355.23046875 2958.25 8355.23046875 2962.75 c 6
 8026.73046875 3124.75 l 5
 8114.48046875 3664.75 l 5
 8114.48046875 5568.25 l 5
 7599.23046875 5568.25 7081.73046875 5563.75 6566.48046875 5563.75 c 5
 6399.98046875 5437.75 l 6
 6399.98046875 5437.75 5344.73046875 5323 5326.73046875 5323 c 5
 5308.73046875 5305 l 4
 5304.23046875 5305 1611.98046875 5305 1611.98046875 5305 c 6
 1611.98046875 5305 1157.48046875 5512 1152.98046875 5512 c 5
 1152.98046875 5512 1004.48046875 5507.5 999.98046875 5503 c 6
 930.23046875 5300.5 l 6
 450.98046875 4162 l 5
1152.98046875 5512 m 5
 1152.98046875 5512 l 5
5326.73046875 5323 m 5
 5326.73046875 5323 l 5
EndSplineSet
Validated: 37
EndChar

StartChar: semicolon
Encoding: 59 59 22
Width: 19416
Flags: HW
LayerCount: 2
Fore
SplineSet
9965.4453125 4007.65625 m 0
 9965.4453125 4007.65625 10015.3203125 4165.15625 10052.0703125 4283.28125 c 1
 10466.8203125 4283.28125 l 1
 10647.9453125 4068.03125 l 1
 10653.1953125 3902.65625 10647.9453125 3724.15625 10647.9453125 3550.90625 c 1
 10514.0703125 3448.53125 l 1
 10267.3203125 3443.28125 10007.4453125 3443.28125 9755.4453125 3443.28125 c 1
 9555.9453125 3663.78125 l 1
 9550.6953125 3787.15625 9550.6953125 3934.15625 9550.6953125 4062.78125 c 1
 9587.4453125 4138.90625 9639.9453125 4207.15625 9676.6953125 4283.28125 c 1
 9800.0703125 4283.28125 l 1
 9763.3203125 4031.28125 9765.9453125 4023.40625 9765.9453125 3781.90625 c 1
 9970.6953125 3535.15625 l 1
 10057.3203125 3566.65625 l 1
 9965.4453125 3781.90625 l 1
 9965.4453125 3858.03125 9965.4453125 3931.53125 9965.4453125 4007.65625 c 0
6739.3203125 1739.65625 m 1
 2163.9453125 1739.65625 l 1
 961.6953125 2094.03125 l 1
 848.8203125 3083.65625 l 1
 885.5703125 3411.78125 924.9453125 3739.90625 961.6953125 4068.03125 c 1
 2153.4453125 4417.15625 l 1
 3675.9453125 4417.15625 5201.0703125 4422.40625 6723.5703125 4422.40625 c 1
 6723.5703125 4283.28125 l 1
 7009.6953125 4283.28125 l 1
 7112.0703125 4136.28125 l 1
 8201.4453125 4078.53125 l 1
 8248.6953125 4041.78125 8290.6953125 3986.65625 8337.9453125 3944.65625 c 0
 8343.1953125 3939.40625 8293.3203125 3653.28125 8293.3203125 3653.28125 c 1
 8015.0703125 2663.65625 l 2
 8015.0703125 2647.90625 7980.9453125 2658.40625 7980.9453125 2658.40625 c 1
 7836.5703125 2448.40625 l 1
 7836.5703125 1960.15625 l 1
 7734.1953125 1884.03125 l 1
 7406.0703125 1878.78125 7072.6953125 1884.03125 6739.3203125 1884.03125 c 1
 6739.3203125 1739.65625 l 1
12653.4453125 4653.40625 m 2
 12797.8203125 4653.40625 l 1
 12797.8203125 4606.15625 l 1
 12637.6953125 4606.15625 l 1
 12637.6953125 4658.65625 12642.9453125 4658.65625 12653.4453125 4653.40625 c 2
12642.9453125 5089.15625 m 1
 12642.9453125 5191.53125 l 1
 12792.5703125 5191.53125 l 1
 12792.5703125 5089.15625 l 1
 12642.9453125 5089.15625 l 1
13089.1953125 5094.40625 m 1
 13094.4453125 5196.78125 l 1
 13362.1953125 5196.78125 l 1
 13362.1953125 5094.40625 l 1
 13089.1953125 5094.40625 l 1
10745.0703125 5637.78125 m 1
 10745.0703125 5858.28125 l 1
 9498.1953125 5858.28125 l 1
 9498.1953125 5556.40625 l 1
 9369.5703125 5556.40625 l 1
 9369.5703125 5427.78125 l 1
 9251.4453125 5427.78125 l 1
 9251.4453125 5556.40625 l 1
 9104.4453125 5556.40625 l 1
 9104.4453125 5427.78125 l 1
 8970.5703125 5427.78125 l 1
 8970.5703125 5556.40625 l 1
 8831.4453125 5556.40625 l 1
 8831.4453125 5433.03125 l 1
 8697.5703125 5433.03125 l 1
 8697.5703125 5556.40625 l 1
 8558.4453125 5556.40625 l 1
 8558.4453125 5427.78125 l 1
 8450.8203125 5427.78125 l 1
 8450.8203125 5556.40625 l 1
 8303.8203125 5556.40625 l 1
 8303.8203125 5427.78125 l 1
 8067.5703125 5427.78125 l 1
 7959.9453125 5664.03125 l 1
 7143.5703125 5664.03125 l 1
 7096.3203125 5577.40625 7035.9453125 5503.90625 6988.6953125 5417.28125 c 1
 6988.6953125 4921.15625 l 1
 6697.3203125 4921.15625 l 1
 6697.3203125 4826.65625 l 1
 460.3203125 4826.65625 l 1
 300.1953125 4406.65625 l 1
 397.3203125 3062.65625 l 2
 397.3203125 3010.15625 294.9453125 1765.90625 300.1953125 1755.40625 c 0
 460.3203125 1335.40625 465.5703125 1330.15625 465.5703125 1330.15625 c 1
 6718.3203125 1330.15625 l 1
 6718.3203125 1261.90625 l 1
 8332.6953125 1261.90625 l 1
 8332.6953125 -1168.84375 l 1
 8547.9453125 -1168.84375 8771.0703125 -1174.09375 8986.3203125 -1163.59375 c 1
 9272.4453125 -882.71875 l 1
 9272.4453125 1863.03125 l 1
 9385.3203125 1863.03125 l 1
 9385.3203125 2141.28125 9385.3203125 2424.78125 9385.3203125 2703.03125 c 0
 9385.3203125 2703.03125 9513.9453125 3335.65625 9534.9453125 3432.78125 c 1
 9771.1953125 3369.78125 l 0
 10033.6953125 3369.78125 10309.3203125 3364.53125 10566.5703125 3369.78125 c 1
 10729.3203125 3487.90625 l 1
 10729.3203125 3606.03125 10724.0703125 3734.65625 10734.5703125 3847.53125 c 1
 11674.3203125 3847.53125 l 1
 11679.5703125 3821.28125 11669.0703125 3776.65625 11679.5703125 3755.65625 c 2
 11766.1953125 3684.78125 l 1
 11771.4453125 3309.40625 l 1
 11648.0703125 2852.65625 l 2
 11648.0703125 1744.90625 l 1
 12540.5703125 1744.90625 l 1
 12540.5703125 2390.65625 12540.5703125 2878.90625 12540.5703125 2878.90625 c 2
 12422.4453125 3325.15625 l 1
 12422.4453125 3684.78125 l 1
 12524.8203125 3760.90625 l 1
 12524.8203125 3842.28125 l 1
 12852.9453125 3842.28125 l 1
 12960.5703125 3713.65625 l 1
 12960.5703125 3304.15625 l 1
 13283.4453125 3304.15625 l 1
 13283.4453125 3561.40625 13283.4453125 3821.28125 13283.4453125 4073.28125 c 1
 13165.3203125 4283.28125 l 1
 13165.3203125 4627.15625 l 1
 13341.1953125 4627.15625 l 1
 13341.1953125 4535.28125 13341.1953125 4432.90625 13346.4453125 4341.03125 c 1
 13438.3203125 4249.15625 l 1
 13997.4453125 4249.15625 14567.0703125 4249.15625 15126.1953125 4249.15625 c 1
 15278.4453125 4341.03125 l 1
 19116.1953125 4341.03125 l 1
 19116.1953125 5577.40625 l 1
 15254.8203125 5577.40625 l 1
 15120.9453125 5653.53125 l 1
 14561.8203125 5653.53125 13986.9453125 5658.78125 13433.0703125 5653.53125 c 0
 13406.8203125 5632.53125 13393.6953125 5593.15625 13356.9453125 5587.90625 c 2
 13120.6953125 5587.90625 l 1
 13120.6953125 5674.53125 l 1
 12766.3203125 5674.53125 l 1
 12766.3203125 5582.65625 l 1
 12669.1953125 5582.65625 l 1
 12669.1953125 5637.78125 l 1
 12304.3203125 5637.78125 l 2
 12304.3203125 5664.03125 12304.3203125 5690.28125 12299.0703125 5711.28125 c 0
 12283.3203125 5721.78125 12272.8203125 5750.65625 12251.8203125 5755.90625 c 0
 12180.9453125 5755.90625 12112.6953125 5761.15625 12047.0703125 5750.65625 c 0
 12031.3203125 5734.90625 12002.4453125 5711.28125 11991.9453125 5690.28125 c 2
 11991.9453125 5637.78125 l 1
 10745.0703125 5637.78125 l 1
EndSplineSet
Validated: 41
EndChar

StartChar: less
Encoding: 60 60 23
Width: 13861
Flags: HW
LayerCount: 2
Fore
SplineSet
13561.6953125 5427.78125 m 25
 13561.6953125 4889.65625 l 1
 13341.1953125 4889.65625 l 17
 13341.1953125 4879.15625 13341.1953125 4674.40625 13341.1953125 4627.15625 c 1
 13165.3203125 4627.15625 l 1
 13165.3203125 4283.28125 l 1
 13283.4453125 4073.28125 l 1
 13283.4453125 3821.28125 13283.4453125 3561.40625 13283.4453125 3304.15625 c 1
 12960.5703125 3304.15625 l 1
 12960.5703125 3713.65625 l 1
 12852.9453125 3842.28125 l 1
 12524.8203125 3842.28125 l 1
 12524.8203125 3760.90625 l 1
 12422.4453125 3684.78125 l 1
 12422.4453125 3325.15625 l 1
 12540.5703125 2878.90625 l 2
 12540.5703125 2878.90625 12540.5703125 2390.65625 12540.5703125 1744.90625 c 1
 11648.0703125 1744.90625 l 1
 11648.0703125 2852.65625 l 2
 11771.4453125 3309.40625 l 1
 11766.1953125 3684.78125 l 1
 11679.5703125 3755.65625 l 2
 11669.0703125 3776.65625 11679.5703125 3821.28125 11674.3203125 3847.53125 c 1
 10734.5703125 3847.53125 l 1
 10724.0703125 3734.65625 10729.3203125 3606.03125 10729.3203125 3487.90625 c 1
 10566.5703125 3369.78125 l 1
 10309.3203125 3364.53125 10033.6953125 3369.78125 9771.1953125 3369.78125 c 0
 9534.9453125 3432.78125 l 1
 9513.9453125 3335.65625 9385.3203125 2703.03125 9385.3203125 2703.03125 c 0
 9385.3203125 2424.78125 9385.3203125 2141.28125 9385.3203125 1863.03125 c 1
 9272.4453125 1863.03125 l 1
 9272.4453125 -882.71875 l 1
 8986.3203125 -1163.59375 l 1
 8771.0703125 -1174.09375 8547.9453125 -1168.84375 8332.6953125 -1168.84375 c 1
 8332.6953125 1261.90625 l 1
 6718.3203125 1261.90625 l 1
 6718.3203125 1330.15625 l 1
 465.5703125 1330.15625 l 1
 465.5703125 1330.15625 460.3203125 1335.40625 300.1953125 1755.40625 c 0
 294.9453125 1765.90625 397.3203125 3010.15625 397.3203125 3062.65625 c 2
 300.1953125 4406.65625 l 1
 460.3203125 4826.65625 l 1
 6697.3203125 4826.65625 l 1
 6697.3203125 4921.15625 l 1
 6988.6953125 4921.15625 l 1
 6988.6953125 5417.28125 l 1
 7035.9453125 5503.90625 7096.3203125 5577.40625 7143.5703125 5664.03125 c 1
 7959.9453125 5664.03125 l 1
 8067.5703125 5427.78125 l 1
 8303.8203125 5427.78125 l 1
 8303.8203125 5556.40625 l 1
 8450.8203125 5556.40625 l 1
 8450.8203125 5427.78125 l 1
 8558.4453125 5427.78125 l 1
 8558.4453125 5556.40625 l 1
 8697.5703125 5556.40625 l 1
 8697.5703125 5433.03125 l 1
 8831.4453125 5433.03125 l 1
 8831.4453125 5556.40625 l 1
 8970.5703125 5556.40625 l 1
 8970.5703125 5427.78125 l 1
 9104.4453125 5427.78125 l 1
 9104.4453125 5556.40625 l 1
 9251.4453125 5556.40625 l 1
 9251.4453125 5427.78125 l 1
 9369.5703125 5427.78125 l 1
 9369.5703125 5556.40625 l 1
 9498.1953125 5556.40625 l 1
 9498.1953125 5858.28125 l 1
 10745.0703125 5858.28125 l 1
 10745.0703125 5637.78125 l 1
 11991.9453125 5637.78125 l 1
 11991.9453125 5690.28125 l 2
 12002.4453125 5711.28125 12031.3203125 5734.90625 12047.0703125 5750.65625 c 0
 12112.6953125 5761.15625 12180.9453125 5755.90625 12251.8203125 5755.90625 c 0
 12272.8203125 5750.65625 12283.3203125 5721.78125 12299.0703125 5711.28125 c 0
 12304.3203125 5690.28125 12304.3203125 5664.03125 12304.3203125 5637.78125 c 2
 12669.1953125 5637.78125 l 1
 12669.1953125 5582.65625 l 1
 12766.3203125 5582.65625 l 1
 12766.3203125 5674.53125 l 1
 13120.6953125 5674.53125 l 1
 13120.6953125 5587.90625 l 1
 13356.9453125 5587.90625 l 2
 13356.9453125 5427.78125 l 9
 13561.6953125 5427.78125 l 25
9965.4453125 4007.65625 m 0
 9965.4453125 3931.53125 9965.4453125 3858.03125 9965.4453125 3781.90625 c 1
 10057.3203125 3566.65625 l 1
 9970.6953125 3535.15625 l 1
 9765.9453125 3781.90625 l 1
 9765.9453125 4023.40625 9763.3203125 4031.28125 9800.0703125 4283.28125 c 1
 9676.6953125 4283.28125 l 1
 9639.9453125 4207.15625 9587.4453125 4138.90625 9550.6953125 4062.78125 c 1
 9550.6953125 3934.15625 9550.6953125 3787.15625 9555.9453125 3663.78125 c 1
 9755.4453125 3443.28125 l 1
 10007.4453125 3443.28125 10267.3203125 3443.28125 10514.0703125 3448.53125 c 1
 10647.9453125 3550.90625 l 1
 10647.9453125 3724.15625 10653.1953125 3902.65625 10647.9453125 4068.03125 c 1
 10466.8203125 4283.28125 l 1
 10052.0703125 4283.28125 l 1
 10015.3203125 4165.15625 9965.4453125 4007.65625 9965.4453125 4007.65625 c 0
6739.3203125 1739.65625 m 1
 6739.3203125 1884.03125 l 1
 7072.6953125 1884.03125 7406.0703125 1878.78125 7734.1953125 1884.03125 c 1
 7836.5703125 1960.15625 l 1
 7836.5703125 2448.40625 l 1
 7980.9453125 2658.40625 l 1
 7980.9453125 2658.40625 8015.0703125 2647.90625 8015.0703125 2663.65625 c 2
 8293.3203125 3653.28125 l 1
 8293.3203125 3653.28125 8343.1953125 3939.40625 8337.9453125 3944.65625 c 0
 8290.6953125 3986.65625 8248.6953125 4041.78125 8201.4453125 4078.53125 c 1
 7112.0703125 4136.28125 l 1
 7009.6953125 4283.28125 l 1
 6723.5703125 4283.28125 l 1
 6723.5703125 4422.40625 l 1
 5201.0703125 4422.40625 3675.9453125 4417.15625 2153.4453125 4417.15625 c 1
 961.6953125 4068.03125 l 1
 924.9453125 3739.90625 885.5703125 3411.78125 848.8203125 3083.65625 c 1
 961.6953125 2094.03125 l 1
 2163.9453125 1739.65625 l 1
 6739.3203125 1739.65625 l 1
12653.4453125 4653.40625 m 2
 12642.9453125 4658.65625 12637.6953125 4658.65625 12637.6953125 4606.15625 c 1
 12797.8203125 4606.15625 l 1
 12797.8203125 4653.40625 l 1
 12653.4453125 4653.40625 l 2
12642.9453125 5089.15625 m 1
 12792.5703125 5089.15625 l 1
 12792.5703125 5191.53125 l 1
 12642.9453125 5191.53125 l 1
 12642.9453125 5089.15625 l 1
13089.1953125 5094.40625 m 1
 13362.1953125 5094.40625 l 1
 13362.1953125 5196.78125 l 1
 13094.4453125 5196.78125 l 1
 13089.1953125 5094.40625 l 1
EndSplineSet
Validated: 33
EndChar

StartChar: equal
Encoding: 61 61 24
Width: 19032
Flags: HW
LayerCount: 2
Fore
SplineSet
9036.78515625 4729.75 m 2
 9027.78515625 4734.25 8901.78515625 4993 8901.78515625 4993 c 2
 8861.28515625 4993 8699.28515625 4993 8694.78515625 4993 c 2
 8645.28515625 4961.5 l 2
 8636.28515625 4961.5 8607.03515625 4975 8584.53515625 4988.5 c 1
 8672.28515625 5040.25 l 1
 9036.78515625 5040.25 9399.03515625 5040.25 9763.53515625 5040.25 c 1
 9608.28515625 4736.5 l 2
 9599.28515625 4732 9412.53515625 4725.25 9376.53515625 4725.25 c 1
 9376.53515625 4997.5 l 1
 9230.28515625 4997.5 l 1
 9230.28515625 4729.75 l 1
 9036.78515625 4729.75 l 2
8649.78515625 2371.75 m 1
 8649.78515625 2362.75 8611.53515625 2191.75 8611.53515625 2178.25 c 2
 8611.53515625 2178.25 8640.78515625 1804.75 8640.78515625 1800.25 c 2
 8769.03515625 1620.25 l 1
 8787.03515625 1620.25 l 1
 8773.53515625 1660.75 8724.03515625 1786.75 8724.03515625 1786.75 c 1
 8724.03515625 1791.25 8724.03515625 2160.25 8724.03515625 2160.25 c 1
 8897.28515625 2371.75 l 2
 8906.28515625 2376.25 9486.78515625 2376.25 9635.28515625 2376.25 c 1
 9635.28515625 2376.25 9662.28515625 1555 9662.28515625 1550.5 c 1
 8377.53515625 1550.5 l 1
 8377.53515625 2284 l 1
 8442.78515625 2367.25 l 2
 8451.78515625 2371.75 8604.78515625 2371.75 8649.78515625 2371.75 c 1
8724.03515625 1786.75 m 1
 8724.03515625 1786.75 l 1
8724.03515625 2160.25 m 1
 8724.03515625 2160.25 l 1
7437.03515625 6307 m 0
 7428.03515625 6307 7428.03515625 6302.5 7428.03515625 6293.5 c 2
 7428.03515625 5321.5 l 1
 7700.28515625 5321.5 7961.28515625 5321.5 8233.53515625 5321.5 c 1
 8233.53515625 5326 8294.28515625 5384.5 8294.28515625 5384.5 c 2
 8298.78515625 5384.5 8406.78515625 5384.5 8447.28515625 5384.5 c 1
 8427.03515625 5283.25 l 1
 7995.03515625 5283.25 l 1
 7907.28515625 5159.5 l 1
 7511.28515625 5159.5 l 1
 7511.28515625 5085.25 l 1
 7155.78515625 5112.25 l 1
 7128.78515625 4867 7128.78515625 4869.25 7128.78515625 4698.25 c 1
 6834.03515625 4698.25 l 1
 6834.03515625 4482.25 l 1
 6962.28515625 4482.25 7092.78515625 4486.75 7221.03515625 4486.75 c 1
 5547.03515625 4477.75 l 1
 5542.53515625 4909.75 l 1
 5538.03515625 4909.75 5441.28515625 5062.75 5427.78515625 5062.75 c 2
 2419.53515625 5058.25 l 1
 2419.53515625 5053.75 2280.03515625 4909.75 2275.53515625 4909.75 c 1
 2275.53515625 4909.75 2174.28515625 4543 2160.78515625 4477.75 c 2
 1092.03515625 4477.75 l 1
 1087.53515625 4500.25 l 1
 1047.03515625 4536.25 l 1
 1047.03515625 4531.75 585.78515625 4536.25 581.28515625 4536.25 c 0
 525.03515625 4417 480.03515625 4293.25 423.78515625 4174 c 1
 331.53515625 3863.5 l 1
 331.53515625 3868 300.03515625 1906 300.03515625 1906 c 1
 300.03515625 1906 295.53515625 1906 387.78515625 1417.75 c 0
 396.78515625 1417.75 1074.03515625 1422.25 1074.03515625 1422.25 c 0
 1083.03515625 1474 1096.53515625 1519 1105.53515625 1570.75 c 2
 1157.28515625 1579.75 l 1
 1157.28515625 1483 1161.78515625 1417.75 1161.78515625 1303 c 1
 1328.28515625 1307.5 l 0
 1328.28515625 1404.25 1328.28515625 1505.5 1328.28515625 1602.25 c 1
 2165.28515625 1735 l 2
 2169.78515625 1735 2280.03515625 1694.5 2280.03515625 1694.5 c 2
 2289.03515625 1676.5 2815.53515625 -1277.75 2815.53515625 -1282.25 c 1
 4516.53515625 -917.75 l 1
 4008.03515625 2025.25 l 1
 4271.28515625 2169.25 l 1
 4271.28515625 2860 l 1
 4957.53515625 3229 l 2
 4962.03515625 3229 6501.03515625 3233.5 6501.03515625 3233.5 c 2
 6505.53515625 3233.5 6937.53515625 2900.5 6989.28515625 2860 c 0
 6989.28515625 2689 6989.28515625 2515.75 6989.28515625 2344.75 c 1
 6989.28515625 2349.25 7050.03515625 2126.5 7050.03515625 2126.5 c 2
 7050.03515625 2117.5 6714.78515625 1469.5 6714.78515625 1469.5 c 2
 6316.53515625 990.25 l 1
 6316.53515625 994.75 5731.53515625 -472.25 5727.03515625 -485.75 c 1
 6109.53515625 -490.25 7272.78515625 -503.75 7286.28515625 -503.75 c 0
 7506.78515625 -42.5 7727.28515625 412 7943.28515625 868.75 c 1
 7943.28515625 864.25 7851.03515625 1278.25 7837.53515625 1357 c 1
 8382.03515625 1469.5 l 1
 10690.5351562 1469.5 l 1
 10695.0351562 1935.25 10704.0351562 2398.75 10708.5351562 2864.5 c 0
 10708.5351562 2869 10949.2851562 3229 10958.2851562 3247 c 0
 10958.2851562 3247 10958.2851562 3265 10958.2851562 3278.5 c 1
 11649.0351562 3247 l 1
 11649.0351562 2974.75 l 1
 11592.7851562 2974.75 l 1
 11592.7851562 2626 l 1
 12184.5351562 2626 l 1
 12141.7851562 1559.5 l 1
 12141.7851562 -204.5 l 1
 12141.7851562 -200 12211.5351562 -458.75 12211.5351562 -458.75 c 2
 12211.5351562 -472.25 12211.5351562 -618.5 12211.5351562 -623 c 2
 12954.0351562 -623 l 1
 12954.0351562 -566.75 12954.0351562 -510.5 12954.0351562 -454.25 c 0
 12954.0351562 -449.75 13035.0351562 -186.5 13035.0351562 -186.5 c 1
 13035.0351562 -191 13035.0351562 1570.75 13035.0351562 1570.75 c 1
 13035.0351562 1570.75 12990.0351562 2497.75 12985.5351562 2621.5 c 1
 14362.5351562 2621.5 l 1
 14362.5351562 2882.5 l 1
 16041.0351562 2882.5 l 1
 16041.0351562 3607 l 1
 16556.2851562 3607 l 1
 16556.2851562 3681.25 l 1
 17343.7851562 3681.25 l 1
 17404.5351562 3577.75 l 1
 18732.0351562 3577.75 l 1
 18732.0351562 4241.5 l 1
 17409.0351562 4241.5 l 1
 17352.7851562 4144.75 l 1
 16551.7851562 4144.75 l 1
 16551.7851562 4601.5 l 1
 16533.7851562 4601.5 l 1
 16533.7851562 4822 16533.7851562 5044.75 16533.7851562 5265.25 c 1
 16506.7851562 5366.5 l 0
 16358.2851562 5587 l 2
 16216.5351562 5587 l 1
 16216.5351562 5249.5 16216.5351562 4921 16216.5351562 4583.5 c 0
 16216.5351562 4583.5 16104.0351562 4210 16086.0351562 4144.75 c 2
 16036.5351562 4144.75 l 1
 16036.5351562 4817.5 l 2
 16032.0351562 4817.5 15998.2851562 4878.25 15984.7851562 4878.25 c 0
 11703.0351562 4878.25 11705.2851562 4878.25 11705.2851562 4878.25 c 2
 11691.7851562 4851.25 11671.5351562 4822 11658.0351562 4795 c 1
 11658.0351562 4795 11658.0351562 4642 11658.0351562 4597 c 2
 10953.7851562 4565.5 l 1
 10953.7851562 4628.5 l 1
 11390.2851562 4628.5 l 1
 11390.2851562 4909.75 l 1
 10708.5351562 4909.75 l 1
 10708.5351562 5035.75 l 1
 10616.2851562 5035.75 l 1
 10616.2851562 5283.25 l 1
 9626.28515625 5283.25 l 1
 9626.28515625 5335 l 1
 10087.5351562 5317 10551.0351562 5292.25 11012.2851562 5274.25 c 1
 11064.0351562 5422.75 11064.0351562 5420.5 11372.2851562 6352 c 1
 9630.78515625 6289 l 1
 9630.78515625 6289 9630.78515625 6320.5 9621.78515625 6320.5 c 2
 9498.03515625 6408.25 l 1
 9502.53515625 6408.25 8737.53515625 6403.75 8737.53515625 6403.75 c 1
 8607.03515625 6298 l 1
 8607.03515625 6298 8602.53515625 6264.25 8602.53515625 6250.75 c 2
 8307.78515625 6237.25 l 2
 8298.78515625 6241.75 8229.03515625 6307 8229.03515625 6307 c 1
 8229.03515625 6302.5 7437.03515625 6307 7437.03515625 6307 c 0
11658.0351562 4795 m 1
 11658.0351562 4795 l 1
16036.5351562 4817.5 m 1
 16036.5351562 4817.5 l 1
16506.7851562 5366.5 m 1
 16506.7851562 5366.5 l 1
16533.7851562 5265.25 m 1
 16533.7851562 5265.25 l 1
10958.2851562 3247 m 1
 10958.2851562 3247 l 1
1047.03515625 4536.25 m 1
 1047.03515625 4536.25 l 1
1087.53515625 4500.25 m 1
 1087.53515625 4500.25 l 1
2275.53515625 4909.75 m 1
 2275.53515625 4909.75 l 1
2419.53515625 5058.25 m 1
 2419.53515625 5058.25 l 1
5542.53515625 4909.75 m 1
 5542.53515625 4909.75 l 1
7234.53515625 4464.25 m 1
 7234.53515625 4464.25 l 1
8233.53515625 5321.5 m 1
 8233.53515625 5321.5 l 1
8229.03515625 6307 m 1
 8229.03515625 6307 l 1
8607.03515625 6298 m 1
 8607.03515625 6298 l 1
EndSplineSet
Validated: 37
EndChar

StartChar: greater
Encoding: 62 62 25
Width: 19032
Flags: HW
LayerCount: 2
Fore
SplineSet
6487.5 4319.875 m 1
 6219.75 4319.875 l 1
 6219.75 4119.625 l 1
 6334.5 4119.625 6456 4119.625 6570.75 4119.625 c 1
 5054.25 4115.125 l 1
 5054.25 4508.875 l 1
 4948.5 4641.625 l 1
 4957.5 4637.125 2257.5 4637.125 2226 4637.125 c 1
 2226 4637.125 2095.5 4513.375 2091 4508.875 c 1
 2091 4508.875 1998.75 4171.375 1985.25 4115.125 c 2
 1013.25 4115.125 l 1
 1013.25 4130.875 l 1
 977.25 4166.875 l 1
 977.25 4166.875 561 4166.875 552 4162.375 c 2
 410.25 3836.125 l 1
 327 3559.375 l 1
 327 3563.875 300 1784.125 300 1784.125 c 1
 300 1784.125 300 1786.375 383.25 1343.125 c 0
 387.75 1343.125 990.75 1343.125 999.75 1352.125 c 2
 1026.75 1480.375 l 1
 1078.5 1484.875 l 1
 1078.5 1397.125 1078.5 1340.875 1078.5 1235.125 c 1
 1229.25 1239.625 l 0
 1229.25 1327.375 1236 1419.625 1236 1507.375 c 2
 1989.75 1628.875 l 2
 1994.25 1628.875 2097.75 1590.625 2097.75 1590.625 c 2
 2106.75 1572.625 2577 -1104.875 2577 -1109.375 c 1
 4120.5 -778.625 l 1
 3663.75 1889.875 l 1
 3663.75 1889.875 3893.25 2020.375 3897.75 2029.375 c 2
 3897.75 2645.875 l 1
 4525.5 2983.375 l 2
 4530 2983.375 5920.5 2983.375 5920.5 2983.375 c 2
 5925 2983.375 6363.75 2650.375 6363.75 2650.375 c 2
 6368.25 2641.375 6363.75 2180.125 6363.75 2180.125 c 1
 6413.25 1982.125 l 2
 6413.25 1973.125 6114 1383.625 6114 1383.625 c 2
 5756.25 956.125 l 1
 5756.25 960.625 5225.25 -371.375 5220.75 -384.875 c 1
 5256.75 -384.875 6627 -400.625 6636 -396.125 c 2
 7225.5 839.125 l 1
 7225.5 834.625 7142.25 1212.625 7128.75 1286.875 c 1
 7626 1383.625 l 1
 9718.5 1383.625 l 1
 9723 1806.625 9727.5 2227.375 9732 2650.375 c 0
 9732 2654.875 9948 2983.375 9957 2996.875 c 0
 9957 2996.875 9957 3014.875 9957 3023.875 c 1
 10584.75 2996.875 l 1
 10584.75 2751.625 l 1
 10537.5 2751.625 l 1
 10537.5 2434.375 l 1
 11068.5 2434.375 l 1
 11032.5 1471.375 l 1
 11037 -128.375 l 1
 11037 -123.875 11095.5 -362.375 11095.5 -362.375 c 2
 11095.5 -375.875 11095.5 -506.375 11095.5 -510.875 c 2
 11768.25 -510.875 l 1
 11768.25 -459.125 11768.25 -409.625 11768.25 -357.875 c 0
 11842.5 -114.875 l 1
 11842.5 1480.375 l 1
 11842.5 1480.375 11802 2319.625 11797.5 2429.875 c 1
 13046.25 2429.875 l 1
 13046.25 2663.875 l 1
 14565 2663.875 l 1
 14565 3323.125 l 1
 15030.75 3323.125 l 1
 15030.75 3388.375 l 1
 15741.75 3388.375 l 1
 15741.75 3163.375 15746.25 2936.125 15746.25 2711.125 c 0
 15773.25 2711.125 18727.5 2720.125 18732 2720.125 c 1
 18732 2738.125 18723 4443.625 18723 4448.125 c 0
 18696 4448.125 15755.25 4452.625 15750.75 4452.625 c 0
 15750.75 4241.125 15750.75 4022.875 15750.75 3811.375 c 1
 15030.75 3811.375 l 1
 15030.75 4223.125 l 1
 15012.75 4223.125 l 1
 15012.75 4421.125 15012.75 4628.125 15012.75 4826.125 c 1
 14990.25 4918.375 l 0
 14990.25 4918.375 14855.25 5116.375 14846.25 5120.875 c 2
 14722.5 5120.875 l 1
 14722.5 4817.125 14727 4511.125 14727 4207.375 c 0
 14727 4202.875 14625.75 3867.625 14607.75 3811.375 c 2
 14560.5 3811.375 l 1
 14560.5 4421.125 l 1
 14515.5 4475.125 l 1
 14515.5 4470.625 10638.75 4475.125 10629.75 4470.625 c 2
 10593.75 4400.875 l 1
 10593.75 4400.875 10593.75 4263.625 10593.75 4223.125 c 2
 9957 4189.375 l 1
 9957 4250.125 l 1
 10355.25 4250.125 l 1
 10355.25 4502.125 l 1
 10161.75 4502.125 9957 4508.875 9763.5 4508.875 c 1
 9763.5 4855.375 9768 5192.875 9768 5539.375 c 0
 9763.5 5539.375 9187.5 5548.375 9183 5548.375 c 0
 9183 5465.125 9178.5 5384.125 9178.5 5305.375 c 2
 9178.5 5305.375 9111 5096.125 8913 4889.125 c 0
 8904 4889.125 8616 4889.125 7925.25 4889.125 c 1
 7925.25 4787.875 7925.25 4686.625 7925.25 4589.875 c 1
 6516.75 4691.125 l 1
 6494.25 4470.625 6487.5 4472.875 6487.5 4319.875 c 1
7617 1471.375 m 2
 7617 2126.125 l 1
 7682.25 2204.875 l 1
 7747.5 2204.875 7801.5 2204.875 7866.75 2204.875 c 1
 7866.75 2200.375 7828.5 2042.875 7828.5 2029.375 c 2
 7828.5 2029.375 7857.75 1691.875 7857.75 1687.375 c 2
 7977 1520.875 l 1
 7995 1525.375 l 1
 7981.5 1565.875 7934.25 1678.375 7934.25 1678.375 c 1
 7934.25 1682.875 7934.25 2015.875 7934.25 2015.875 c 1
 8091.75 2204.875 l 1
 8316.75 2204.875 8539.5 2209.375 8764.5 2209.375 c 1
 8764.5 2209.375 8782.5 1466.875 8782.5 1462.375 c 1
 7630.5 1462.375 l 2
 7621.5 1462.375 7617 1462.375 7617 1471.375 c 2
7617 2126.125 m 1
 7617 2126.125 l 1
7682.25 2204.875 m 1
 7682.25 2204.875 l 1
7934.25 1678.375 m 1
 7934.25 1678.375 l 1
7934.25 2015.875 m 1
 7934.25 2015.875 l 1
10593.75 4400.875 m 1
 10593.75 4400.875 l 1
14515.5 4475.125 m 1
 14515.5 4475.125 l 1
14560.5 4421.125 m 1
 14560.5 4421.125 l 1
14990.25 4918.375 m 1
 14990.25 4918.375 l 1
15012.75 4826.125 m 1
 15012.75 4826.125 l 1
9957 2996.875 m 1
 9957 2996.875 l 1
977.25 4166.875 m 1
 977.25 4166.875 l 1
1013.25 4135.375 m 1
 1013.25 4135.375 l 1
2091 4508.875 m 1
 2091 4508.875 l 1
2221.5 4637.125 m 1
 2221.5 4637.125 l 1
5054.25 4508.875 m 1
 5054.25 4508.875 l 1
6584.25 4101.625 m 1
 6584.25 4101.625 l 1
EndSplineSet
Validated: 37
EndChar

StartChar: at
Encoding: 64 64 26
Width: 29796
Flags: HW
LayerCount: 2
Fore
SplineSet
9632.92675781 1449.83105469 m 1
 9628.17480469 1649.4140625 9623.42382812 1844.24609375 9618.671875 2043.83105469 c 1
 9623.42382812 2043.83105469 10509.671875 2048.58203125 10519.1748047 2048.58203125 c 1
 10519.1748047 2010.56640625 10493.0400391 1471.21386719 10497.7919922 1471.21386719 c 1
 10314.8398438 1226.48535156 l 2
 10300.5839844 1216.98242188 9521.25585938 1240.7421875 9530.75976562 1240.7421875 c 1
 9428.59277344 1309.64648438 9326.42382812 1376.17480469 9224.25585938 1449.83105469 c 1
 9632.92675781 1449.83105469 l 1
13881.2148438 3269.84667969 m 1
 13885.9677734 3269.84667969 14620.1523438 3274.59765625 14639.1601562 3274.59765625 c 1
 14639.1601562 3129.66210938 l 1
 13881.2148438 3129.66210938 l 1
 13881.2148438 3269.84667969 l 1
19034.7597656 3547.83789062 m 1
 19039.5126953 3547.83789062 19452.9355469 3552.58984375 19452.9355469 3552.58984375 c 1
 19452.9355469 3372.01367188 19550.3515625 3391.02246094 19550.3515625 3269.84667969 c 2
 19319.8789062 3269.84667969 l 1
 19319.8789062 3398.15136719 l 1
 19034.7597656 3398.15136719 l 1
 19034.7597656 3547.83789062 l 1
782.328125 3966.01367188 m 1
 787.079101562 3966.01367188 3871.12695312 3966.01367188 3899.63964844 3966.01367188 c 1
 3899.63964844 3863.84667969 l 1
 3828.36035156 3863.84667969 l 1
 3828.36035156 3585.85449219 l 1
 3583.63183594 3585.85449219 l 1
 3583.63183594 2934.83105469 l 1
 3833.11230469 2934.83105469 l 1
 3833.11230469 2642.58203125 l 1
 3899.63964844 2642.58203125 l 1
 3899.63964844 2540.4140625 l 1
 782.328125 2540.4140625 l 1
 782.328125 3966.01367188 l 1
10497.7919922 1471.21386719 m 1
 10497.7919922 1471.21386719 l 1
19545.5996094 3324.49414062 m 1
 19545.5996094 3324.49414062 l 1
20158.6074219 2618.82226562 m 1
 20158.6074219 2720.99023438 l 1
 20377.1992188 2720.99023438 20600.5439453 2720.99023438 20819.1357422 2720.99023438 c 0
 20823.8876953 2720.99023438 20971.1992188 2675.84667969 20975.9521484 2675.84667969 c 1
 21199.2949219 2671.09375 l 1
 21199.2949219 3353.00585938 l 1
 21166.03125 3353.00585938 20940.3125 3353.00585938 20940.3125 3353.00585938 c 1
 20940.3125 3353.00585938 20814.1201172 3324.50390625 20813.8994141 3324.39941406 c 2
 20819.6201172 3325.60351562 20260.7744141 3305.48535156 20153.8554688 3310.23828125 c 1
 20163.3603516 3343.50195312 20256.0234375 3459.92578125 20256.0234375 3514.57519531 c 1
 26409.8642578 3514.57519531 l 1
 26409.8642578 3431.4140625 l 1
 29496.2880859 3431.4140625 l 1
 29496.2880859 4220.24609375 l 1
 26409.8642578 4220.24609375 l 1
 26409.8642578 4137.0859375 l 1
 20251.2724609 4137.0859375 l 1
 20251.2724609 4220.24609375 l 1
 20153.8554688 4220.24609375 l 1
 20094.4550781 4486.35742188 l 1
 19555.1035156 4486.35742188 l 1
 19500.4550781 4234.50195312 l 1
 19412.5439453 4215.49414062 l 1
 19412.5439453 4137.0859375 l 1
 19068.0234375 4137.0859375 l 1
 19068.0234375 4681.19042969 l 1
 14610.6474609 4681.19042969 l 1
 14610.6474609 4248.75683594 l 1
 13914.4794922 4248.75683594 l 1
 13914.4794922 4823.75097656 l 1
 11025.2636719 4823.75097656 l 1
 11020.5126953 4885.52636719 l 1
 11020.5126953 4876.02246094 10599.9599609 5610.20605469 10585.703125 5619.7109375 c 2
 9787.3671875 5619.7109375 l 1
 9787.3671875 4823.75097656 l 1
 9024.671875 4818.99707031 l 1
 8801.32714844 4666.93457031 l 2
 8777.56738281 4666.93457031 5997.64746094 4666.93457031 5992.89453125 4666.93457031 c 2
 5992.89453125 3616.7421875 l 1
 5662.63183594 3616.7421875 l 1
 5662.63183594 3897.11035156 l 1
 5204.06347656 3897.11035156 l 1
 5204.06347656 3927.99707031 l 1
 5866.96777344 3927.99707031 l 1
 5866.96777344 4286.77441406 l 1
 5204.06347656 4286.77441406 l 1
 5204.06347656 4365.18164062 l 1
 3866.375 4365.18164062 l 1
 3866.375 4282.02246094 l 1
 820.34375 4282.02246094 l 1
 820.34375 4512.49414062 l 1
 300 4512.49414062 l 1
 300 1746.83105469 l 1
 820.34375 1746.83105469 l 1
 820.34375 2210.15136719 l 1
 3861.62304688 2210.15136719 l 1
 3861.62304688 2210.15136719 3837.86425781 2136.49414062 3880.63183594 2145.99707031 c 2
 5208.81542969 2145.99707031 l 1
 5208.81542969 2205.39746094 l 1
 5871.71972656 2205.39746094 l 1
 5871.71972656 2583.18164062 l 1
 5204.06347656 2583.18164062 l 1
 5204.06347656 2618.82226562 l 1
 5662.63183594 2618.82226562 l 1
 5662.63183594 2906.31738281 l 1
 5997.64746094 2906.31738281 l 1
 6002.39941406 2355.0859375 l 1
 6007.15234375 2355.0859375 6363.55175781 2005.81445312 6363.55175781 2005.81445312 c 1
 6354.046875 2010.56640625 7506.40820312 2005.81445312 7646.59277344 2005.81445312 c 2
 7763.01464844 1685.0546875 l 1
 7632.33496094 1459.33398438 l 2
 7632.33496094 1454.58203125 6936.16699219 765.54296875 6936.16699219 765.54296875 c 1
 6959.92675781 794.0546875 6434.83203125 97.8857421875 6425.32714844 5.22265625 c 2
 6484.7265625 -165.848632812 l 1
 6470.47167969 -156.345703125 7934.08789062 -700.44921875 7957.84765625 -695.698242188 c 2
 8100.40820312 -500.865234375 l 1
 8095.65527344 -500.865234375 8095.65527344 -96.9453125 8095.65527344 -96.9453125 c 2
 8100.40820312 -87.443359375 8891.61523438 1110.06152344 8979.52734375 1240.7421875 c 2
 9466.60742188 1119.56542969 l 1
 9461.85546875 1119.56542969 10402.7519531 1124.31738281 10417.0078125 1129.0703125 c 2
 10654.6074219 1464.0859375 l 1
 10649.8554688 1464.0859375 10654.6074219 1903.64648438 10654.6074219 2005.81445312 c 2
 10854.1923828 2005.81445312 l 1
 10854.1923828 2535.66210938 l 1
 11039.5195312 2535.66210938 l 1
 11039.5195312 1815.734375 11039.5195312 1095.80566406 11039.5195312 375.876953125 c 1
 11039.5195312 380.630859375 11224.8476562 -296.530273438 11239.1035156 -310.786132812 c 2
 11239.1035156 -310.786132812 13092.3837891 -450.969726562 13111.3925781 -441.465820312 c 2
 13593.7197266 399.63671875 l 1
 13593.7197266 394.885742188 13636.4873047 1031.65429688 13641.2402344 1616.15136719 c 1
 14772.2148438 1616.15136719 l 1
 14772.2148438 1616.15136719 18506.3642578 1537.99902344 18479.9638672 1550.21679688 c 2
 18479.9638672 1550.09960938 17813.4951172 1863.25488281 17813.4951172 1863.25488281 c 1
 17813.4951172 1858.50195312 17812.0048828 2590.29199219 17813.4951172 2590.31054688 c 2
 20158.6074219 2618.82226562 l 1
20256.0234375 3488.4375 m 1
 20256.0234375 3488.4375 l 1
20940.3125 3353.00585938 m 1
 20940.3125 3353.00585938 l 1
20975.9521484 2671.09375 m 1
 20975.9521484 2671.09375 l 1
13607.9746094 1746.83105469 m 1
 13607.9746094 1746.83105469 l 1
10654.6074219 1464.0859375 m 1
 10654.6074219 1464.0859375 l 1
8100.40820312 -500.865234375 m 1
 8100.40820312 -500.865234375 l 1
6002.39941406 2355.0859375 m 1
 6002.39941406 2355.0859375 l 1
9024.671875 4818.99707031 m 1
 9024.671875 4818.99707031 l 1
EndSplineSet
EndChar

StartChar: A
Encoding: 65 65 27
Width: 9817
Flags: HW
LayerCount: 2
Fore
SplineSet
340.846679688 2372.30273438 m 5
 235.096679688 2174.30273438 349.846679688 1951.55273438 511.846679688 1713.05273438 c 4
 741.346679688 1371.05273438 934.846679688 1204.55273438 1137.34667969 1256.30273438 c 5
 2262.34667969 2048.30273438 l 6
 2266.84667969 2048.30273438 2363.59667969 2061.80273438 2386.09667969 2066.30273438 c 6
 2667.34667969 1692.80273438 l 5
 2658.34667969 1647.80273438 l 6
 2653.84667969 1647.80273438 1535.59667969 860.302734375 1535.59667969 860.302734375 c 5
 1438.84667969 610.552734375 1553.59667969 435.052734375 1681.84667969 232.552734375 c 4
 1695.34667969 210.052734375 1715.59667969 180.802734375 1733.59667969 153.802734375 c 4
 1747.09667969 140.302734375 1765.09667969 113.302734375 1783.09667969 86.302734375 c 4
 1902.34667969 -80.197265625 2091.34667969 -325.447265625 2359.09667969 -246.697265625 c 5
 3457.09667969 527.302734375 l 6
 3457.09667969 527.302734375 3589.84667969 556.552734375 3612.34667969 561.052734375 c 6
 3668.59667969 504.802734375 l 5
 2683.09667969 -199.447265625 l 5
 2516.59667969 -392.947265625 2705.59667969 -669.697265625 2815.84667969 -840.697265625 c 4
 2851.84667969 -901.447265625 2858.59667969 -899.197265625 2903.59667969 -964.447265625 c 4
 3061.09667969 -1166.94726562 3238.84667969 -1403.19726562 3497.59667969 -1306.44726562 c 5
 4593.34667969 -536.947265625 l 6
 4807.09667969 -494.197265625 l 6
 4811.59667969 -494.197265625 4861.09667969 -527.947265625 4865.59667969 -527.947265625 c 5
 4939.84667969 -507.697265625 l 5
 5313.34667969 -401.947265625 l 5
 5313.34667969 -401.947265625 8105.59667969 1569.05273438 8128.09667969 1582.55273438 c 5
 8128.09667969 1582.55273438 8150.59667969 1708.55273438 8150.59667969 1713.05273438 c 5
 8150.59667969 1713.05273438 8137.09667969 1791.80273438 8132.59667969 1809.80273438 c 6
 8184.34667969 1845.80273438 l 5
 8326.09667969 2048.30273438 l 6
 9507.34667969 2887.55273438 l 5
 9577.09667969 3058.55273438 9271.09667969 3537.80273438 9201.34667969 3634.55273438 c 4
 9183.34667969 3652.55273438 9156.34667969 3686.30273438 9124.84667969 3722.30273438 c 4
 8983.09667969 3893.30273438 8769.34667969 4145.30273438 8636.59667969 4066.55273438 c 5
 7477.84667969 3243.05273438 l 6
 7477.84667969 3243.05273438 7360.84667969 3204.80273438 7291.09667969 3182.30273438 c 5
 8373.34667969 3942.80273438 l 5
 8465.59667969 4158.80273438 8159.59667969 4593.05273438 8040.34667969 4730.30273438 c 4
 8022.34667969 4748.30273438 8004.34667969 4777.55273438 7981.84667969 4800.05273438 c 4
 7840.09667969 4971.05273438 7644.34667969 5191.55273438 7516.09667969 5135.30273438 c 5
 6341.59667969 4307.30273438 l 6
 6341.59667969 4307.30273438 6170.59667969 4251.05273438 6139.09667969 4242.05273438 c 6
 5920.84667969 4509.80273438 l 5
 6008.59667969 4633.55273438 l 6
 7187.59667969 5472.80273438 l 5
 7239.34667969 5702.30273438 6919.84667969 6183.80273438 6888.34667969 6210.80273438 c 4
 6712.84667969 6440.30273438 6460.84667969 6717.05273438 6312.34667969 6642.80273438 c 5
 5155.84667969 5817.05273438 l 6
 5155.84667969 5817.05273438 4883.59667969 5736.05273438 4874.59667969 5731.55273438 c 4
 4874.59667969 5731.55273438 4865.59667969 5720.30273438 4861.09667969 5715.80273438 c 6
 4723.84667969 5790.05273438 l 5
 4627.09667969 5767.55273438 l 4
 4627.09667969 5767.55273438 4548.34667969 5706.80273438 4521.34667969 5688.80273438 c 5
 4420.09667969 5974.55273438 l 5
 4420.09667969 5974.55273438 4303.09667969 6006.05273438 4298.59667969 6006.05273438 c 5
 4298.59667969 6006.05273438 4064.59667969 5909.30273438 4060.09667969 5904.80273438 c 5
 4060.09667969 5904.80273438 4017.34667969 5837.30273438 4017.34667969 5832.80273438 c 6
 4165.84667969 5434.55273438 l 5
 1801.09667969 3758.30273438 l 5
 1801.09667969 3758.30273438 1603.09667969 3472.55273438 1598.59667969 3468.05273438 c 5
 1589.59667969 3393.80273438 l 4
 1465.84667969 3164.30273438 l 6
 1465.84667969 3159.80273438 340.846679688 2372.30273438 340.846679688 2372.30273438 c 5
1598.59667969 3468.05273438 m 5
 1598.59667969 3468.05273438 l 5
4060.09667969 5904.80273438 m 5
 4060.09667969 5904.80273438 l 5
4298.59667969 6006.05273438 m 5
 4298.59667969 6006.05273438 l 5
4420.09667969 5974.55273438 m 5
 4420.09667969 5974.55273438 l 5
4627.09667969 5767.55273438 m 5
 4627.09667969 5767.55273438 l 5
4723.84667969 5794.55273438 m 5
 4723.84667969 5794.55273438 l 5
4874.59667969 5731.55273438 m 5
 4874.59667969 5731.55273438 l 5
8150.59667969 1713.05273438 m 5
 8150.59667969 1713.05273438 l 5
8128.09667969 1582.55273438 m 5
 8128.09667969 1582.55273438 l 5
4865.59667969 -527.947265625 m 5
 4865.59667969 -527.947265625 l 5
4395.34667969 1731.05273438 m 5
 5819.59667969 2743.55273438 l 5
 6044.59667969 2601.80273438 6148.09667969 2514.05273438 6285.34667969 2250.80273438 c 5
 4847.59667969 1238.30273438 l 6
 4838.59667969 1238.30273438 4829.59667969 1242.80273438 4829.59667969 1242.80273438 c 4
 4609.09667969 1404.80273438 4514.59667969 1472.30273438 4395.34667969 1731.05273438 c 5
4165.84667969 5434.55273438 m 1029
EndSplineSet
Validated: 41
EndChar

StartChar: B
Encoding: 66 66 28
Width: 7614
Flags: HW
LayerCount: 2
Fore
SplineSet
3858.75 1348.625 m 1
 4115.625 1583 l 1
 4550.625 2293.625 l 1
 5587.5 2404.25 5587.5 2400.5 5587.5 2400.5 c 0
 5683.125 2419.25 5778.75 2443.625 5874.375 2462.375 c 1
 5874.375 615.5 l 1
 5790 615.5 l 1
 5356.875 857.375 4925.625 1103 4492.5 1348.625 c 1
 3858.75 1348.625 l 1
5175 3180.5 m 0
 5317.5 3092.375 5456.25 2998.625 5598.75 2910.5 c 0
 5598.75 2906.75 5598.75 2906.75 5595 2484.875 c 1
 4891.875 2496.125 l 1
 4869.375 2561.75 4845 2627.375 4822.5 2693 c 0
 4830 2968.625 l 2
 4830 2968.625 4906.875 3165.5 4910.625 3176.75 c 0
 5028.75 3176.75 5171.25 3180.5 5175 3180.5 c 0
3251.25 5698.625 m 0
 3236.25 5713.625 3191.25 5715.5 3140.625 5726.75 c 1
 3232.5 5929.25 l 1
 4526.25 5929.25 l 1
 4595.625 5580.5 l 1
 3217.5 5580.5 l 1
 3236.25 5595.5 3236.25 5595.5 3247.5 5603 c 0
 3277.5 5621.75 3305.625 5640.5 3251.25 5698.625 c 0
2557.5 5726.75 m 1
 2495.625 5726.75 2433.75 5726.75 2375.625 5726.75 c 1
 2291.25 5676.125 l 1
 2291.25 5599.25 l 1
 2300.625 5599.25 l 1
 2011.875 5599.25 886.875 5595.5 886.875 5595.5 c 0
 513.75 5496.125 354.375 5089.25 300 4766.75 c 1
 300 3053 l 1
 686.25 3053 l 1
 686.25 1206.125 l 1
 322.5 1206.125 l 1
 322.5 -920.125 l 1
 360 -1162 543.75 -1244.5 671.25 -1282 c 1
 6738.75 -1282 l 1
 7050 -1223.875 7126.875 -997 7200 -667 c 1
 7200 630.5 l 1
 6819.375 630.5 l 1
 6819.375 2829.875 l 1
 7196.25 2829.875 l 1
 7196.25 3576.125 l 1
 7314.375 3576.125 l 1
 7314.375 4059.875 l 1
 7196.25 4059.875 l 1
 7196.25 5061.125 l 0
 7115.625 5325.5 7027.5 5565.5 6731.25 5599.25 c 1
 6731.25 5599.25 5379.375 5599.25 5280 5599.25 c 1
 5221.875 5948 l 1
 5163.75 5918 l 1
 5118.75 5944.25 l 1
 5041.875 5914.25 l 1
 4691.25 6347.375 l 0
 4633.125 6377.375 4584.375 6394.25 4533.75 6398 c 1
 3133.125 6398 l 0
 3082.5 6383 3048.75 6358.625 3022.5 6332.375 c 1
 3022.5 6332.375 2638.125 5794.25 2619.375 5768 c 2
 2557.5 5726.75 l 1
2469.375 3056.75 m 1
 2595 3064.25 l 1
 2598.75 3176.75 l 1
 3528.75 3176.75 l 1
 3485.625 2492.375 l 1
 3485.625 2492.375 3485.625 2492.375 3210 2196.125 c 0
 3206.25 2196.125 2971.875 2136.125 2975.625 2136.125 c 1
 2806.875 2109.875 2638.125 2081.75 2469.375 2055.5 c 1
 2469.375 3056.75 l 1
5171.25 3173 m 1
 4492.5 3613.625 l 2
 4488.75 3613.625 2748.75 3598.625 2660.625 3598.625 c 1
 2587.5 3495.5 l 2
 2587.5 3491.75 2610 3173 2610 3173 c 2
 2598.75 3169.25 l 1
 2598.75 3169.25 2572.5 3499.25 2572.5 3495.5 c 1
 2649.375 3609.875 l 2
 2653.125 3609.875 4496.25 3628.625 4492.5 3628.625 c 1
 5175 3180.5 l 1
 5171.25 3173 l 1
6811.875 2829.875 m 1
 5690.625 2833.625 l 1
 5591.25 2903 l 2
 5598.75 2914.25 l 1
 5598.75 2914.25 5694.375 2846.75 5698.125 2846.75 c 2
 6811.875 2846.75 l 1
 6811.875 2829.875 l 1
5870.625 2833.625 m 1
 5859.375 2833.625 l 1
 5859.375 2454.875 l 1
 5874.375 2454.875 l 1
 5870.625 2833.625 l 1
EndSplineSet
Validated: 37
EndChar

StartChar: C
Encoding: 67 67 29
Width: 15921
Flags: HW
LayerCount: 2
Fore
SplineSet
8897.45117188 5740.68652344 m 1
 8909.42285156 5713.75585938 l 2
 8921.39160156 5695.79980469 8885.48242188 5695.79980469 8873.51171875 5689.81542969 c 2
 8810.66992188 5567.12304688 l 1
 8960.29492188 5219.99316406 l 1
 8640.09765625 5115.25585938 l 1
 8535.36035156 5121.24121094 8427.62988281 5139.1953125 8316.90820312 5151.16601562 c 1
 8137.35742188 4881.84179688 l 1
 8056.55957031 4839.9453125 7972.77050781 4795.05859375 7891.97265625 4753.16210938 c 0
 7862.04785156 4753.16210938 7823.14550781 4783.08789062 7787.23535156 4789.07324219 c 0
 7712.42285156 4765.1328125 6605.19824219 4403.04101562 6605.19824219 4403.04101562 c 2
 3780.27636719 2882.84960938 l 1
 3681.52539062 2589.58496094 l 1
 3522.92285156 2490.83300781 3349.35742188 2413.02929688 3190.75488281 2320.26074219 c 1
 3307.46289062 3122.25097656 l 1
 8457.5546875 5899.29101562 l 1
 8702.93945312 5770.61230469 8762.79003906 5740.68652344 8897.45117188 5740.68652344 c 1
10833.5996094 5713.75585938 m 1
 10974.2470703 5917.24609375 l 1
 11237.5878906 5758.64257812 l 1
 11162.7753906 5471.36230469 10926.3671875 5597.046875 10833.5996094 5713.75585938 c 1
10932.3525391 6372.10644531 m 1
 10884.4726562 6321.23339844 l 1
 10914.3984375 6144.67480469 10896.4423828 6117.74316406 10878.4873047 6099.78710938 c 1
 10761.7792969 6186.5703125 l 1
 10645.0732422 6144.67480469 l 1
 10591.2080078 6291.30859375 10674.9970703 6518.73730469 10932.3525391 6372.10644531 c 1
11061.0292969 6443.92480469 m 1
 10902.4277344 6671.35644531 10405.6728516 6548.66210938 10504.4248047 6126.71972656 c 1
 10351.8066406 6069.86230469 l 1
 10342.8291016 6114.74902344 l 1
 9424.13378906 6168.61621094 l 1
 9241.58886719 6261.3828125 9050.07128906 6351.15722656 8867.52636719 6437.94042969 c 1
 8212.16992188 6222.48144531 l 1
 8212.16992188 6222.48144531 2472.5546875 3116.26660156 2412.70410156 3086.34179688 c 1
 2406.72070312 2969.6328125 2394.75 2888.83496094 2388.76367188 2772.12792969 c 0
 2352.85546875 2317.26757812 2334.90039062 2104.79980469 2463.57617188 2104.79980469 c 1
 2682.02929688 2026.99609375 l 1
 2691.00878906 1898.31835938 l 1
 2328.91503906 1775.62597656 l 1
 2328.91503906 1775.62597656 1242.63671875 1192.08789062 1230.66796875 1186.10351562 c 2
 1293.51074219 192.59375 l 1
 300 -328.102539062 l 1
 311.970703125 -549.545898438 317.954101562 -785.954101562 335.91015625 -1001.41503906 c 1
 790.770507812 -1444.3046875 l 1
 937.401367188 -1396.42480469 1084.03515625 -1345.55175781 1230.66796875 -1303.65625 c 1
 1230.66796875 -1303.65625 1829.16796875 -965.50390625 1909.96386719 -923.608398438 c 1
 2301.98242188 -1345.55175781 l 1
 2266.07324219 -1309.64160156 2439.63671875 -1456.27539062 2451.60742188 -1450.29003906 c 2
 3442.125 -1112.13769531 l 1
 4486.50878906 -561.516601562 l 2
 5043.11230469 -375.982421875 l 2
 5189.74414062 -286.206054688 l 1
 6359.8125 108.803710938 l 1
 6335.87207031 102.818359375 9235.60351562 1640.96289062 9235.60351562 1652.93359375 c 0
 9259.54492188 1745.70019531 9289.47070312 1835.47460938 9313.41015625 1928.24316406 c 1
 9295.45410156 2080.859375 l 1
 9528.86914062 2149.68847656 l 1
 9528.86914062 2149.68847656 9528.86914062 2152.68066406 10627.1171875 2766.14257812 c 1
 10615.1484375 3152.17480469 l 1
 11177.7373047 3274.86816406 11393.1982422 3565.14160156 11043.0742188 4091.8203125 c 1
 10698.9375 5315.75292969 l 1
 10698.9375 5315.75292969 10582.2285156 5570.11621094 10558.2900391 5629.96679688 c 1
 10692.9511719 5677.84472656 l 1
 10740.8330078 5567.12304688 11061.0292969 5336.70019531 11324.3691406 5623.98144531 c 1
 11381.2275391 4893.81054688 l 2
 11393.1982422 4747.17871094 11456.0400391 4660.39550781 11509.9042969 4600.54589844 c 1
 15358.2607422 2413.02929688 15358.2607422 2407.04394531 15364.2441406 2407.04394531 c 0
 15439.0566406 2407.04394531 15591.6748047 2481.85644531 15621.5996094 2670.3828125 c 1
 15436.0644531 4771.11816406 l 2
 15418.1103516 4893.81054688 15382.1992188 5004.53222656 15283.4482422 5091.31542969 c 1
 15313.3720703 5067.37402344 11482.9726562 7239.93066406 11471.0019531 7239.93066406 c 0
 11354.2949219 7257.88574219 11213.6484375 7078.33496094 11213.6484375 7003.52246094 c 1
 11213.6484375 7003.52246094 11252.5498047 6530.70800781 11258.5351562 6425.96972656 c 1
 11210.6542969 6437.94042969 11159.7832031 6467.86621094 11117.8867188 6473.84960938 c 1
 11061.0292969 6443.92480469 l 1
4465.55957031 -549.545898438 m 1
 4504.46289062 -408.900390625 l 2
 4393.74023438 934.733398438 l 2
 4393.74023438 940.71875 3400.23046875 1994.07910156 3319.43359375 2080.859375 c 1
 2702.97753906 1877.37109375 l 1
 2696.9921875 1904.30371094 l 1
 3319.43359375 2104.79980469 l 2
 3331.40136719 2104.79980469 4411.69628906 946.704101562 4411.69628906 952.688476562 c 1
 4411.69628906 952.688476562 4528.40136719 -405.90625 4528.40136719 -399.920898438 c 1
 4492.4921875 -555.53125 l 1
 4465.55957031 -549.545898438 l 1
4510.44824219 -393.936523438 m 1
 4522.41601562 -420.869140625 l 1
 4803.71289062 -316.131835938 l 1
 4773.78710938 162.668945312 4734.88574219 632.491210938 4698.97460938 1111.29101562 c 1
 4698.97460938 1105.30566406 3726.41210938 2140.70996094 3651.59960938 2221.5078125 c 1
 3693.49609375 2386.09472656 l 2
 3699.48046875 2392.08007812 4722.91503906 2927.73730469 4722.91503906 2927.73730469 c 1
 4716.9296875 2921.75292969 4908.44921875 3292.82324219 4908.44921875 3292.82324219 c 2
 4908.44921875 3298.80859375 7796.21289062 4789.07324219 7796.21289062 4789.07324219 c 1
 7781.25 4813.01269531 l 1
 4896.47851562 3313.77050781 l 1
 4896.47851562 3313.77050781 4704.9609375 2939.70800781 4704.9609375 2933.72265625 c 2
 3687.51074219 2407.04394531 l 1
 3687.51074219 2407.04394531 3633.64550781 2221.5078125 3633.64550781 2209.53710938 c 2
 3633.64550781 2209.53710938 4681.02050781 1105.30566406 4681.02050781 1099.3203125 c 2
 4779.7734375 -304.162109375 l 1
 4510.44824219 -393.936523438 l 1
EndSplineSet
Validated: 37
EndChar

StartChar: D
Encoding: 68 68 30
Width: 14424
Flags: HW
LayerCount: 2
Fore
SplineSet
7000.5 2408.875 m 1
 7052.25 2246.875 7104 2087.125 7155.75 1920.625 c 1
 6496.5 1067.875 l 2
 6487.5 1067.875 5828.25 1067.875 5625.75 1067.875 c 1
 5193.75 1758.625 l 1
 5409.75 2408.875 l 1
 7000.5 2408.875 l 1
8442.75 1587.625 m 1
 8350.5 2084.875 l 1
 8395.5 2190.625 8454 2298.625 8505.75 2404.375 c 0
 8510.25 2408.875 8510.25 2408.875 8800.5 2408.875 c 1
 8764.5 2132.125 l 1
 8805 1891.375 l 1
 9018.75 1702.375 l 1
 9063.75 1702.375 l 1
 8971.5 1877.875 l 2
 8971.5 1877.875 8971.5 1920.625 8962.5 2141.125 c 1
 8994 2233.375 9036.75 2316.625 9068.25 2408.875 c 1
 9846.75 2408.875 l 1
 9828.75 1587.625 l 1
 8442.75 1587.625 l 1
8483.25 6440.875 m 1
 8483.25 5905.375 l 1
 8451.75 5882.875 8413.5 5853.625 8386.5 5826.625 c 1
 8350.5 5675.875 l 1
 7898.25 5675.875 l 1
 7898.25 5421.625 l 1
 7581 5421.625 l 1
 7581 4978.375 l 1
 1897.5 4978.375 l 1
 828.75 4040.125 l 1
 657.75 4040.125 489 4040.125 318 4040.125 c 1
 318 1169.125 l 2
 318 1169.125 313.5 1063.375 300 694.375 c 1
 4239.75 638.125 l 1
 4314 932.875 4372.5 1155.625 4372.5 1155.625 c 2
 4368 2651.875 l 1
 4390.5 2665.375 l 1
 4395 2186.125 4392.75 1693.375 4401.75 1214.125 c 1
 5058.75 491.875 l 1
 5058.75 -702.875 l 1
 6764.25 -702.875 l 1
 7754.25 748.375 l 1
 7851 775.375 7943.25 804.625 8035.5 836.125 c 1
 8523.75 1504.375 l 1
 10562.25 1504.375 l 1
 10562.25 1376.125 l 1
 10368.75 1288.375 l 1
 10368.75 473.875 10364.25 -358.625 10373.25 -1168.625 c 1
 10413.75 -1204.625 10452 -1251.875 10497 -1287.875 c 1
 10796.25 -1287.875 11104.5 -1287.875 11394.75 -1283.375 c 1
 11520.75 -1159.625 l 1
 11520.75 1283.875 l 1
 11322.75 1380.625 l 1
 11322.75 1490.875 l 1
 11399.25 1490.875 l 1
 11399.25 2102.875 l 1
 11860.5 2102.875 l 1
 12317.25 1256.875 l 1
 12542.25 1256.875 l 1
 12542.25 2928.625 l 1
 14124 2928.625 l 1
 14124 3637.375 l 1
 12542.25 3637.375 l 1
 12542.25 3637.375 12542.25 4172.875 12542.25 4177.375 c 2
 12256.5 4901.875 l 1
 12256.5 5509.375 l 1
 12067.5 5531.875 l 1
 11925.75 4951.375 l 1
 11786.25 4827.625 l 1
 11786.25 5342.875 l 1
 11464.5 5342.875 l 1
 11464.5 5417.125 l 1
 10998.75 5417.125 l 1
 10998.75 5680.375 l 1
 10528.5 5680.375 l 1
 10528.5 5831.125 l 1
 10492.5 5853.625 10463.25 5887.375 10422.75 5909.875 c 1
 9498 5909.875 l 1
 9192 6440.875 l 2
 9187.5 6440.875 8492.25 6440.875 8483.25 6440.875 c 1
EndSplineSet
Validated: 41
EndChar

StartChar: E
Encoding: 69 69 31
Width: 17880
Flags: HW
LayerCount: 2
Fore
SplineSet
5533.5 1040.125 m 1
 5110.5 1717.375 l 1
 5308.5 2354.125 l 2
 5317.5 2354.125 5322 2354.125 6888 2354.125 c 1
 7041 1879.375 l 1
 6386.25 1040.125 l 1
 5533.5 1040.125 l 1
8294.25 1541.875 m 1
 8206.5 2030.125 8206.5 2034.625 8206.5 2034.625 c 1
 8355 2349.625 l 2
 8359.5 2354.125 8364 2358.625 8654.25 2358.625 c 1
 8654.25 2349.625 8616 2104.375 8616 2090.875 c 2
 8616 2090.875 8658.75 1845.625 8658.75 1841.125 c 2
 8658.75 1841.125 8856.75 1661.125 8865.75 1656.625 c 2
 8906.25 1656.625 l 1
 8879.25 1708.375 8805 1841.125 8805 1841.125 c 0
 8805 1845.625 8805 2095.375 8805 2090.875 c 1
 8906.25 2349.625 l 2
 8915.25 2354.125 9522.75 2358.625 9675.75 2358.625 c 1
 9675.75 2345.125 9657.75 1661.125 9657.75 1541.875 c 1
 8294.25 1541.875 l 1
8805 1841.125 m 1
 8805 1841.125 l 1
9041.25 6320.875 m 1
 8337 6320.875 l 1
 8337 5785.375 l 1
 8244.75 5722.375 l 1
 8244.75 5722.375 8220 5600.875 8211 5564.875 c 2
 7761 5564.875 l 1
 7761 5310.625 l 1
 7450.5 5310.625 l 1
 7450.5 4874.125 l 1
 1870.5 4874.125 l 1
 1875 4874.125 824.25 3947.125 824.25 3947.125 c 2
 806.25 3947.125 336 3947.125 331.5 3947.125 c 0
 331.5 3029.125 331.5 2115.625 331.5 1197.625 c 0
 331.5 1197.625 300 680.125 300 675.625 c 1
 2055 653.125 4147.5 626.125 4183.5 626.125 c 0
 4224 792.625 4269 956.875 4309.5 1127.875 c 1
 4309.5 1123.375 4309.5 2486.875 4309.5 2592.625 c 2
 4332 2606.125 l 1
 4332 1177.375 l 1
 4332 1186.375 4966.5 491.125 4966.5 491.125 c 2
 4971 477.625 4966.5 -701.375 4966.5 -705.875 c 2
 6649.5 -705.875 l 1
 6971.25 -226.625 7295.25 248.125 7621.5 722.875 c 0
 7626 727.375 7907.25 815.125 7907.25 815.125 c 1
 7902.75 810.625 8332.5 1397.875 8377.5 1463.125 c 2
 10373.25 1458.625 l 1
 10373.25 1348.375 l 1
 10188.75 1265.125 l 1
 10188.75 459.625 10193.25 -343.625 10193.25 -1149.125 c 1
 10312.5 -1263.875 l 1
 10312.5 -1263.875 11174.25 -1263.875 11196.75 -1263.875 c 1
 11196.75 -1259.375 11307 -1149.125 11307 -1149.125 c 1
 11307 1256.125 l 1
 11124.75 1348.375 l 1
 11124.75 1445.125 l 1
 11205.75 1445.125 l 1
 11205.75 2048.125 l 1
 11644.5 2048.125 l 1
 12092.25 1229.125 l 1
 12321.75 1229.125 l 1
 12321.75 2957.125 l 1
 12465.75 2957.125 l 1
 12672.75 2671.375 l 1
 14268 2671.375 15831.75 2671.375 17418 2671.375 c 1
 17580 2732.125 l 2
 17580 3704.125 l 2
 17523.75 3722.125 17465.25 3744.625 17409 3767.125 c 2
 12672.75 3767.125 l 1
 12465.75 3472.375 l 1
 12317.25 3472.375 l 1
 12317.25 3674.875 12317.25 3884.125 12317.25 4086.625 c 1
 12317.25 4082.125 12036 4786.375 12036 4786.375 c 2
 12036 4799.875 12045 5402.875 12045 5407.375 c 0
 12018 5407.375 12018 5409.625 11851.5 5423.125 c 1
 11806.5 5234.125 11754.75 5045.125 11709.75 4856.125 c 0
 11709.75 4851.625 11615.25 4770.625 11574.75 4734.625 c 1
 11574.75 5238.625 l 1
 11266.5 5238.625 l 1
 11266.5 5306.125 l 1
 10814.25 5306.125 l 1
 10814.25 5569.375 l 1
 10348.5 5569.375 l 2
 10344 5621.125 10357.5 5681.875 10344 5722.375 c 2
 10238.25 5789.875 l 1
 10242.75 5789.875 9423.75 5789.875 9336 5789.875 c 2
 9041.25 6320.875 l 1
17418 2671.375 m 1
 17418 2671.375 l 1
11196.75 -1263.875 m 1
 11196.75 -1263.875 l 1
10312.5 -1263.875 m 1
 10312.5 -1263.875 l 1
10193.25 -1149.125 m 1
 10193.25 -1149.125 l 1
8244.75 5722.375 m 1
 8244.75 5722.375 l 1
EndSplineSet
Validated: 37
EndChar

StartChar: F
Encoding: 70 70 32
Width: 29492
InSpiro: 1
Flags: HW
LayerCount: 2
Fore
SplineSet
10417.4287109 1882.703125 m 1
 10422.1318359 1882.703125 10880.625 1878.00195312 10908.8398438 1878.00195312 c 1
 10826.5458984 1569.98730469 10826.5458984 1569.98730469 10826.5458984 1569.98730469 c 0
 10894.7333984 1381.88769531 10965.2705078 1196.13867188 11033.4570312 1008.0390625 c 1
 10748.9550781 1008.0390625 l 1
 10426.8330078 1191.43652344 l 2
 10417.4287109 1205.54394531 10417.4287109 1828.625 10417.4287109 1882.703125 c 1
  Spiro
    10417.4 1882.7 v
    10540.5 1881.48 o
    10770.2 1879.22 o
    10908.8 1878 v
    10826.5 1569.99 [
    10895.3 1382.68 o
    10964.7 1195.34 o
    11033.4 1008.04 v
    10749 1008.04 v
    10426.8 1191.44 ]
    10420.2 1364.61 o
    10417.8 1682.9 o
    0 0 z
  EndSpiro
11143.9648438 1003.3359375 m 0
 11061.6708984 1558.23144531 11056.96875 1555.87988281 11056.96875 1555.87988281 c 1
 11190.9892578 1873.29882812 l 2
 11205.0976562 1882.703125 12169.1103516 1899.16210938 12178.5146484 1899.16210938 c 0
 12213.7832031 1555.87988281 l 1
 11898.7158203 1012.74121094 l 2
 11884.6083984 1003.3359375 11186.2880859 1003.3359375 11143.9648438 1003.3359375 c 0
  Spiro
    11144 1003.34 o
    11084.9 1392.97 o
    11061.2 1536 o
    11057 1555.88 v
    11191 1873.3 ]
    11450.8 1884.18 o
    11921.9 1894.55 o
    12178.5 1899.16 ]
    12213.8 1555.88 v
    11898.7 1012.74 ]
    11706.5 1006.13 o
    11355 1003.68 o
    0 0 z
  EndSpiro
12747.5175781 4412.6484375 m 1
 12702.84375 5085.10644531 l 1
 12707.5458984 5085.10644531 15834.7080078 5080.40332031 15862.9238281 5080.40332031 c 1
 15804.1425781 4412.6484375 l 1
 12747.5175781 4412.6484375 l 1
  Spiro
    12747.5 4412.65 v
    12702.9 5085.11 v
    13516.5 5083.88 o
    15033.6 5081.63 o
    15863 5080.4 v
    15804.1 4412.65 v
    0 0 z
  EndSpiro
16170.9375 6053.82128906 m 0
 15839.359375 6053.82128906 l 0
 15827.6552734 6013.00390625 l 0
 15786.0644531 6004.52832031 l 0
 15761.8203125 5980.93261719 l 0
 15761.8203125 5924.50292969 l 0
 15324.4873047 5924.50292969 l 0
 15319.7851562 6049.11914062 l 0
 15339.1171875 6073.56152344 l 0
 15370.9902344 6110.10449219 l 0
 15390.3222656 6131.41210938 l 0
 15388.2324219 6175.91894531 l 0
 15389.2773438 6271.89160156 l 0
 15390.3222656 6361.83496094 l 0
 14581.4921875 6361.83496094 l 0
 14582.7460938 6279.0078125 l 0
 14584.9414062 6195.4296875 l 0
 14586.1953125 6112.60253906 l 0
 14605.9453125 6097.37695312 l 0
 14637.8183594 6069.046875 l 0
 14654.3291016 6053.82128906 l 0
 14654.3291016 5924.50292969 l 0
 12794.5429688 5924.50292969 l 0
 12724.0048828 6053.82128906 l 0
 12394.8300781 6053.82128906 l 0
 12380.4091797 6007.24511719 l 0
 12338.7138672 5993.0234375 l 0
 12314.8876953 5924.50292969 l 0
 11346.1728516 5924.50292969 l 0
 11160.8935547 5974.390625 l 0
 10820.5371094 6067.41699219 l 0
 10638.3935547 6117.3046875 l 0
 7381.96484375 6117.3046875 l 0
 7381.96484375 4864.08886719 l 0
 10643.2011719 4864.08886719 l 0
 10816.8798828 4911.55273438 l 0
 11145.7412109 5000.02246094 l 0
 11322.6601562 5047.48632812 l 0
 12376.0195312 5047.48632812 l 0
 12376.0195312 4257.46582031 l 0
 7802.83886719 4257.46582031 l 0
 7802.83886719 4417.3515625 l 0
 7699.91699219 4415.95117188 l 0
 7597.74707031 4415.61621094 l 0
 7504.23046875 4407.94628906 l 0
 7316.12988281 4170.46972656 l 0
 713.8203125 4170.46972656 l 0
 713.8203125 4715.95996094 l 0
 605.669921875 4714.73730469 l 0
 408.150390625 4712.48046875 l 0
 300 4711.2578125 l 0
 300 -912.932617188 l 0
 718.522460938 -912.932617188 l 0
 718.522460938 -696.6171875 l 0
 2413.7734375 -696.6171875 l 0
 2413.7734375 328.52734375 l 0
 4179.5625 1398.34667969 l 0
 4235.9921875 1399.56933594 l 0
 4343.39746094 1401.82617188 l 0
 4435.84863281 1403.04882812 l 0
 4435.84863281 290.907226562 l 0
 7026.92578125 290.907226562 l 0
 7026.92578125 1407.75097656 l 0
 7142.13769531 1407.75097656 l 0
 7142.13769531 2129.58496094 l 0
 8726.87988281 2129.58496094 l 0
 8962.00488281 1849.78613281 l 0
 8792.71484375 1266.67578125 l 0
 8708.47753906 1158.70703125 l 0
 8556.3984375 962.4140625 l 0
 8475.29589844 857.55859375 l 0
 8389.49121094 787.319335938 l 0
 8229.57519531 661.338867188 l 0
 8143.76953125 594.21875 l 0
 8033.88867188 379.063476562 l 0
 7824.15722656 -26.8857421875 l 0
 7711.13964844 -245.177734375 l 0
 7700.79492188 -486.936523438 l 0
 7681.51464844 -947.84765625 l 0
 7671.16894531 -1211.54101562 l 0
 7719.51074219 -1255.52539062 l 0
 7804.65722656 -1338.41503906 l 0
 7849.86328125 -1385.53417969 l 0
 8321.74414062 -1398.65917969 l 0
 9202.56445312 -1428.0546875 l 0
 9693.24414062 -1444.31542969 l 0
 9748.61816406 -1394.40625 l 0
 9851.83300781 -1307.68164062 l 0
 9907.20703125 -1251.51269531 l 0
 9902.50488281 -311.012695312 l 0
 9930.40625 -80.3818359375 l 0
 9985.11230469 371.4609375 l 0
 10022.4189453 678.86328125 l 0
 10716.0371094 866.963867188 l 0
 11044.7949219 874.879882812 l 0
 11655.3876953 889.614257812 l 0
 11990.4150391 897.530273438 l 0
 12116.7558594 1118.328125 l 0
 12244.9765625 1339.78417969 l 0
 12371.3173828 1560.58203125 l 0
 12388.9775391 1641.85253906 l 0
 12421.8955078 1798.29882812 l 0
 12439.5556641 1882.70410156 l 0
 12454.9179688 1913.29101562 l 0
 12506.4355469 2065.47460938 l 0
 12601.7402344 2442.30078125 l 0
 15688.8789062 2447.00390625 l 0
 15698.8066406 2438.14257812 l 0
 15764.6416016 2375.83886719 l 0
 15940.5146484 2207.17578125 l 0
 16030.2802734 2288.78027344 l 0
 16118.7919922 2370.10253906 l 0
 16208.5576172 2451.70605469 l 0
 16226.9492188 2455.54101562 l 0
 16236.4589844 2441.58007812 l 0
 16239.1757812 2399.97851562 l 0
 22860.2958984 2399.97851562 l 0
 22839.0820312 2378.81738281 l 0
 22843.1582031 2307.87207031 l 0
 22840.4414062 2173.87207031 l 0
 22850.890625 2096.66796875 l 0
 22887.8837891 2053.35253906 l 0
 22894.5722656 1997.35058594 l 0
 22947.2402344 1969.70019531 l 0
 22947.2402344 1835.67871094 l 0
 22787.3554688 1793.35644531 l 0
 23187.0673828 627.13671875 l 0
 23355.7304688 725.528320312 l 0
 23525.4384766 821.083007812 l 0
 23697.3408203 916.33984375 l 0
 23716.8828125 961.891601562 l 0
 23756.90625 1055.77441406 l 0
 23788.9873047 1132.65527344 l 0
 28075.2636719 1132.65527344 l 0
 28141.0986328 972.76953125 l 0
 28141.0986328 791.723632812 l 0
 28282.1738281 791.723632812 l 0
 28281.0244141 852.71484375 l 0
 28278.7255859 911.778320312 l 0
 28277.5761719 972.76953125 l 0
 28288.4443359 986.595703125 l 0
 28305.7910156 1005.18554688 l 0
 28319.7939453 1022.14648438 l 0
 28618.4550781 958.662109375 l 0
 28651.4765625 930.055664062 l 0
 28705.2949219 879.895507812 l 0
 28738.4208984 848.153320312 l 0
 28777.7128906 852.68359375 l 0
 28852.6396484 856.1640625 l 0
 28898.3056641 857.55859375 l 0
 28972.2919922 942.140625 l 0
 29111.9042969 1096.66503906 l 0
 29192.1601562 1184.3828125 l 0
 29188.9208984 1316.34472656 l 0
 29187.5615234 1564.9921875 l 0
 29187.4570312 1706.36035156 l 0
 29114.9345703 1773.82519531 l 0
 28981.8017578 1902.24511719 l 0
 28902.9042969 1979.10546875 l 0
 28858.9091797 1976.83691406 l 0
 28779.2802734 1979.8046875 l 0
 28729.015625 1974.40234375 l 0
 28618.4550781 1835.67871094 l 0
 28547.8134766 1820.453125 l 0
 28415.6201172 1795.2578125 l 0
 28315.1962891 1776.89746094 l 0
 28237.5527344 1854.48828125 l 0
 28211.3232422 1852.92089844 l 0
 28165.7607422 1854.48828125 l 0
 28136.5009766 1840.38085938 l 0
 28080.0712891 1671.09082031 l 0
 26490.6259766 1671.09082031 l 0
 26490.6259766 1845.08398438 l 0
 26321.3359375 1845.08398438 l 0
 26321.3359375 1671.09082031 l 0
 24028.8154297 1671.09082031 l 0
 24073.5410156 1776.89746094 l 0
 23904.2509766 1835.67871094 l 0
 23904.2509766 1969.70019531 l 0
 25089.28125 1969.70019531 l 0
 25089.28125 2080.20898438 l 0
 25101.8212891 2083.59472656 l 0
 25114.3613281 2088.57910156 l 0
 25117.4960938 2101.37011719 l 0
 25117.4960938 2442.30078125 l 0
 25089.28125 2442.30078125 l 0
 25089.28125 2938.41503906 l 0
 28127.0957031 2938.41503906 l 0
 28127.0957031 3295.8046875 l 0
 26105.0214844 3295.8046875 l 0
 26105.0214844 3371.04492188 l 0
 28131.6943359 3371.04492188 l 0
 28131.6943359 3617.92578125 l 0
 25089.28125 3617.92578125 l 0
 24148.9902344 4008.875 l 0
 24127.5195312 4008.875 l 0
 24127.5195312 4100.78710938 l 0
 16199.1523438 4257.46582031 l 0
 16199.1523438 5056.89160156 l 0
 17562.8779297 5056.89160156 l 0
 18238.0517578 4907.1953125 l 0
 19491.3203125 4628.1796875 l 0
 20163.3603516 4478.48339844 l 0
 23683.1289062 4478.48339844 l 0
 23683.1289062 6512.31542969 l 0
 20104.6308594 6512.31542969 l 0
 17534.6621094 5924.50292969 l 0
 16248.5810547 5924.50292969 l 0
 16170.9375 6053.82128906 l 0
  Spiro
    16170.9 6053.82 v
    15839.4 6053.82 v
    15827.7 6013 o
    15786.1 6004.53 o
    15761.8 5980.93 [
    15761.8 5924.5 v
    15324.5 5924.5 v
    15319.8 6049.12 ]
    15339.1 6073.56 o
    15371 6110.1 o
    15390.3 6131.41 v
    15388.2 6175.92 o
    15389.3 6271.89 o
    15390.3 6361.83 v
    14581.5 6361.83 v
    14582.7 6279.01 o
    14584.9 6195.43 o
    14586.2 6112.6 v
    14605.9 6097.38 o
    14637.8 6069.05 o
    14654.3 6053.82 [
    14654.3 5924.5 v
    12794.5 5924.5 v
    12724 6053.82 v
    12394.8 6053.82 v
    12380.4 6007.25 o
    12338.7 5993.02 o
    12314.9 5924.5 v
    11346.2 5924.5 [
    11160.9 5974.39 o
    10820.5 6067.42 o
    10638.4 6117.31 v
    7381.97 6117.31 v
    7381.97 4864.09 v
    10643.2 4864.09 v
    10816.9 4911.55 o
    11145.7 5000.02 o
    11322.7 5047.49 [
    12376 5047.49 v
    12376 4257.47 v
    7802.84 4257.47 v
    7802.84 4417.35 v
    7699.92 4415.95 o
    7597.75 4415.62 o
    7504.23 4407.95 [
    7316.13 4170.47 v
    713.82 4170.47 v
    713.82 4715.96 v
    605.67 4714.74 o
    408.15 4712.48 o
    300 4711.26 v
    300 -912.933 v
    718.523 -912.933 v
    718.523 -696.618 v
    2413.77 -696.618 v
    2413.77 328.527 v
    4179.56 1398.35 ]
    4235.99 1399.57 o
    4343.4 1401.83 o
    4435.85 1403.05 [
    4435.85 290.907 v
    7026.93 290.907 v
    7026.93 1407.75 v
    7142.14 1407.75 v
    7142.14 2129.58 v
    8726.88 2129.58 v
    8962 1849.79 v
    8792.72 1266.68 ]
    8708.48 1158.71 o
    8556.4 962.414 o
    8475.3 857.559 v
    8389.49 787.319 o
    8229.57 661.339 o
    8143.77 594.219 v
    8033.89 379.064 o
    7824.16 -26.8859 o
    7711.14 -245.178 v
    7700.79 -486.936 o
    7681.51 -947.848 o
    7671.17 -1211.54 v
    7719.51 -1255.53 o
    7804.66 -1338.41 o
    7849.86 -1385.53 v
    8321.74 -1398.66 o
    9202.56 -1428.05 o
    9693.24 -1444.32 v
    9748.62 -1394.41 o
    9851.83 -1307.68 o
    9907.21 -1251.51 [
    9902.5 -311.013 ]
    9930.41 -80.3815 o
    9985.11 371.461 o
    10022.4 678.864 [
    10716 866.964 ]
    11044.8 874.88 o
    11655.4 889.614 o
    11990.4 897.53 o
    12116.8 1118.33 o
    12245 1339.78 o
    12371.3 1560.58 v
    12389 1641.85 o
    12421.9 1798.3 o
    12439.6 1882.7 v
    12454.9 1913.29 o
    12506.4 2065.47 o
    12601.7 2442.3 v
    15688.9 2447 ]
    15698.8 2438.14 o
    15764.6 2375.84 o
    15940.5 2207.18 o
    16030.3 2288.78 o
    16118.8 2370.1 o
    16208.6 2451.71 o
    16226.9 2455.54 o
    16236.5 2441.58 o
    16239.2 2399.98 v
    22860.3 2399.98 v
    22839.1 2378.82 v
    22843.2 2307.87 o
    22840.4 2173.87 o
    22850.9 2096.67 o
    22887.9 2053.35 o
    22894.6 1997.35 o
    22947.2 1969.7 v
    22947.2 1835.68 v
    22787.4 1793.36 v
    23187.1 627.136 v
    23355.7 725.528 o
    23525.4 821.083 o
    23697.3 916.34 v
    23716.9 961.892 o
    23756.9 1055.77 o
    23789 1132.65 [
    28075.3 1132.65 v
    28141.1 972.77 v
    28141.1 791.724 v
    28282.2 791.724 v
    28281 852.715 o
    28278.7 911.779 o
    28277.6 972.77 o
    28288.4 986.595 o
    28305.8 1005.19 o
    28319.8 1022.15 [
    28618.5 958.662 ]
    28651.5 930.056 o
    28705.3 879.896 o
    28738.4 848.154 v
    28777.7 852.684 o
    28852.6 856.164 o
    28898.3 857.559 v
    28972.3 942.141 o
    29111.9 1096.67 o
    29192.2 1184.38 v
    29188.9 1316.35 o
    29187.6 1564.99 o
    29187.5 1706.36 v
    29114.9 1773.83 o
    28981.8 1902.25 o
    28902.9 1979.1 v
    28858.9 1976.84 o
    28779.3 1979.81 o
    28729 1974.4 [
    28618.5 1835.68 ]
    28547.8 1820.45 o
    28415.6 1795.26 o
    28315.2 1776.9 [
    28237.6 1854.49 v
    28211.3 1852.92 o
    28165.8 1854.49 o
    28136.5 1840.38 [
    28080.1 1671.09 v
    26490.6 1671.09 v
    26490.6 1845.08 v
    26321.3 1845.08 v
    26321.3 1671.09 v
    24028.8 1671.09 v
    24073.5 1776.9 v
    23904.3 1835.68 v
    23904.3 1969.7 v
    25089.3 1969.7 v
    25089.3 2080.21 ]
    25101.8 2083.59 o
    25114.4 2088.58 o
    25117.5 2101.37 [
    25117.5 2442.3 v
    25089.3 2442.3 v
    25089.3 2938.41 v
    28127.1 2938.41 v
    28127.1 3295.8 v
    26105 3295.8 v
    26105 3371.05 v
    28131.7 3371.05 v
    28131.7 3617.93 v
    25089.3 3617.93 v
    24149 4008.87 v
    24127.5 4008.87 v
    24127.5 4100.79 v
    16199.2 4257.47 v
    16199.2 5056.89 v
    17562.9 5056.89 [
    18238.1 4907.19 o
    19491.3 4628.18 o
    20163.4 4478.48 v
    23683.1 4478.48 v
    23683.1 6512.32 v
    20104.6 6512.32 v
    17534.7 5924.5 v
    16248.6 5924.5 v
    0 0 z
  EndSpiro
10753.6582031 1008.0390625 m 1
 10753.6582031 1008.0390625 l 1
  Spiro
    10753.7 1008.04 v
    0 0 z
  EndSpiro
12213.7832031 1555.87988281 m 1
 12213.7832031 1555.87988281 l 1
  Spiro
    12213.8 1555.88 v
    0 0 z
  EndSpiro
28237.5517578 1854.48925781 m 1
 28237.5517578 1854.48925781 l 1
  Spiro
    28237.6 1854.49 v
    0 0 z
  EndSpiro
28902.9570312 1979.10449219 m 1
 28902.9570312 1979.10449219 l 1
  Spiro
    28902.9 1979.1 v
    0 0 z
  EndSpiro
29187.4580078 1706.359375 m 1
 29187.4580078 1706.359375 l 1
  Spiro
    29187.5 1706.36 v
    0 0 z
  EndSpiro
29192.1601562 1184.3828125 m 1
 29192.1601562 1184.3828125 l 1
  Spiro
    29192.2 1184.38 v
    0 0 z
  EndSpiro
28898.2539062 857.559570312 m 1
 28898.2539062 857.559570312 l 1
  Spiro
    28898.3 857.559 v
    0 0 z
  EndSpiro
28738.3691406 848.153320312 m 1
 28738.3691406 848.153320312 l 1
  Spiro
    28738.4 848.154 v
    0 0 z
  EndSpiro
23697.2890625 921.041992188 m 1
 23697.2890625 921.041992188 l 1
  Spiro
    23697.3 921.042 v
    0 0 z
  EndSpiro
22839.0830078 2378.81738281 m 1
 22839.0830078 2378.81738281 l 1
  Spiro
    22839.1 2378.82 v
    0 0 z
  EndSpiro
9693.24414062 -1444.31542969 m 1
 9693.24414062 -1444.31542969 l 1
  Spiro
    9693.24 -1444.32 v
    0 0 z
  EndSpiro
7854.56640625 -1385.53417969 m 1
 7854.56640625 -1385.53417969 l 1
  Spiro
    7854.57 -1385.53 v
    0 0 z
  EndSpiro
7671.16894531 -1211.54101562 m 1
 7671.16894531 -1211.54101562 l 1
  Spiro
    7671.17 -1211.54 v
    0 0 z
  EndSpiro
14586.1953125 6112.60253906 m 1
 14586.1953125 6112.60253906 l 1
  Spiro
    14586.2 6112.6 v
    0 0 z
  EndSpiro
15390.3222656 6131.41210938 m 1
 15390.3222656 6131.41210938 l 1
  Spiro
    15390.3 6131.41 v
    0 0 z
  EndSpiro
EndSplineSet
EndChar

StartChar: G
Encoding: 71 71 33
Width: 29419
Flags: HW
LayerCount: 2
Fore
SplineSet
10511.7490234 2370.42675781 m 2
 10568.0390625 2283.64746094 l 2
 10577.4208984 2274.265625 10577.4208984 2267.23046875 10174.0166016 1441.65917969 c 0
 10159.9433594 1441.65917969 9038.85546875 1490.91210938 8879.37207031 1495.60351562 c 2
 8879.37207031 1495.60351562 8884.06152344 1495.60351562 8701.12304688 2028.00195312 c 0
 8701.12304688 2037.3828125 8701.12304688 2039.72949219 8902.82519531 2379.80761719 c 0
 10507.0595703 2379.80761719 10507.0595703 2375.1171875 10511.7490234 2370.42675781 c 2
22693.6123047 3444.60644531 m 1
 22698.3027344 3444.60644531 27084.1474609 3444.60644531 27126.3652344 3444.60644531 c 1
 27126.3652344 3339.06445312 l 1
 27640.0009766 3339.06445312 l 1
 27640.0009766 3210.06933594 l 1
 22693.6123047 3210.06933594 l 1
 22693.6123047 3444.60644531 l 1
15050.0449219 4295.97753906 m 1
 27140.4365234 4300.66796875 l 1
 27140.4365234 4164.63574219 l 1
 15050.0449219 4164.63574219 l 1
 15050.0449219 4295.97753906 l 1
11030.0771484 4671.23632812 m 1
 10563.3476562 4671.23632812 l 1
 10563.3476562 5135.62011719 l 1
 10328.8105469 5135.62011719 10091.9287109 5130.92871094 9862.08203125 5130.92871094 c 1
 9862.08203125 5130.92871094 9449.296875 4856.51953125 9439.91503906 4837.7578125 c 2
 9439.91503906 4664.20019531 l 1
 9233.52246094 4664.20019531 9027.12988281 4664.20019531 8825.42773438 4664.20019531 c 1
 8830.11914062 4664.20019531 7849.75390625 4453.11621094 7849.75390625 4453.11621094 c 2
 7835.68164062 4453.11621094 6773.22753906 4324.12109375 6768.53710938 4324.12109375 c 2
 6768.53710938 4164.63574219 l 1
 6010.98242188 4164.63574219 l 1
 6010.98242188 4333.50292969 l 1
 534.537109375 4333.50292969 l 1
 534.537109375 4469.53515625 l 1
 300 4453.11621094 l 1
 300 1042.9453125 l 1
 520.466796875 1042.9453125 l 1
 520.466796875 1042.9453125 1606.37402344 1326.73632812 4728.06347656 2133.54394531 c 1
 4728.06347656 3085.76464844 l 1
 6015.67285156 3085.76464844 l 1
 6015.67285156 3339.06445312 l 1
 6740.39160156 3339.06445312 l 1
 6740.39160156 3165.5078125 6740.39160156 2994.29492188 6740.39160156 2820.73925781 c 1
 6740.39160156 2825.42871094 6876.42285156 2349.31835938 6895.1875 2335.24609375 c 2
 7422.89648438 2335.24609375 l 1
 7427.58691406 2182.796875 l 2
 7427.58691406 2173.41601562 5896.05761719 -157.883789062 5881.98535156 -176.6484375 c 1
 5813.96972656 -441.673828125 l 0
 5886.67773438 -479.201171875 5957.0390625 -523.76171875 6034.43457031 -561.288085938 c 1
 6034.43457031 -561.288085938 6034.43457031 -561.288085938 7293.90136719 -896.676757812 c 0
 7336.11621094 -781.751953125 7385.36914062 -666.830078125 7427.58691406 -551.907226562 c 0
 8403.25976562 1239.95703125 l 2
 8417.33300781 1249.33984375 8921.58789062 1303.28222656 8921.58789062 1303.28222656 c 2
 8921.58789062 1303.28222656 10333.5019531 1331.42675781 10352.2646484 1331.42675781 c 0
 10572.7294922 1446.35058594 l 1
 11780.5957031 2335.24609375 l 2
 11789.9775391 2339.93652344 14925.7402344 2335.24609375 14944.5029297 2349.31835938 c 2
 14977.3388672 2440.78808594 l 1
 17106.9355469 2440.78808594 l 1
 17106.9355469 2210.94140625 l 1
 22726.4482422 2210.94140625 l 1
 22726.4482422 2440.78808594 l 1
 27602.4746094 2440.78808594 l 1
 27602.4746094 2283.64746094 l 1
 28317.8134766 2283.64746094 l 1
 28317.8134766 2445.47851562 l 1
 28772.8164062 2445.47851562 l 1
 28772.8164062 3256.97753906 l 1
 28322.5048828 3256.97753906 l 1
 28322.5048828 3306.23046875 l 1
 28868.9755859 3306.23046875 l 1
 28868.9755859 3407.08203125 l 1
 29119.9316406 3407.08203125 l 1
 29119.9316406 4223.27050781 l 1
 28868.9755859 4223.27050781 l 1
 28868.9755859 4483.60742188 28894.7753906 3765.92285156 28894.7753906 4664.20019531 c 1
 28768.125 4664.20019531 l 1
 28768.125 4760.36132812 l 1
 28711.8359375 4760.36132812 l 1
 28711.8359375 4847.13964844 l 1
 28491.3710938 4847.13964844 28268.5605469 4842.44921875 28048.0957031 4842.44921875 c 1
 27874.5380859 4718.14453125 l 2
 27841.703125 4708.76367188 27393.7373047 4682.96386719 27360.9023438 4659.51074219 c 0
 27351.5205078 4654.81933594 16644.8984375 4732.21679688 15127.4423828 4732.21679688 c 1
 15127.4423828 4732.21679688 15103.9892578 5020.69628906 15089.9160156 5039.45898438 c 2
 14627.8779297 5194.25390625 l 1
 14632.5683594 5194.25390625 13743.6728516 5189.56445312 13743.6728516 5189.56445312 c 2
 13734.2910156 5189.56445312 13602.9501953 5281.03320312 13570.1152344 5304.48730469 c 2
 13570.1152344 6120.67675781 l 1
 12230.9082031 6120.67675781 l 1
 12230.9082031 5890.83007812 12230.9082031 5890.83007812 12202.7626953 5578.89550781 c 0
 12202.7626953 5574.20410156 12005.7519531 5135.62011719 12005.7519531 5135.62011719 c 1
 12005.7519531 5140.31152344 12005.7519531 4760.36132812 12005.7519531 4664.20019531 c 2
 11965.8808594 4664.20019531 l 1
 11961.1904297 4736.90722656 l 1
 11956.4990234 4732.21679688 11740.7255859 4929.22753906 11731.3427734 4938.60839844 c 1
 11731.3427734 4933.91894531 11245.8525391 4933.91894531 11245.8525391 4933.91894531 c 0
 11231.7783203 4938.60839844 11140.3105469 5020.69628906 11140.3105469 5020.69628906 c 2
 11135.6191406 5030.078125 11072.2939453 5184.87304688 11067.6025391 5203.63574219 c 1
 11062.9130859 5198.9453125 10983.1689453 5245.85351562 10978.4794922 5245.85351562 c 0
 10978.4794922 5245.85351562 10851.8291016 5241.16210938 10837.7578125 5236.47070312 c 2
 10746.2871094 5107.4765625 l 1
 10746.2871094 5107.4765625 10673.5810547 4879.97460938 10673.5810547 4861.2109375 c 2
 10760.3603516 4776.77832031 l 1
 10760.3603516 4781.46875 10971.4433594 4722.83496094 11030.0771484 4708.76367188 c 2
 11030.0771484 4671.23632812 l 1
27370.2841797 4671.23632812 m 1
 27370.2841797 4671.23632812 l 1
28048.0957031 4842.44921875 m 1
 28048.0957031 4842.44921875 l 1
10352.2646484 1331.42675781 m 1
 10352.2646484 1331.42675781 l 1
5881.98535156 -176.6484375 m 1
 5881.98535156 -176.6484375 l 1
9862.08203125 5130.92871094 m 1
 9862.08203125 5130.92871094 l 1
10760.3603516 4776.77832031 m 1
 10760.3603516 4776.77832031 l 1
10746.2871094 5107.4765625 m 1
 10746.2871094 5107.4765625 l 1
10978.4794922 5245.85351562 m 1
 10978.4794922 5245.85351562 l 1
11067.6025391 5203.63574219 m 1
 11067.6025391 5203.63574219 l 1
11731.3427734 4938.60839844 m 1
 11731.3427734 4938.60839844 l 1
11961.1904297 4736.90722656 m 1
 11961.1904297 4736.90722656 l 1
EndSplineSet
EndChar

StartChar: H
Encoding: 72 72 34
Width: 11544
Flags: HW
LayerCount: 2
Fore
SplineSet
6090.48730469 3433.01269531 m 1
 6287.13769531 3007.64941406 6287.13769531 3007.64941406 6287.13769531 3007.64941406 c 1
 6229.42480469 2749.01269531 6180.26269531 2501.0625 6122.54980469 2242.42480469 c 0
 6105.45019531 2242.42480469 4365.52441406 2218.91308594 4369.79980469 2218.91308594 c 1
 4185.97558594 2353.57519531 4006.42480469 2488.23730469 3822.60058594 2622.89941406 c 0
 3822.60058594 2622.89941406 3876.03808594 2879.39941406 3876.03808594 2875.125 c 1
 4230.86230469 3428.73730469 l 2
 4230.86230469 3433.01269531 4230.86230469 3428.73730469 4664.77441406 3428.73730469 c 1
 4630.57519531 3206.4375 4577.13769531 2885.8125 4577.13769531 2881.53808594 c 2
 4786.61230469 2315.10058594 l 1
 4996.08691406 2315.10058594 l 1
 4991.8125 2389.91308594 4961.88769531 2875.125 4961.88769531 2875.125 c 1
 4961.88769531 2875.125 5132.88769531 3428.73730469 5132.88769531 3433.01269531 c 2
 6090.48730469 3433.01269531 l 1
11244 4950.63769531 m 1
 11244 5380.27441406 l 1
 9256.125 5380.27441406 l 1
 9202.6875 5677.38769531 l 1
 8792.28808594 5709.45019531 l 1
 8674.72558594 5376 l 1
 2343.45019531 5376 l 1
 2242.98730469 5581.20019531 l 1
 2251.53808594 5576.92480469 1682.96191406 5668.83691406 1214.85058594 5743.64941406 c 1
 1206.29980469 5608.98730469 1197.75 5476.46191406 1189.20019531 5341.79980469 c 0
 834.375 4570.16308594 l 2
 550.086914062 4347.86230469 l 1
 550.086914062 4352.13769531 361.987304688 3518.51269531 366.262695312 3509.96191406 c 2
 1193.47558594 2973.45019531 l 2
 1197.75 2969.17480469 1362.33691406 2439.07519531 1362.33691406 2439.07519531 c 2
 1362.33691406 2434.79980469 1197.75 1864.08691406 1197.75 1864.08691406 c 2
 772.387695312 1173.67480469 l 1
 772.387695312 1173.67480469 304.274414062 -1034.36328125 300 -1055.73828125 c 1
 776.663085938 -1085.66308594 1253.32519531 -1117.72558594 1729.98730469 -1147.64941406 c 1
 1729.98730469 -1147.64941406 3115.08691406 -1128.41308594 3127.91308594 -1128.41308594 c 0
 3181.35058594 -510.67578125 3226.23730469 100.649414062 3279.67480469 718.387695312 c 0
 3279.67480469 718.387695312 3679.38769531 2037.22558594 3713.58691406 2150.51269531 c 1
 4401.86230469 2013.71191406 l 1
 4401.86230469 2013.71191406 6302.10058594 2043.63769531 6310.64941406 2047.91308594 c 2
 6661.20019531 3041.85058594 l 1
 9987.14941406 3033.29980469 l 1
 10955.4375 3428.73730469 l 1
 10951.1630859 3424.46191406 11244 4950.63769531 11244 4950.63769531 c 1
4461.71191406 5363.17480469 m 1
 4461.71191406 4950.63769531 l 1
 5964.375 4950.63769531 l 1
 5964.375 5363.17480469 l 1
 5981.47558594 5363.17480469 l 1
 5981.47558594 4933.53808594 l 1
 4444.61230469 4933.53808594 l 1
 4444.61230469 5363.17480469 l 1
 4461.71191406 5363.17480469 l 1
EndSplineSet
Validated: 37
EndChar

StartChar: I
Encoding: 73 73 35
Width: 20506
Flags: HW
LayerCount: 2
Fore
SplineSet
17489.8193359 4080.19433594 m 1
 17489.8193359 4080.19433594 18226.1083984 4080.19433594 18230.9697266 4080.19433594 c 1
 18230.9697266 4000.00488281 l 1
 17489.8193359 4000.00488281 l 1
 17489.8193359 4080.19433594 l 1
6311.81933594 4298.89550781 m 2
 5429.72949219 4298.89550781 l 1
 5429.72949219 4189.54589844 l 1
 4926.71972656 4189.54589844 l 1
 4926.71972656 4303.75488281 l 1
 3497.87988281 4303.75488281 2071.46972656 4303.75488281 642.629882812 4303.75488281 c 0
 637.76953125 4303.75488281 443.370117188 4417.96582031 433.649414062 4422.82519531 c 1
 300 4417.96582031 l 1
 300 3268.57519531 l 1
 300 3268.57519531 358.319335938 2704.81542969 572.159179688 700.065429688 c 1
 615.899414062 704.924804688 664.5 714.64453125 708.239257812 719.504882812 c 1
 698.51953125 714.64453125 1687.52929688 2014.69433594 1867.34863281 2247.97558594 c 1
 1838.18847656 1720.66503906 l 1
 2127.35839844 1944.22558594 2409.23925781 2172.64453125 2698.40917969 2396.20410156 c 0
 2708.12988281 2401.06542969 3454.13769531 2396.20410156 3672.83886719 2396.20410156 c 1
 3672.83886719 2456.95410156 l 1
 3828.35839844 2456.95410156 l 1
 3828.35839844 3122.77441406 l 1
 4921.85839844 3122.77441406 l 1
 4921.85839844 3263.71582031 l 1
 5803.95019531 3263.71582031 l 1
 5803.95019531 3263.71582031 5794.22949219 3227.26660156 5818.52929688 3232.125 c 2
 6022.64941406 3232.125 l 1
 6022.64941406 2741.26660156 l 1
 6093.12011719 2741.26660156 6166.01953125 2741.26660156 6236.48925781 2741.26660156 c 0
 6241.34863281 2741.26660156 6693.32910156 2522.56542969 6693.32910156 2522.56542969 c 2
 6703.04882812 2517.70410156 6809.96972656 2381.625 6819.68847656 2386.48339844 c 2
 6897.45019531 2391.34570312 l 1
 6824.54882812 1924.78417969 l 2
 6824.54882812 1919.92480469 5774.7890625 167.89453125 5765.06933594 153.315429688 c 1
 6226.76953125 9.9443359375 6690.89941406 -130.995117188 7152.59863281 -274.365234375 c 1
 7152.59863281 -269.504882812 7295.96972656 -216.045898438 7305.68847656 -211.184570312 c 1
 7300.82910156 -206.325195312 7342.13769531 -92.115234375 7332.42089844 -82.3955078125 c 2
 7210.92089844 73.125 l 1
 7978.79882812 1336.72558594 l 2
 7978.79882812 1336.72558594 7978.79882812 1368.31542969 7978.79882812 1387.75488281 c 2
 9475.67871094 1387.75488281 l 2
 9485.39941406 1373.17480469 9482.96972656 1341.58496094 9507.26953125 1341.58496094 c 2
 9735.68847656 1375.60449219 l 2
 9745.40917969 1356.16503906 9745.40917969 1351.30566406 9998.12988281 1407.19433594 c 1
 10039.4384766 984.375 l 1
 10348.0498047 -135.85546875 l 1
 10348.0498047 -135.85546875 10894.7998047 -1256.08496094 10899.6591797 -1265.80566406 c 2
 12501.0292969 -529.516601562 l 1
 12352.7998047 -220.904296875 12192.4208984 82.845703125 12044.1884766 391.454101562 c 0
 11781.75 1336.72558594 l 2
 11781.75 1336.72558594 11750.1591797 1669.63476562 11745.2998047 1740.10449219 c 0
 11784.1787109 1744.96582031 11905.6787109 1766.83496094 11905.6787109 1795.99511719 c 2
 11895.9599609 1868.89453125 l 1
 11895.9599609 1868.89453125 11835.2099609 1915.06542969 11815.7695312 1929.64453125 c 2
 11815.7695312 2799.58496094 l 1
 12053.9091797 2918.65429688 l 1
 12053.9091797 2964.82519531 l 1
 15414.5996094 2964.82519531 l 1
 15414.5996094 615.016601562 l 1
 16080.4199219 615.016601562 l 1
 16080.4199219 2969.68457031 l 1
 16862.8798828 2969.68457031 l 1
 16862.8798828 3620.92480469 l 1
 17195.7890625 3620.92480469 l 1
 17195.7890625 3535.875 l 1
 17514.1201172 3535.875 l 1
 17514.1201172 3620.92480469 l 1
 18199.3798828 3620.92480469 l 1
 18199.3798828 3526.15429688 l 1
 18525 3526.15429688 l 1
 18525 3620.92480469 l 1
 18938.0996094 3620.92480469 l 1
 18938.0996094 3531.01660156 l 1
 20206.5585938 3531.01660156 l 1
 20206.5585938 4075.33496094 l 1
 18938.0996094 4075.33496094 l 1
 18938.0996094 4029.16503906 l 1
 18529.8583984 4029.16503906 l 1
 18529.8583984 4080.19433594 l 1
 18493.4091797 4080.19433594 l 1
 18493.4091797 4252.72558594 l 1
 18260.1298828 4252.72558594 l 1
 18260.1298828 4366.93457031 l 1
 18763.1386719 4366.93457031 l 1
 19100.9091797 4566.19433594 l 1
 19100.9091797 4736.29589844 l 1
 17936.9384766 4736.29589844 l 1
 17936.9384766 4680.40429688 l 1
 17936.9384766 4680.40429688 17898.0585938 4694.98339844 17902.9199219 4670.68457031 c 2
 17902.9199219 4247.86523438 l 1
 17215.2285156 4247.86523438 l 1
 17215.2285156 4094.77441406 l 1
 17215.2285156 4094.77441406 17186.0693359 4099.63476562 17190.9287109 4080.19433594 c 2
 17190.9287109 4034.02441406 l 1
 16862.8798828 4034.02441406 l 1
 16862.8798828 4770.31542969 l 1
 12034.4697266 4770.31542969 l 1
 12034.4697266 4741.15429688 l 1
 10467.1201172 4741.15429688 l 1
 10467.1201172 5197.99511719 l 1
 10467.1201172 5197.99511719 10362.6298828 5302.48339844 10357.7695312 5302.48339844 c 1
 9512.12988281 5348.65429688 l 0
 9507.26953125 5353.51660156 9261.83886719 5562.49511719 9261.83886719 5562.49511719 c 2
 9261.83886719 5572.21582031 9256.97949219 5620.81542969 9256.97949219 5620.81542969 c 1
 9256.97949219 5620.81542969 9256.97949219 5625.67480469 9072.29882812 6332.80566406 c 1
 8202.35839844 6332.80566406 l 1
 8202.35839844 6148.125 8202.35839844 6150.55566406 8178.05859375 5781.19433594 c 0
 8178.05859375 5776.33496094 8022.5390625 5406.97558594 8022.5390625 5406.97558594 c 2
 8007.95996094 5397.25488281 7884.02929688 5363.23339844 7879.17089844 5363.23339844 c 0
 7874.30859375 5154.25488281 7864.58886719 4950.13476562 7859.72949219 4741.15429688 c 1
 7223.06933594 4741.15429688 l 1
 7223.06933594 4869.94433594 l 1
 7218.20996094 4869.94433594 7118.57910156 4969.57519531 7113.71972656 4974.43457031 c 1
 7113.71972656 4969.57519531 6620.42871094 4979.29589844 6620.42871094 4969.57519531 c 1
 6540.23925781 5044.90429688 l 1
 6540.23925781 5040.04589844 6190.31933594 5040.04589844 6175.73925781 5040.04589844 c 1
 6175.73925781 5040.04589844 6088.25878906 4945.27441406 6083.39941406 4940.41503906 c 1
 6088.25878906 4940.41503906 6088.25878906 4760.59570312 6088.25878906 4750.875 c 1
 6088.25878906 4750.875 6187.88769531 4656.10546875 6192.75 4651.24511719 c 1
 6192.75 4656.10546875 6409.01953125 4651.24511719 6464.90917969 4651.24511719 c 2
 6464.90917969 4556.47558594 l 2
 6464.90917969 4551.61523438 6336.12011719 4337.77441406 6311.81933594 4298.89550781 c 2
8615.45996094 2410.78417969 m 2
 9281.27929688 2410.78417969 l 1
 9286.13769531 2405.92480469 9546.14941406 2167.78417969 9546.14941406 2167.78417969 c 1
 9546.14941406 2162.92480469 9631.20019531 1883.47558594 9636.05859375 1883.47558594 c 1
 9631.20019531 1878.61523438 9546.14941406 1635.61523438 9546.14941406 1635.61523438 c 0
 9541.2890625 1574.86523438 9485.39941406 1550.56542969 9470.81933594 1516.54589844 c 0
 9470.81933594 1501.96582031 9475.67871094 1480.09570312 9475.67871094 1460.65429688 c 0
 9082.01953125 1460.65429688 8430.77929688 1465.51660156 8440.5 1460.65429688 c 1
 8216.93847656 1625.89453125 l 1
 8197.5 1674.49511719 8182.92089844 1725.52441406 8168.33886719 1774.125 c 1
 8600.87988281 1774.125 l 1
 8600.87988281 2401.06542969 l 2
 8600.87988281 2410.78417969 8605.73925781 2410.78417969 8615.45996094 2410.78417969 c 2
9281.27929688 2410.78417969 m 1
 9281.27929688 2410.78417969 l 1
9546.14941406 2167.78417969 m 1
 9546.14941406 2167.78417969 l 1
9636.05859375 1883.47558594 m 1
 9636.05859375 1883.47558594 l 1
9546.14941406 1611.31542969 m 1
 9546.14941406 1611.31542969 l 1
8216.93847656 1625.89453125 m 1
 8216.93847656 1625.89453125 l 1
10357.7695312 5302.48339844 m 1
 10357.7695312 5302.48339844 l 1
10467.1201172 5197.99511719 m 1
 10467.1201172 5197.99511719 l 1
11895.9599609 1868.89453125 m 1
 11895.9599609 1868.89453125 l 1
11844.9287109 1754.68457031 m 1
 11844.9287109 1754.68457031 l 1
7978.79882812 1336.72558594 m 1
 7978.79882812 1336.72558594 l 1
7305.68847656 -211.184570312 m 1
 7305.68847656 -211.184570312 l 1
7152.59863281 -274.365234375 m 1
 7152.59863281 -274.365234375 l 1
433.649414062 4422.82519531 m 1
 433.649414062 4422.82519531 l 1
6192.75 4651.24511719 m 1
 6192.75 4651.24511719 l 1
6088.25878906 4750.875 m 1
 6088.25878906 4750.875 l 1
6083.39941406 4940.41503906 m 1
 6083.39941406 4940.41503906 l 1
6175.73925781 5040.04589844 m 1
 6175.73925781 5040.04589844 l 1
6540.23925781 5044.90429688 m 1
 6540.23925781 5044.90429688 l 1
7113.71972656 4974.43457031 m 1
 7113.71972656 4974.43457031 l 1
7223.06933594 4869.94433594 m 1
 7223.06933594 4869.94433594 l 1
EndSplineSet
Validated: 37
EndChar

StartChar: J
Encoding: 74 74 36
Width: 27084
Flags: HW
LayerCount: 2
Fore
SplineSet
24386.2050781 3704.49023438 m 1
 24390.9072266 3704.49023438 25195.0361328 3704.49023438 25204.4404297 3704.49023438 c 2
 25204.4404297 3608.08886719 l 1
 25204.4404297 3608.08886719 25204.4404297 3608.08886719 24405.015625 3608.08886719 c 0
 24386.2050781 3608.08886719 24386.2050781 3608.08886719 24386.2050781 3704.49023438 c 1
18458.7041016 3833.80957031 m 1
 21809.2353516 3833.80957031 l 1
 21809.2353516 3608.08886719 l 1
 18458.7041016 3608.08886719 l 1
 18458.7041016 3833.80957031 l 1
10189.3574219 4398.109375 m 1
 10088.2548828 4614.42480469 10088.2548828 4619.12597656 10074.1464844 4656.74707031 c 1
 10092.9560547 4656.74707031 10450.3466797 4656.74707031 10450.3466797 4656.74707031 c 1
 10450.3466797 4398.109375 l 1
 10189.3574219 4398.109375 l 1
10610.2314453 4661.44921875 m 1
 11042.8613281 4661.44921875 l 1
 10913.5429688 4402.8125 l 2
 10899.4355469 4393.40625 10664.3105469 4393.40625 10610.2314453 4393.40625 c 1
 10610.2314453 4661.44921875 l 1
9411.09375 1186.30175781 m 1
 9411.09375 1421.42675781 9411.09375 1658.90332031 9411.09375 1889.32519531 c 1
 9853.12988281 1889.32519531 10151.7373047 1884.62402344 10151.7373047 1889.32519531 c 1
 10161.1425781 1884.62402344 10450.3466797 1609.52636719 10450.3466797 1609.52636719 c 1
 10450.3466797 1604.82421875 10546.7480469 1301.51269531 10551.4501953 1301.51269531 c 1
 10546.7480469 1292.10742188 10440.9423828 984.09375 10440.9423828 988.796875 c 1
 10372.7558594 897.098632812 l 1
 10391.5654297 828.912109375 l 1
 10382.1611328 828.912109375 9237.10058594 833.614257812 9237.10058594 828.912109375 c 1
 9232.39941406 833.614257812 9001.97558594 1002.90527344 9001.97558594 1002.90527344 c 1
 8978.46386719 1066.38769531 8952.59960938 1122.81835938 8929.08789062 1186.30175781 c 1
 9411.09375 1186.30175781 l 1
10151.7373047 1889.32519531 m 1
 10151.7373047 1889.32519531 l 1
10450.3466797 1609.52636719 m 1
 10450.3466797 1609.52636719 l 1
10551.4501953 1301.51269531 m 1
 10551.4501953 1301.51269531 l 1
9241.8046875 828.912109375 m 1
 9241.8046875 828.912109375 l 1
9001.97558594 1002.90527344 m 1
 9001.97558594 1002.90527344 l 1
8475.296875 6067.49707031 m 0
 8461.18847656 6067.49707031 8451.78417969 6062.79394531 8456.48632812 6048.6875 c 2
 8456.48632812 4976.51757812 l 1
 8755.09472656 4976.51757812 9058.40625 4981.21875 9357.015625 4981.21875 c 1
 9357.015625 4985.921875 9415.796875 5047.0546875 9415.796875 5047.0546875 c 2
 9425.20117188 5051.75683594 9531.00683594 5047.0546875 9573.33007812 5047.0546875 c 1
 9554.51953125 4941.24902344 l 1
 9081.91894531 4941.24902344 l 1
 8990.21972656 4802.52441406 l 1
 8548.18554688 4802.52441406 l 1
 8548.18554688 4431.02636719 l 1
 7913.34863281 4431.02636719 l 1
 7908.64453125 4569.75 l 1
 7903.94335938 4569.75 7807.54199219 4666.15136719 7802.83886719 4670.85449219 c 1
 7802.83886719 4666.15136719 7262.05078125 4666.15136719 7262.05078125 4666.15136719 c 0
 7252.64648438 4670.85449219 7165.65039062 4753.1484375 7160.94824219 4757.85058594 c 1
 7160.94824219 4753.1484375 6780.04492188 4753.1484375 6761.23535156 4753.1484375 c 1
 6761.23535156 4748.4453125 6660.13085938 4647.34277344 6655.4296875 4642.63867188 c 1
 6660.13085938 4642.63867188 6660.13085938 4440.43164062 6660.13085938 4426.32421875 c 1
 6664.83398438 4426.32421875 6770.640625 4325.21972656 6775.34277344 4320.51855469 c 1
 6775.34277344 4325.21972656 7001.0625 4320.51855469 7069.24902344 4320.51855469 c 2
 7069.24902344 4224.1171875 l 2
 7069.24902344 4214.71191406 6925.82324219 3984.2890625 6897.60742188 3930.2109375 c 2
 5938.29785156 3930.2109375 l 1
 5938.29785156 3819.70117188 l 1
 5383.40234375 3819.70117188 l 1
 5383.40234375 3949.02050781 l 1
 3812.76757812 3949.02050781 2246.8359375 3944.31835938 676.200195312 3944.31835938 c 0
 666.794921875 3944.31835938 457.534179688 4071.28613281 448.129882812 4075.98828125 c 1
 300 4068.93457031 l 1
 300 2818.06933594 l 1
 300 2818.06933594 363.484375 2192.63671875 598.609375 -26.943359375 c 1
 645.633789062 -22.240234375 699.712890625 -3.4306640625 746.737304688 1.271484375 c 1
 737.33203125 -3.4306640625 1854.17578125 1466.10058594 2032.87109375 1696.5234375 c 1
 1976.44238281 1113.41308594 l 1
 2293.86035156 1353.24023438 2611.27929688 1600.12207031 2928.69824219 1844.65136719 c 1
 4012.62402344 1844.65136719 l 1
 4012.62402344 1917.54101562 l 1
 4179.5625 1917.54101562 l 1
 4179.5625 2658.18457031 l 1
 5373.99804688 2658.18457031 l 1
 5373.99804688 2813.3671875 l 1
 6352.11816406 2813.3671875 l 1
 6352.11816406 2813.3671875 6338.01074219 2754.5859375 6370.92773438 2763.99023438 c 2
 6582.54003906 2763.99023438 l 1
 6582.54003906 2206.74414062 l 1
 6664.83398438 2206.74414062 6747.12792969 2211.44726562 6834.12402344 2211.44726562 c 0
 6838.82617188 2211.44726562 7311.42773438 1990.4296875 7311.42773438 1990.4296875 c 2
 7316.13085938 1990.4296875 7450.15136719 1863.46191406 7459.55664062 1854.05664062 c 1
 7459.55664062 1854.05664062 7518.33789062 1854.05664062 7551.25585938 1854.05664062 c 1
 7464.25878906 1339.1328125 l 1
 6300.390625 -614.755859375 l 1
 6805.90917969 -774.640625 7311.42773438 -932.174804688 7816.94628906 -1087.35644531 c 1
 7816.94628906 -1087.35644531 7941.5625 -1042.68261719 7995.64160156 -1023.87402344 c 0
 8000.34375 -969.793945312 8009.74902344 -920.41796875 8014.45117188 -866.338867188 c 1
 8009.74902344 -866.338867188 7915.69921875 -739.372070312 7892.18652344 -706.455078125 c 2
 8740.98730469 699.59375 l 2
 8740.98730469 699.59375 8740.98730469 723.10546875 8740.98730469 741.916015625 c 2
 9246.50585938 741.916015625 l 1
 9246.50585938 751.3203125 l 1
 10368.0527344 751.3203125 l 1
 10368.0527344 751.3203125 10349.2431641 685.486328125 10386.8623047 699.59375 c 2
 10638.4462891 732.510742188 l 1
 10629.0419922 694.890625 10720.7402344 713.700195312 10955.8652344 777.184570312 c 1
 10984.0800781 313.98828125 l 1
 10984.0800781 318.690429688 11327.3623047 -927.471679688 11332.0654297 -936.875976562 c 1
 13203.6611328 -351.416015625 l 1
 13102.5566406 -5.78125 13006.1552734 349.256835938 12905.0507812 694.890625 c 0
 12905.0507812 699.59375 12876.8369141 1054.63183594 12867.4316406 1136.92578125 c 0
 12973.2373047 1155.73632812 13050.8291016 1181.59960938 13046.1259766 1205.11230469 c 2
 13032.0185547 1282.703125 l 1
 13027.3173828 1282.703125 12973.2373047 1325.02539062 12954.4277344 1339.1328125 c 2
 12954.4277344 2293.74023438 l 1
 13229.5244141 2481.84082031 l 2
 13238.9296875 2481.84082031 16627.0800781 2481.84082031 16906.8798828 2481.84082031 c 1
 16906.8798828 -104.534179688 l 1
 17640.46875 -104.534179688 l 1
 17640.46875 2481.84082031 l 1
 18496.3242188 2481.84082031 l 1
 18496.3242188 3189.56738281 l 1
 21776.3183594 3189.56738281 l 1
 21781.0195312 2966.19824219 l 1
 21781.0195312 2966.19824219 21886.8261719 2865.09375 21891.5292969 2860.39257812 c 1
 21891.5292969 2865.09375 22267.7294922 2860.39257812 22267.7294922 2860.39257812 c 1
 22267.7294922 3184.86425781 l 1
 24049.9755859 3184.86425781 l 1
 24049.9755859 3097.86816406 l 1
 24414.4199219 3097.86816406 l 1
 24414.4199219 3189.56738281 l 1
 25166.8193359 3189.56738281 l 1
 25166.8193359 3093.16601562 l 1
 25526.5615234 3093.16601562 l 1
 25526.5615234 3189.56738281 l 1
 26784.4804688 3189.56738281 l 1
 26784.4804688 3650.41210938 l 1
 25531.2636719 3650.41210938 l 1
 25531.2636719 3650.41210938 25550.0742188 3713.89550781 25512.4541016 3704.49023438 c 2
 25488.9423828 3704.49023438 l 1
 25488.9423828 3887.88769531 l 1
 25232.6552734 3887.88769531 l 1
 25232.6552734 4012.50488281 l 1
 25420.7558594 4012.50488281 25613.5576172 4012.50488281 25801.6572266 4012.50488281 c 0
 25930.9755859 4066.58300781 26057.9433594 4146.52539062 26159.0478516 4247.62988281 c 1
 26154.3447266 4247.62988281 26159.0478516 4374.59667969 26159.0478516 4416.91894531 c 1
 24872.9130859 4416.91894531 l 1
 24872.9130859 4416.91894531 24891.7246094 4348.73242188 24858.8066406 4358.13769531 c 0
 24844.6992188 4358.13769531 24832.9433594 4358.13769531 24837.6445312 4344.03125 c 2
 24837.6445312 3887.88769531 l 1
 24087.5966797 3887.88769531 l 1
 24087.5966797 3718.59863281 l 1
 24087.5966797 3718.59863281 24045.2744141 3723.30078125 24054.6796875 3699.78808594 c 2
 24054.6796875 3650.41210938 l 1
 22267.7294922 3650.41210938 l 1
 22267.7294922 3800.89257812 l 1
 22484.0439453 3800.89257812 l 1
 22484.0439453 4261.73730469 l 1
 22267.7294922 4261.73730469 l 1
 22267.7294922 4412.21777344 l 1
 21771.6152344 4412.21777344 l 1
 21771.6152344 4257.03417969 l 1
 18491.6210938 4257.03417969 l 1
 18491.6210938 4459.2421875 l 1
 13198.9570312 4459.2421875 l 1
 13198.9570312 4431.02636719 l 1
 12086.8173828 4431.02636719 l 1
 12086.8173828 4670.85449219 l 1
 11981.0107422 4670.85449219 l 1
 11981.0107422 4941.24902344 l 1
 12124.4365234 4936.54492188 12277.2675781 4927.140625 12420.6933594 4922.4375 c 1
 12479.4746094 5087.02539062 12472.421875 5091.72851562 12825.109375 6126.27832031 c 1
 10887.6796875 6053.38867188 l 1
 10887.6796875 6072.19921875 10892.3808594 6074.55078125 10748.9550781 6180.35644531 c 1
 10758.3603516 6180.35644531 9902.50585938 6180.35644531 9902.50585938 6180.35644531 c 1
 9766.13183594 6067.49707031 l 1
 9766.13183594 6067.49707031 9761.43066406 6025.17480469 9756.72753906 6001.66210938 c 2
 9434.60644531 5992.25683594 l 2
 9420.49902344 5996.95898438 9352.3125 6062.79394531 9352.3125 6067.49707031 c 1
 9352.3125 6062.79394531 8475.296875 6067.49707031 8475.296875 6067.49707031 c 0
10897.0839844 4941.24902344 m 1
 10897.0839844 4981.21875 l 1
 10897.0839844 4941.24902344 l 1
26159.0478516 4247.62988281 m 1
 26159.0478516 4247.62988281 l 1
21891.5292969 2860.39257812 m 1
 21891.5292969 2860.39257812 l 1
21781.0195312 2961.49511719 m 1
 21781.0195312 2961.49511719 l 1
13032.0185547 1282.703125 m 1
 13032.0185547 1282.703125 l 1
12963.8320312 1151.03222656 m 1
 12963.8320312 1151.03222656 l 1
8740.98730469 699.59375 m 1
 8740.98730469 699.59375 l 1
8014.45117188 -866.338867188 m 1
 8014.45117188 -866.338867188 l 1
7816.94628906 -1087.35644531 m 1
 7816.94628906 -1087.35644531 l 1
7459.55664062 1854.05664062 m 1
 7459.55664062 1854.05664062 l 1
443.42578125 4075.98828125 m 1
 443.42578125 4075.98828125 l 1
6775.34277344 4320.51855469 m 1
 6775.34277344 4320.51855469 l 1
6660.13085938 4426.32421875 m 1
 6660.13085938 4426.32421875 l 1
6655.4296875 4642.63867188 m 1
 6655.4296875 4642.63867188 l 1
6756.53222656 4753.1484375 m 1
 6756.53222656 4753.1484375 l 1
7160.94824219 4757.85058594 m 1
 7160.94824219 4757.85058594 l 1
7802.83886719 4670.85449219 m 1
 7802.83886719 4670.85449219 l 1
7908.64453125 4569.75 m 1
 7908.64453125 4569.75 l 1
9357.015625 4981.21875 m 1
 9357.015625 4981.21875 l 1
9352.3125 6067.49707031 m 1
 9352.3125 6067.49707031 l 1
9766.13183594 6067.49707031 m 1
 9766.13183594 6067.49707031 l 1
EndSplineSet
Validated: 524325
EndChar

StartChar: K
Encoding: 75 75 37
Width: 22433
Flags: HW
LayerCount: 2
Fore
SplineSet
17236.4267578 4042.890625 m 1
 17241.1660156 4042.890625 17966.0996094 4038.15136719 17970.8369141 4038.15136719 c 2
 17970.8369141 3950.49707031 l 1
 17236.4267578 3950.49707031 l 1
 17236.4267578 4042.890625 l 1
6217.91796875 4241.89257812 m 2
 5355.57910156 4241.89257812 l 1
 5355.57910156 4140.02148438 l 1
 4850.96777344 4140.02148438 l 1
 4850.96777344 4256.10644531 l 1
 3443.74707031 4256.10644531 2041.26171875 4256.10644531 634.037109375 4256.10644531 c 0
 629.298828125 4256.10644531 435.037109375 4367.453125 430.297851562 4372.19042969 c 1
 430.297851562 4372.19042969 333.166015625 4367.453125 300 4367.453125 c 1
 300 3246.88574219 l 1
 300 3246.88574219 356.856445312 2690.15527344 565.334960938 704.880859375 c 0
 607.977539062 709.620117188 650.62109375 714.358398438 693.263671875 719.095703125 c 1
 683.788085938 714.358398438 1711.95996094 2057.6171875 1851.73535156 2242.40332031 c 1
 1804.35546875 1718.84082031 l 1
 2091.01074219 1936.79394531 2375.29882812 2159.48535156 2661.95507812 2377.43945312 c 0
 2666.69238281 2377.43945312 3531.40039062 2377.43945312 3619.05664062 2377.43945312 c 1
 3619.05664062 2441.40527344 l 1
 3768.30664062 2441.40527344 l 1
 3768.30664062 3095.265625 l 1
 4855.70703125 3095.265625 l 1
 4855.70703125 3237.40917969 l 1
 5718.04589844 3237.40917969 l 1
 5718.04589844 3237.40917969 5710.93847656 3197.13574219 5734.62890625 3201.87402344 c 2
 5938.36816406 3201.87402344 l 1
 5938.36816406 2706.73925781 l 1
 6011.80957031 2706.73925781 6073.40527344 2711.4765625 6146.84667969 2711.4765625 c 0
 6151.58496094 2711.4765625 6568.53808594 2512.47558594 6568.53808594 2512.47558594 c 2
 6573.27734375 2507.73925781 6703.57617188 2377.43945312 6713.05273438 2367.96386719 c 1
 6713.05273438 2367.96386719 6772.27929688 2367.96386719 6800.70703125 2367.96386719 c 1
 6727.265625 1910.734375 l 2
 6727.265625 1910.734375 6727.265625 1905.99511719 5680.13964844 164.734375 c 1
 6137.36914062 24.9619140625 6592.22949219 -117.181640625 7049.45800781 -256.95703125 c 1
 7049.45800781 -256.95703125 7184.49511719 -197.73046875 7198.70996094 -192.9921875 c 1
 7193.97265625 -188.254882812 7222.40039062 -72.171875 7217.66308594 -62.6943359375 c 2
 7106.31640625 81.818359375 l 1
 7864.41699219 1335.05175781 l 2
 7864.41699219 1335.05175781 7864.41699219 1363.48144531 7864.41699219 1377.6953125 c 0
 7878.62988281 1377.6953125 8295.5859375 1387.17285156 9337.97363281 1387.17285156 c 0
 9347.44921875 1372.95605469 9345.08105469 1330.31347656 9368.77148438 1335.05175781 c 0
 9790.46386719 1399.01757812 9411.41308594 1294.77832031 9861.53613281 1396.64746094 c 1
 9892.33300781 979.692382812 l 1
 10193.2050781 -105.336914062 l 1
 10193.2050781 -105.336914062 10730.9824219 -1237.74902344 10735.7197266 -1247.22558594 c 2
 12322.9921875 -498.602539062 l 1
 12173.7412109 -197.73046875 12019.7519531 98.40234375 11870.5009766 399.2734375 c 0
 11614.6425781 1330.31347656 l 2
 11614.6425781 1330.31347656 11583.84375 1659.61425781 11579.1064453 1728.31542969 c 2
 11579.1064453 1728.31542969 11716.5117188 1770.95898438 11725.9882812 1780.43652344 c 2
 11725.9882812 1780.43652344 11725.9882812 1839.66308594 11721.2490234 1849.13964844 c 2
 11652.5478516 1910.734375 l 1
 11652.5478516 2775.44238281 l 1
 11652.5478516 2775.44238281 11875.2392578 2891.52636719 11879.9765625 2901.00292969 c 2
 11879.9765625 2901.00292969 11879.9765625 2941.27636719 11884.7158203 2941.27636719 c 0
 15194.2949219 2941.27636719 15199.0332031 2941.27636719 15199.0332031 2941.27636719 c 1
 15199.0332031 617.227539062 l 1
 15855.2636719 617.227539062 l 1
 15855.2636719 2946.015625 l 1
 16615.7324219 2946.015625 l 1
 16615.7324219 3585.66113281 l 1
 16945.0332031 3585.66113281 l 1
 16945.0332031 3498.00683594 l 1
 17262.4873047 3498.00683594 l 1
 17262.4873047 3580.92285156 l 1
 17949.515625 3580.92285156 l 1
 17949.515625 3488.52929688 l 1
 18255.1230469 3488.52929688 l 1
 18255.1230469 3585.66113281 l 1
 18669.7089844 3585.66113281 l 1
 18669.7089844 3275.31347656 l 1
 22133.2792969 3275.31347656 l 1
 22133.2792969 4246.62988281 l 1
 18674.4472656 4246.62988281 l 1
 18674.4472656 3978.92480469 l 1
 18266.9697266 3978.92480469 l 1
 18266.9697266 4038.15136719 l 1
 18226.6962891 4038.15136719 l 1
 18226.6962891 4196.87988281 l 1
 17999.2646484 4196.87988281 l 1
 17999.2646484 4308.2265625 l 1
 18494.3994141 4312.96386719 l 2
 18610.4824219 4367.453125 18721.8300781 4429.046875 18828.4365234 4526.17871094 c 2
 18828.4365234 4673.06054688 l 2
 18818.9619141 4673.06054688 17688.9189453 4682.53808594 17684.1796875 4682.53808594 c 1
 17684.1796875 4628.04882812 l 1
 17684.1796875 4628.04882812 17639.1679688 4637.52441406 17643.9052734 4613.83398438 c 2
 17643.9052734 4196.87988281 l 1
 16971.0917969 4196.87988281 l 1
 16971.0917969 4047.62988281 l 1
 16971.0917969 4047.62988281 16935.5566406 4049.99804688 16940.2939453 4031.04589844 c 2
 16940.2939453 3978.92480469 l 1
 16610.9951172 3978.92480469 l 1
 16610.9951172 4706.22753906 l 1
 11870.5009766 4706.22753906 l 1
 11870.5009766 4706.22753906 11875.2392578 4682.53808594 11861.0244141 4687.27539062 c 2
 10318.7636719 4687.27539062 l 1
 10314.0283203 5142.13574219 l 1
 10309.2890625 5142.13574219 10212.1572266 5239.26660156 10212.1572266 5239.26660156 c 1
 9373.50878906 5284.28027344 l 0
 9368.77148438 5284.28027344 9134.23242188 5506.97167969 9134.23242188 5506.97167969 c 2
 9129.49707031 5521.18652344 8935.23339844 6248.48730469 8935.23339844 6253.22558594 c 2
 8087.10839844 6253.22558594 l 1
 8077.63183594 6063.70117188 8063.41894531 5881.28222656 8053.94140625 5691.75683594 c 0
 8053.94140625 5687.02050781 7911.796875 5345.875 7911.796875 5345.875 c 2
 7902.32128906 5336.39746094 7772.02148438 5298.49316406 7762.546875 5289.01660156 c 2
 7745.96386719 4687.27539062 l 1
 7125.26855469 4687.27539062 l 1
 7120.52929688 4808.09667969 l 1
 7115.79394531 4808.09667969 7018.66113281 4905.22949219 7013.92285156 4909.96679688 c 1
 7013.92285156 4905.22949219 6540.11035156 4905.22949219 6540.11035156 4905.22949219 c 0
 6530.63378906 4909.96679688 6457.19238281 4983.40820312 6452.45507812 4983.40820312 c 1
 6452.45507812 4983.40820312 6111.31054688 4983.40820312 6092.35839844 4983.40820312 c 1
 6092.35839844 4978.67089844 6004.70214844 4891.01464844 5999.96386719 4886.27636719 c 1
 6004.70214844 4886.27636719 6004.70214844 4701.49023438 6004.70214844 4687.27539062 c 1
 6009.44140625 4687.27539062 6097.09570312 4599.62011719 6101.83300781 4594.88183594 c 1
 6101.83300781 4599.62011719 6310.31152344 4594.88183594 6369.53808594 4594.88183594 c 2
 6369.53808594 4502.48925781 l 2
 6369.53808594 4497.75097656 6241.60839844 4284.53613281 6217.91796875 4241.89257812 c 2
8475.63476562 1770.95898438 m 1
 8475.63476562 1979.43652344 8475.63476562 2192.65332031 8475.63476562 2401.12988281 c 0
 8480.37304688 2401.12988281 9143.70996094 2396.39160156 9143.70996094 2401.12988281 c 1
 9148.44921875 2396.39160156 9420.890625 2145.27246094 9420.890625 2145.27246094 c 1
 9420.890625 2140.53320312 9499.06933594 1877.56738281 9499.06933594 1877.56738281 c 1
 9499.06933594 1868.09082031 9406.67578125 1600.38769531 9406.67578125 1600.38769531 c 1
 9337.97363281 1515.10058594 l 1
 9352.18652344 1455.87402344 l 1
 9018.14941406 1455.87402344 8300.32519531 1460.61230469 8309.79980469 1455.87402344 c 1
 8096.58398438 1612.23339844 l 1
 8077.63183594 1666.72070312 8056.30957031 1716.47167969 8037.35742188 1770.95898438 c 1
 8475.63476562 1770.95898438 l 1
9143.70996094 2401.12988281 m 1
 9143.70996094 2401.12988281 l 1
9420.890625 2145.27246094 m 1
 9420.890625 2145.27246094 l 1
9499.06933594 1877.56738281 m 1
 9499.06933594 1877.56738281 l 1
8096.58398438 1605.12597656 m 1
 8096.58398438 1605.12597656 l 1
10212.1572266 5239.26660156 m 1
 10212.1572266 5239.26660156 l 1
10314.0283203 5149.24316406 m 1
 10314.0283203 5149.24316406 l 1
7864.41699219 1335.05175781 m 1
 7864.41699219 1335.05175781 l 1
7198.70996094 -192.9921875 m 1
 7198.70996094 -192.9921875 l 1
7049.45800781 -256.95703125 m 1
 7049.45800781 -256.95703125 l 1
6713.05273438 2367.96386719 m 1
 6713.05273438 2367.96386719 l 1
430.297851562 4372.19042969 m 1
 430.297851562 4372.19042969 l 1
6101.83300781 4594.88183594 m 1
 6101.83300781 4594.88183594 l 1
6004.70214844 4687.27539062 m 1
 6004.70214844 4687.27539062 l 1
5999.96386719 4886.27636719 m 1
 5999.96386719 4886.27636719 l 1
6092.35839844 4983.40820312 m 1
 6092.35839844 4983.40820312 l 1
6452.45507812 4983.40820312 m 1
 6452.45507812 4983.40820312 l 1
7013.92285156 4909.96679688 m 1
 7013.92285156 4909.96679688 l 1
7120.52929688 4808.09667969 m 1
 7120.52929688 4808.09667969 l 1
EndSplineSet
Validated: 37
EndChar

StartChar: question
Encoding: 63 63 38
Width: 18078
Flags: HW
LayerCount: 2
Fore
SplineSet
7203 5182.625 m 27
 7041 5182.625 7036.5 4768.625 7198.5 4768.625 c 27
 8042.25 4768.625 8514.75 4768.625 9358.5 4768.625 c 27
 9520.5 4768.625 9529.5 5173.625 9367.5 5173.625 c 27
 8523.75 5173.625 8046.75 5182.625 7203 5182.625 c 27
7630.5 2381.375 m 27
 7889.25 2381.375 8022 2381.375 8280.75 2381.375 c 27
 8364 2381.375 8289.75 2244.125 8289.75 2160.875 c 27
 8289.75 2046.125 8188.5 1938.125 8073.75 1938.125 c 27
 7898.25 1938.125 7630.5 1773.875 7630.5 1949.375 c 27
 7630.5 2124.875 7459.5 2381.375 7630.5 2381.375 c 27
300 4975.625 m 27
 300 4518.875 714 4345.625 714 3888.875 c 27
 714 3225.125 714 2847.125 714 2183.375 c 27
 714 1933.625 1355.25 1933.625 1355.25 2183.375 c 27
 1355.25 2768.375 1602.75 3081.125 1602.75 3666.125 c 27
 1602.75 3992.375 2442 4003.625 2442 3677.375 c 27
 2442 3013.625 2455.5 2631.125 2455.5 1967.375 c 27
 2455.5 1800.875 2709.75 1962.875 2876.25 1962.875 c 27
 3249.75 1962.875 2939.25 2811.125 3312.75 2811.125 c 27
 3726.75 2811.125 3967.5 2804.375 4381.5 2804.375 c 27
 4615.5 2804.375 4390.5 2435.375 4390.5 2201.375 c 27
 4390.5 1638.875 3519.75 1629.875 3519.75 1067.375 c 27
 3519.75 808.625 3497.25 455.375 3756 455.375 c 27
 4086.75 455.375 4134 446.375 4464.75 446.375 c 27
 4698.75 446.375 5031.75 1123.625 5031.75 1357.625 c 3
 5031.75 1771.625 5040.75 1524.125 5040.75 1938.125 c 19
 5040.75 2113.625 5711.25 2077.625 6042 2086.625 c 0
 6280.5 2091.125 6341.25 1749.125 6341.25 1510.625 c 27
 6341.25 500.375 6321 -64.375 6316.5 -1074.625 c 25
 7824 -1079.125 l 25
 7671 -908.125 7432.5 -860.875 7432.5 -635.875 c 27
 7432.5 -50.875 7423.5 275.375 7423.5 860.375 c 27
 7423.5 984.125 7520.25 1083.125 7644 1083.125 c 27
 8141.25 1083.125 8429.25 1092.125 8926.5 1092.125 c 27
 9273 1092.125 8814 1949.375 9160.5 1949.375 c 27
 9696 1949.375 9909.75 2381.375 10445.25 2381.375 c 27
 10818.75 2381.375 10857 2842.625 10857 3216.125 c 3
 10857 3256.625 10602.75 3247.625 10422.75 3247.625 c 25
 10422.75 3677.375 l 25
 10852.5 3677.375 l 25
 10949.25 3519.875 10911 3274.625 11100 3274.625 c 27
 13615.5 3274.625 15037.5 3247.625 17553 3247.625 c 27
 17676.75 3247.625 17778 3344.375 17778 3468.125 c 27
 17778 3798.875 17778 3981.125 17778 4311.875 c 27
 17778 4426.625 17685.75 4532.375 17571 4532.375 c 27
 15051 4532.375 13620 4532.375 11095.5 4532.375 c 27
 10902 4532.375 10953.75 4271.375 10861.5 4104.875 c 25
 10431.75 4109.375 l 25
 10422.75 4325.375 l 25
 10265.25 4739.375 10461 5394.125 10008.75 5394.125 c 27
 8575.5 5394.125 7779 5394.125 6345.75 5394.125 c 27
 6082.5 5394.125 6381.75 4759.625 6118.5 4759.625 c 27
 5695.5 4759.625 5463.75 4759.625 5040.75 4759.625 c 27
 4874.25 4759.625 5054.25 5016.125 5054.25 5182.625 c 27
 5054.25 5349.125 4797.75 5182.625 4631.25 5182.625 c 27
 4552.5 5182.625 4705.5 4989.125 4626.75 4989.125 c 27
 3866.25 4989.125 3427.5 4975.625 2667 4975.625 c 27
 2478 4975.625 2644.5 4548.125 2455.5 4548.125 c 27
 2037 4548.125 1791.75 4552.625 1368.75 4552.625 c 27
 1179.75 4552.625 1317 4975.625 1197.75 4975.625 c 3
 1083 4975.625 300 5306.375 300 4975.625 c 27
EndSplineSet
Validated: 41
EndChar

StartChar: period
Encoding: 46 46 39
Width: 6109
VWidth: 2498
Flags: HW
LayerCount: 2
Fore
SplineSet
5809.80078125 701 m 1
 5809.80078125 6484.40039062 l 1
 307.200195312 6484.40039062 l 1
 300 704.599609375 l 1
 3061.20019531 -888.400390625 l 1
 5809.80078125 701 l 1
642 902.599609375 m 1
 649.200195312 6146 l 1
 5471.40039062 6146 l 1
 5471.40039062 895.400390625 l 1
 3061.20019531 -494.200195312 l 1
 642 902.599609375 l 1
5080.80078125 1212.20019531 m 1
 5080.80078125 1212.20019531 5080.80078125 1982.59960938 5080.80078125 1989.79980469 c 1
 3054 818 l 2
 3050.40039062 818 1047 1984.40039062 1029 1995.20019531 c 1
 1029 1734.20019531 1029 1466 1029 1205 c 1
 3054 44 l 1
 5080.80078125 1212.20019531 l 1
5091.60058594 2466.79980469 m 1
 5091.60058594 2466.79980469 5091.60058594 3240.79980469 5091.60058594 3248 c 1
 3061.20019531 2076.20019531 l 2
 3061.20019531 2076.20019531 1057.80078125 3237.20019531 1039.80078125 3248 c 1
 1039.80078125 2987 1039.80078125 2720.59960938 1039.80078125 2459.59960938 c 1
 3064.80078125 1302.20019531 l 1
 3061.20019531 1302.20019531 5091.60058594 2466.79980469 5091.60058594 2466.79980469 c 1
5080.80078125 3723.20019531 m 1
 5080.80078125 3723.20019531 5080.80078125 4497.20019531 5080.80078125 4504.40039062 c 1
 3054 3332.59960938 l 2
 3050.40039062 3332.59960938 1050.60058594 4497.20019531 1029 4508 c 1
 1029 4247 1032.60058594 3977 1032.60058594 3716 c 1
 3057.60058594 2558.59960938 l 1
 5080.80078125 3723.20019531 l 1
1032.60058594 5753.59960938 m 1
 1025.40039062 5746.40039062 1021.80078125 5746.40039062 1029 5746.40039062 c 1
 1032.60058594 4965.20019531 l 1
 3057.60058594 3804.20019531 l 1
 5080.80078125 4972.40039062 l 1
 5080.80078125 5750 l 1
 1029 5750 1032.60058594 5753.59960938 1032.60058594 5753.59960938 c 1
EndSplineSet
Validated: 524329
EndChar

StartChar: parenleft
Encoding: 40 40 40
Width: 5208
VWidth: 2548
Flags: HW
LayerCount: 2
Fore
SplineSet
300 3719 m 29
 1681.5 3719 l 29
 1681.5 -274 l 29
 3525 -274 l 29
 3525 3719 l 29
 4908 3719 l 29
 2604 5870 l 29
 300 3719 l 29
EndSplineSet
Validated: 9
EndChar

StartChar: parenright
Encoding: 41 41 41
Width: 5208
VWidth: 2548
Flags: HW
LayerCount: 2
Fore
SplineSet
300 1877 m 25
 1681.5 1877 l 25
 1681.5 5870 l 25
 3525 5870 l 25
 3525 1877 l 25
 4908 1877 l 25
 2604 -274 l 29
 300 1877 l 25
EndSplineSet
Validated: 1
EndChar

StartChar: uni0000
Encoding: 0 0 42
Width: 2048
Flags: HW
LayerCount: 2
Fore
SplineSet
1016 684 m 0
 895 704 840 751 815 872 c 0
 745 1212 783 1508 934 1819 c 0
 1045 2046 1151 2064 1360 2150 c 0
 1528 2219 1620 2427 1556 2597 c 0
 1464 2843 1434 2875 1094 2855 c 0
 781 2836 721 2646 655 2306 c 0
 639 2223 518 2128 434 2146 c 0
 332 2169 240 2240 254 2343 c 0
 293 2638 350 2830 553 3047 c 0
 705 3209 904 3286 1126 3277 c 0
 1437 3265 1756 3162 1884 2740 c 0
 1972 2449 1947 2255 1749 2023 c 0
 1630 1884 1327 1780 1257 1610 c 0
 1155 1362 1220 1143 1188 877 c 0
 1178 791 1100 670 1016 684 c 0
1024 0 m 27
 854 0 784 86 784 256 c 27
 784 412 868 512 1024 512 c 27
 1174 512 1255 406 1255 256 c 27
 1255 102 1178 0 1024 0 c 27
EndSplineSet
Validated: 33
EndChar

StartChar: asciitilde
Encoding: 126 126 43
Width: 32057
Flags: HW
LayerCount: 2
Fore
SplineSet
300 3508 m 2
 357 -167 l 2
 31757 0 l 2
 31577 3688 l 2
 300 3508 l 2
EndSplineSet
Validated: 9
EndChar
